<?xml version="1.0" encoding="UTF-8"?>
<svg xmlns="http://www.w3.org/2000/svg" xmlns:xlink="http://www.w3.org/1999/xlink" viewBox="0 0 1200 400">
  <defs>
    <style>
      .cls-1 {
        fill: #6f6f6f;
      }

      .cls-2 {
        fill: #fbd250;
      }

      .cls-2, .cls-3, .cls-4, .cls-5 {
        mix-blend-mode: screen;
      }

      .cls-6 {
        fill: none;
      }

      .cls-7 {
        fill: #b5b5b5;
      }

      .cls-3 {
        fill: #f36f3f;
      }

      .cls-8 {
        clip-path: url(#clippath-1);
      }

      .cls-9 {
        fill: #4259a7;
      }

      .cls-10 {
        isolation: isolate;
      }

      .cls-11 {
        clip-path: url(#clippath-3);
      }

      .cls-4 {
        fill: #7e90c8;
      }

      .cls-12 {
        fill: #010101;
      }

      .cls-13 {
        clip-path: url(#clippath-2);
      }

      .cls-14 {
        clip-path: url(#clippath);
      }

      .cls-5 {
        fill: #4359a8;
      }
    </style>
    <clipPath id="clippath">
      <path class="cls-6" d="M135.84,201.67l.37-21.17s14.49-21.45,17.39-27.94c2.9-6.49-5.68-37.8-14.61-57.04-5.86-12.63-15.62-22.38-21.63-27.58h0c1.7-.41,3.33-4.09,1.82-8.26-1.4-3.87,2.19-8.23-.33-10.75.31-1.04.58-1.91.79-2.52.78-2.26.85-4.43.67-6.2,2.77-.29,3.94-6.9.69-8.22.62-2.21,1.01-5.27.27-9-1.47-7.35-10.13-11.42-17.66-10.54-.19-.61-.72-1.08-1.65-1.27-2.91-.6-5.38,2.79-5.38,2.79,0,0-1.01-1.13-3.65-1.13-3.65,0-10.22,6.37-13.6,14.93-3.38,8.56-.46,15.66,1.06,20.7,1.53,5.04.27,9.82,3.12,9.76,0,0,0-.03,0-.07v2.44c-1.63,1.11-3.46,2.19-5.52,3.14,0,0-22.46,7.53-35.46,20.4s-18.21,52.44-16.57,63.4c1.64,10.95,6.99,19.3,10.54,22.59,5.48,5.07,2.86,21.61,6.57,32.45,1.4,4.07,3.88,6.1,7.6,5.81l12.4,116.35c.02,3.94-5.19,6.04-9.78,8.11-4.59,2.07-7.65,3.48-11.27,7.12-3.16,3.18-2.37,9.42-2.37,9.42h49.66s3.26-9.64,1.52-19.76c1.06-.35,1.83-.84,2.21-1.52,2.62-4.68-2.85-8.94-1.03-10.53,1.82-1.6,3.88-5.96.92-16.92-2.96-10.96-.91-18.04,1.14-23.18,2.05-5.14-2.51-4.79-.11-12.9,1.56-5.28-4.67-9.59-4.1-19.07.57-9.48,6.38-31.62,6.38-31.62,0,0,1.03,40.24,1.71,59.94.65,18.64,3.87,53.77,3.87,53.77.84.13,1.68.24,2.52.34-.77,1.44-2.3,4.69-2.91,8.79-1.45,9.8,2.02,12.67,2.02,12.67h38.41s7.13-12.19-8.28-19.27c-1.87-.86-3.38-1.9-4.6-3.06-.23-11.19,4.09-46.26,5.39-52.01,1.74-7.74-.87-13.21-.87-13.21,3.42-6.21,1.14-8.64,1.14-15.93,0-4.52.68-26.39,1.14-40.64.04-1.3.06-2.49.06-3.6ZM120.1,38.72c-.33-1.71-.82-2.8-.82-2.8,0,0,.63-.89,1.25-2.51,1.65.96,1.37,4.99-.43,5.3Z"/>
    </clipPath>
    <clipPath id="clippath-1">
      <path class="cls-6" d="M243.83,165.07s-4.15-14.84-9.65-28.95c-4.95-12.69-9.72-27.89-17.5-31.88,0,0,0,0,0,0-4.76-5.55-17.27-8.36-26.06-12.66.01-.05.02-.09.03-.12.25-1.04-1.86-1.81-2.05-1.04,0,.03-.02.06-.02.09-2.91-1.64-5.22-3.51-6.41-5.81-.12-.24-.22-.5-.31-.78,1.95.79,3.91.31,5.14-.99,1.93-2.04.4-4.83.4-4.83,0,0,1.43.58,2.26.56,2.42-.06,3.85-1.51,3.44-4.62-.22-1.63.75-3.44,2.26-6.09,1.83-3.22,2.78-7.1.2-11.24-2.45-3.93-7.39-4.38-7.39-4.38,0,0-1.36-5.92-6.12-8.63-4.76-2.72-12.51,0-12.51,0-2.49-3.96-5.4-4.95-11.47-4.98-7.32-.03-12.57,5.95-13.45,10.12-.88,4.18.71,5.33.43,6.46-.28,1.12-3.37,2.13-5.42,7.31-2.81,7.1.45,11.82,2.45,15.06,1.98,3.2,3.18,4.57,5.4,6.22,4.65,3.45,9.83,1.56,9.83,1.56,0,0,.68,2.86-1.29,4.9-.68.7-3.01,2.25-5.78,3.98h0c-1.03-.37-1.83.2-2.07,1.28-4.83,2.96-10.05,5.97-10.05,5.97,0,0-8.02,5.37-11.44,9.73-2.5,3.19-7.77,12.11-9.22,22.13-3.42,23.76.52,39.64.52,39.64l5.91,2.08s-2.19,64.69.62,77.1l3.41,43.95s1.45.49,4.21,1.22c1.29,13.44,4.99,51.71,5.42,55.36.65,5.51-9.56,8.4-12.15,9.12-6.09,2.07-8.93,2.03-13.46,5.64-4.54,3.61-1.78,9.27,3.47,9.27,3.29,0,45.15.09,45.15.09l.04-14.27,1.94-60.19c3.62.32,7.49.57,11.6.72-.71,11.05-.64,26.15.06,37.12.55,8.75-.37,16.66-1.37,22.21-.01.02-1,2.08-1.9,6.91-.9,4.86-.83,7.5-.83,7.5,0,0,34.31,0,41.04,0s9.82-2.41,9.82-6.02c0-4.51-7.25-6.93-11.99-8.78-1-.39-1.4-.21-1.66.28-3.97-1.14-11.11-3.68-12.24-7.54-.83-2.86,9.15-40.85,12.49-53.37,7.51-1.33,10.52-2.89,10.52-2.89,0,0,2.09-23.55.67-44.15,0,0-2.28-36.01-3.94-49.6-.12-.99-.29-2.37-.5-4.04,7.6-5.87,32.51-26.01,29.56-35.71ZM210.83,156.36c2.28-.1,3.01,16.4,3.01,16.4l-2.64,1.15c-.92-9.55-1.39-17.5-.37-17.55Z"/>
    </clipPath>
    <clipPath id="clippath-2">
      <path class="cls-6" d="M1187.61,349.09c-10-5.77-13.57-3.36-19.21-11.97-1.21-1.84-2.08-3.56-2.73-5.15.35-.13.68-.25.98-.37,6.16-2.35,1.23-26.36,1.23-26.36,0,0-1.54-31.37,0-44.47,1.42-12.08,2.71-35.81,2.9-39.42.96-.84,1.94-1.73,2.96-2.67,0,0,4.31-10.75,2.09-21.63l1.18.2s2.28-.91,1.62-2.12h0c1.76-.68,7.56-3.33,7.99-8.62.18-2.16.04-15.27.05-15.9.05-3.35.17-6.7.14-10.05-.03-3.39-.14-6.79-.33-10.18-.18-3.14-.16-6.41-1.51-9.32-1.12-2.4-2.98-4.43-3.93-6.91-1.34-3.51-.72-7.66-2.63-10.89-.99-1.67-2.55-2.9-3.97-4.22-.74-.69-1.45-1.43-2.03-2.27-.55-.8-.76-1.67-1.17-2.51-1.49-3.1-3.13-6.17-5-9.07-2.32-3.59-5.05-6.92-8.25-9.76-3.78-3.33-8.17-5.91-12.93-7.58-1.51-.39-2.93-.62-3.94-.69-.07-.27-.15-.51-.26-.67-.33-.49-1.89-.6-1.89-.6l-1.88-10.8s0-.18,0-.49c.03-.26.05-.52.04-.79-.1-3.05,0-9.28,0-9.32.25-1.6,1.71-.74,3.21-3.65,1.56-3.01,3.37-11.5-3.28-12.89.18-2.56-1.68-7.2-2.22-8.18-.66-1.21.94-3.74-.11-6.55s-3.14-1.54-3.14-1.54c0,0-.12-1.72-1.47-2.65-1.99-1.38-3.49.07-3.49.07,0,0-2.91-4.34-8.61-4.34-1.86,0-3.53.34-5.18,1.22-3.1,1.65-4.03,4.33-4.42,6.3-.4,2.02-1.59,2.1-1.43,4.73,0,0-1.54-.61-3.3,1.93-1.76,2.53-1.89,13.31-1.33,15.38,0,0,0,0,0,0-1.07.58-2.66,2.25-1.59,6.96,1.54,6.77,5.5,8.31,7.81,8.03,0,0,1.27,5.48,2.3,7.39.57,1.06-.11,4.88-.58,7.18,0,0-.01,0-.02,0-.02-.03-.04-.05-.04-.05-.54-.05-.97.04-1.3.22-2.44.33-7.14,1.02-10.57,1.85-13.95,3.36-17.82,5.84-19.72,9.05-4.99,8.43-14.52,25.49-17.93,38.43-1.76,6.69-1.87,13.64-4.21,20.19-.76,2.12-1.7,4.26-1.61,6.5.1,2.49,1.45,4.8,1.49,7.29.05,2.76-1.12,5.17-.43,7.94.65,2.57,2.54,4.46,4.04,6.59,2.66,3.79-1.33,11.46,6.04,13.61,0,0,.07.53.6,1.54.56,1.06,1.9,1.66,4,.37h0l4.96,8.37c-2.73,4.98,2.25,11.83,5.11,23.99,3.54,15.07,12.89,69.32,15.36,82.26,2.46,12.94,1.23,19.1,6.32,20.95,1.19.43,2.79.69,4.65.78-3.77,9.83-16.64,14.25-23.81,18.67-7.96,4.91-3.7,10.52-3.7,10.52h51.74l-2.08-33.61c.16-.07.32-.13.48-.2,10.01-4.45.92-9.72.92-9.72,4.93-6.16-2.62-8.16-3.08-11.86-.46-3.7-6.32-44.52-5.85-57.74.46-13.22.77-18.2,2-14.2,1.23,4.01,9.86,45.91,12.94,67.52,3.08,21.61-.62,32.77,3.85,34.55.83.33,2.04.41,3.5.3v24.97h40.96c4.72,0,12.68-8.14,2.68-13.91ZM1158.58,183.5c-.61,2.85-.85,4.96-.89,6.52-.16.03-.31.07-.44.11v-19.79s4.27-.45,1.33,13.15ZM1139.02,86.07v-.08s0,.05,0,.08ZM1081.62,161.36c-.2-6.86.21-7.37,1.64-7.37,1.25,0,1.96,27.11,2.11,33.82l-1.63-1.47c.34-.61.53-1.17.53-1.66,0-1.41-1.1-2.1-1.1-2.1h0c-.31-3.39-1.38-15.37-1.56-21.22Z"/>
    </clipPath>
    <clipPath id="clippath-3">
      <path class="cls-6" d="M1099.92,371.14c-13.03-5.79-14.4-13.89-14.4-13.89v-39.44c9.1-.63,15.12-1.21,15.12-1.21,0,0,.84-7.06,1.57-20.97.74-13.92-1.47-61.94-5.99-75.67-4.08-12.41-11.39-32.93-12.77-36.78h0c3.63.46,7.75-1.57,9.3-5.49,4.75-12.02,14.17-37.8,12.18-48.74-1.6-8.82-12.19-18.19-20.41-24.28.89-2.53.67-5.26.33-7.91-.23-1.75-.73-3.45-.83-5.19-.11-1.95-.7-3.96-1.04-5.89-.34-1.9-.65-3.81-.95-5.71-.22-1.42-.68-3.03-.59-4.47.08-1.23.11-2.34-.05-3.59-.37-2.83-1.17-5.6-2.53-8.11-5.25-9.71-12.06-16.92-21.38-14.88,0,0-1.32-5.44-12.21-3.1-10.89,2.35-15.2,17.43-14.11,25.73,1.1,8.3,4.39,16.37,3.45,22.48-.94,6.11-5.72,10.26-3.6,13.31-5.72,3.6-10.89,5.01-17.15,23.57-6.27,18.56-9.01,26.61-7.28,31.33,1.88,5.13,7.02,14.64,19.84,19.6-4.36,8.46-12,26.38-17.02,55.45-8.89,51.53-8.55,75.15-8.55,75.15,3.88,3.23,12.47,5.06,23.06,6.01.69,5.13,1.38,10.18,2,14.67,0,0,0,0,0,0l2.29,25.54s-.92,4.74-8.35,9.34c-5.85,3.62-9.99,4.77-12.11,7.76-3.18,4.47,1.87,7.69,4.62,7.69h10.48c7.94,0,15.15-4.47,15.15-4.47l1.17,4.47h11.09l.26-24.46s1.43-25.98-2.56-25.87h0c.29-4.23.59-8.97.85-13.82,4.23-.02,8.47-.11,12.6-.24.45,4.99.96,10.22,1.52,15.6l1.59,23.63-.51,25.17h10.54l2.24-4.16s5.43,4.16,9.79,4.16h12.86c6.73,0,9.95-8.11.53-12.3Z"/>
    </clipPath>
  </defs>
  <g class="cls-10">
    <g id="Layer_1">
      <g class="cls-14">
        <g>
          <path class="cls-12" d="M63.07,324.73c.02,3.94-5.19,6.04-9.78,8.11-4.59,2.07-7.65,3.48-11.27,7.12-3.16,3.18-2.37,9.42-2.37,9.42h49.66s4.52-13.38.07-25.16c-3.29-8.71-4.94-12.73-4.94-12.73l-21.37,13.25Z"/>
          <path class="cls-12" d="M104.8,327.12s-2.54,4.02-3.37,9.59c-1.45,9.8,2.02,12.67,2.02,12.67h38.41s7.13-12.19-8.28-19.27-6.76-26.27-6.76-26.27l-22.02,23.28Z"/>
          <path class="cls-1" d="M58.27,192.1h77.07s.72,4.46.44,13.16c-.46,14.25-1.14,36.12-1.14,40.64,0,7.28,3.99,11.7-1.14,15.93,0,0,2.62,5.47.87,13.21-1.3,5.75-5.61,40.83-5.39,52.02,0,0-13.38,2.67-27.17.53,0,0-3.23-35.13-3.87-53.77-.68-19.7-1.71-59.94-1.71-59.94,0,0-5.81,22.15-6.38,31.62s5.66,13.78,4.1,19.07c-2.39,8.11,2.17,7.76.11,12.9s-4.1,12.22-1.14,23.18.9,15.32-.92,16.92,3.65,5.85,1.03,10.53-24.04.97-29.97-3.37l-13.1-122.96,8.3-9.67Z"/>
          <path class="cls-7" d="M77.99,63.73c9.82-4.52,14.72-11.93,14.72-11.93l25.52,20.62,1.42,126.55s-33.44,8.14-50.64-2.57c-17.21-10.71-13.45-68.37-13.45-68.37l22.43-64.3Z"/>
          <path class="cls-1" d="M90.7,163.67s4.4,1.82,8.16,4.42l5.47-4.18,10.98,17.64s1.29,2.62-.66,4.27c-3.85,3.26-6.33,4.73-12.04,7.67-9.56,4.92-19.02,2.64-18.55-3.03l-7.51-5.54,14.16-21.26Z"/>
          <path class="cls-12" d="M77.99,63.73s-22.46,7.53-35.46,20.4c-13.01,12.87-18.21,52.44-16.57,63.4s6.99,19.3,10.54,22.59c5.48,5.07,2.86,21.61,6.57,32.45,3.42,10,13.42,7.67,32.04-10.95,0,0,5.71,3.22,7.79-1.99,0,0-3.27-1.94-.37-9.7s8.17-16.25,8.17-16.25l-5.31-2.73s3.14-35.03,2.7-55.92c-.46-21.8-.16-37.83-10.11-41.29Z"/>
          <path class="cls-12" d="M112.09,63.73v89.02s-6.79,7.51-8.74,9.81-.54,4.38-.54,4.38l11.83,18.89s-1.94,19.41,21.13,19.41l.43-24.74s14.49-21.45,17.39-27.94-5.68-37.8-14.61-57.04-26.9-31.78-26.9-31.78Z"/>
          <path class="cls-1" d="M83.51,56.82v3.78s3.92,8.7,15.06,10.69c11.15,1.99,15.46-4.91,15.46-4.91,0,0,4.22-15.92,5.61-19.97,1.89-5.51-.37-10.48-.37-10.48,0,0,3.58-4.98,1.99-12.94s-11.61-12.08-19.51-10.22-19.51,18.58-19.51,18.58l1.26,25.48Z"/>
          <path class="cls-7" d="M100.7,16.61c.03.07.05.14.08.22.32,1,.43,2.13.14,3.15-.21.72-.63,1.32-1.21,1.78-.7.56-1.35,1.16-1.55,2.07-.18.82.09,1.69.21,2.5.11.68.12,1.4-.2,2.01-.59,1.1-2.1,1.43-2.72,2.51-.52.9-.16,1.76.37,2.53.45.65,1.07,1.73.17,2.28-1.66,1-4.65-.33-4.51-4.11s-4.97-.16-4.05,5.71c.8,5.04,3.29,3.92,3.3,6.44s-2.24,9.16-5.69,11.08c-1.59.8-1.53,3.45-1.53,3.45-2.85.07-1.59-4.71-3.12-9.76s-4.45-12.14-1.06-20.7,9.95-14.93,13.6-14.93c2.64,0,3.65,1.13,3.65,1.13,0,0,2.47-3.38,5.38-2.79s1.92,4.05-1.27,5.44Z"/>
          <path class="cls-7" d="M118.16,48.37c-2.62-1.64-3.39-1.99-5.44-2.66-5.36-1.74-10.45-2.6-13.11.48-2.66,3.08-.42,13.3,1.57,17.83s3.67,4.99,5.26,5.57.08,3.4,5.4,2.48c2-.34,3.82-3.74,5.52-4.14,1.7-.41,3.33-4.09,1.82-8.26-1.51-4.17,2.78-8.92-1.03-11.3ZM112.72,53.45l-5.32-4.71c.24.06,6.1,1.57,6.1,1.57l-.79,3.14Z"/>
          <path class="cls-12" d="M108.76,28.58c-2.49-.48-4.56,1.41-5.07,4.48-.5,3.06,1.23,5.6,4.41,5.37,1.68-.12,3.33-1.97,3.83-4.15.56-2.43-.44-5.16-3.17-5.7ZM110.2,33.88c-.32,1.26-1.14,3.06-3.08,2.78-1.53-.22-2.07-1.38-1.78-3.21.29-1.83,1.57-3.68,2.99-3.4,1.98.4,2.2,2.56,1.88,3.82Z"/>
          <path class="cls-12" d="M111.49,33.43s3.56-.55,5.24,1.38l-.06,1.24s-2.73-1.83-5.5-1.19l.31-1.43Z"/>
          <path class="cls-12" d="M120.58,31.83c-1.78-.42-3.5,1.01-4.04,3.5-.54,2.49.65,4.98,3.64,4.9,2.99-.07,4.25-7.5.4-8.4ZM119.4,38.68c-3.11-.96-.8-5.5.38-5.48,2.71.04,2.32,6.31-.38,5.48Z"/>
          <path class="cls-1" d="M77.07,94.36c.39-.49,2.08-2.38,1.05-2.92-1.18-.61-4.87,5.06-7.18,8.8-.82,1.33-1.57,3.58-1.2,5.09.33,1.34,1.27,2.46,2.38,3.27s2.41,1.32,3.71,1.79c-1.33,3.35-2.66,6.7-3.99,10.05-.77,1.93-1.54,4.02-1.02,6.02.82,3.15,4.62,4.66,5.92,7.64,1.53,3.52.71,7.52,2.5,7.51,1.29,0,1.78-4.04-.59-9.37-1.35-3.03-5.09-3.88-5.4-7.18-.26-2.78,2.33-7.23,3.25-9.86s3.01-6.18-.64-7.4c-2.16-.72-5.04-2.77-2.92-6.69.64-1.19,3.11-5.44,4.14-6.75Z"/>
          <path class="cls-1" d="M121.25,127.84s.02.03.03.04c1.24,1.89,3.9.51,2.61-1.58s-3.87-.46-2.63,1.54Z"/>
          <path class="cls-1" d="M121.27,139.74c.88,1.82,4.14.45,3.05-1.61s-3.92-.2-3.05,1.61Z"/>
        </g>
        <path class="cls-5" d="M126.09,15.01C116.66.24,93.47-1.55,79.84,9.47c-13.05,10.56-17.13,30.72-9.21,45.52-26.38,13.72-49.9,36.91-55.04,66.2-3.23,18.46,1.06,37.32,5.51,55.52,6.77,27.69,13.97,55.28,21.58,82.75,3,10.84,6.09,21.76,6.77,32.98s-1.24,22.94-7.53,32.26c-5.55,8.23-14.82,16.62-11.68,26.04,2.69,8.05,12.71,10.46,21.12,11.6,14.53,1.97,31.06,3.4,42.14-6.21,11.87,4.64,24.5,9.33,37.05,7.1,12.55-2.23,24.27-14.25,21.29-26.64-1.43-5.95-5.82-10.73-8.09-16.42-3.57-8.95-1.52-19.13,1.67-28.22s7.51-17.95,8.51-27.53c2.56-24.51-17-48.59-10.28-72.3,3.25-11.46,12.18-20.48,16.46-31.59,5.17-13.42,3.06-28.6-1.33-42.3-5.02-15.68-12.92-30.36-23.15-43.25-3.28-4.13-7.46-8.25-8.62-13.59-1.49-6.85,1.94-13.82,3.06-20.48,1.48-8.84.97-18.18-3.97-25.91Z"/>
      </g>
      <g class="cls-8">
        <g>
          <path class="cls-12" d="M131.67,292.77s5.34,55.57,5.87,60c.65,5.51-9.56,8.4-12.15,9.12-.85,1.46-3.2,3.1-3.2,3.1l.83,8.16,37.4-5.77,2.79-86.63-31.54,12.02Z"/>
          <path class="cls-12" d="M208.59,297.48s-14.56,53.93-13.56,57.36c1.58,5.4,14.9,8.22,14.9,8.22l-12.6,10.58-26.44-2.98s4.33-13.65,3.27-30.38-.67-43.08,1.73-50,32.69,7.21,32.69,7.21Z"/>
          <path class="cls-1" d="M160.57,362.62l-.04,14.27s-41.86-.09-45.15-.09c-5.25,0-8-5.66-3.47-9.27s7.37-3.57,13.46-5.64c2.25,4.96,5.49,7.14,17.2,5.68,11.7-1.46,17.99-4.95,17.99-4.95Z"/>
          <path class="cls-1" d="M172.8,362.48s-1,2.05-1.9,6.91-.83,7.5-.83,7.5c0,0,34.31,0,41.04,0s9.82-2.41,9.82-6.02c0-4.51-7.25-6.93-11.99-8.78-3.75-1.46.96,5.04-10.64,6.08s-25.5-5.7-25.5-5.7Z"/>
          <path class="cls-1" d="M124.49,252.24l3.41,43.95s18.43,6.29,49.07,7.05c30.64.76,41.08-4.67,41.08-4.67,0,0,2.09-23.55.67-44.15s-67.13-19.42-67.13-19.42l-27.09,17.24Z"/>
          <path class="cls-7" d="M213.84,172.75l-5.48,2.39,3.75,27.28s35.2-25.92,31.72-37.35-19.64-11.38-19.64-11.38l-10.35,19.06Z"/>
          <path class="cls-7" d="M138.09,101.57s15.92-9.19,17.9-11.23,1.29-4.9,1.29-4.9l-9.54-2.72-.53-28.22,29.51-5.03,7.61,16.52s-4.69,13.8-2.18,18.7c4.76,9.25,27.66,11.55,34.51,19.54,5.25,6.13-52.19,18.94-52.19,18.94l-29.44-15.37,3.04-6.24Z"/>
          <path class="cls-12" d="M138.09,101.57s-1.97,5.4,18.06,6.33c20.03.93,48.36-6.02,57.8-4.57s14.74,18.68,20.24,32.79c5.5,14.11,9.65,28.95,9.65,28.95l-29.99,7.68s-.73-16.5-3.01-16.4,2.87,39.71,3.94,48.46c1.66,13.59,3.94,49.6,3.94,49.6,0,0-86.96,4.05-94.22-2.18-2.82-12.41-.62-77.1-.62-77.1l-5.91-2.08s-3.94-15.88-.52-39.64c1.44-10.02,6.71-18.94,9.22-22.13,3.42-4.36,11.44-9.73,11.44-9.73Z"/>
          <path class="cls-1" d="M169.51,43.69s7.75-2.72,12.51,0c4.76,2.72,6.12,8.63,6.12,8.63,0,0,4.94.45,7.39,4.38,2.58,4.14,1.64,8.01-.2,11.24-1.51,2.65-2.47,4.46-2.26,6.09.41,3.11-1.01,4.57-3.44,4.62-.82.02-2.26-.56-2.26-.56,0,0,1.53,2.79-.4,4.83-2.38,2.52-7.48,1.98-9.99-4.9-1.91-5.24,1.41-10.42,1.41-10.42,0,0-2.78-.85-2.66-3.41.09-1.98,1.55-4.48.1-6.01-.57-.6-1.56-1.03-1.95-1.82-.6-1.21-.52-2.82-.98-3.76-.76-1.57-3.66-2.1-5.05,1.36-.66,1.63-1.63,3.13-3.98,1.77-.24,1.16-3.82,3.92-6.26,1.32,0,0-1.61,5.18-7.51,2.37,0,0-1.77,4.06.56,7.83.83,1.34.62,4.11.31,6.11-.21,1.34-.07,3.68.66,5.38,1.12,2.58,3.03,5.98,5.62,6.69,0,0-5.18,1.89-9.83-1.56-2.22-1.65-3.42-3.02-5.4-6.22s-5.26-7.96-2.45-15.06c2.05-5.18,5.14-6.18,5.42-7.31s-1.31-2.28-.43-6.46,6.13-10.16,13.45-10.12c6.07.03,8.98,1.02,11.47,4.98Z"/>
          <path class="cls-1" d="M160.02,64c1.22,0,1.53,2.05.65,3.75s-1.44,2.71-.96,2.97,2.01.48,1.79,1.7-3.03.9-3.99-.93c-.46-.89.54-2.49,1.25-4.1.76-1.71,1.26-3.39,1.26-3.39Z"/>
          <path class="cls-1" d="M150.2,94.32s1.87,21.65,7.87,32.56,16.02,2.03,20.75-7.24c4.97-9.75,7.75-20.81,9.77-29.23.19-.78,2.3,0,2.05,1.04-.62,2.54-8.13,38.52-23.23,42.47-6.53,1.71-11.16-1.51-15.03-14.57-2.83-9.53-3.98-20.2-4.18-21.61-.08-.56-.13-1.59-.06-2.13.23-1.08,1.04-1.65,2.07-1.28Z"/>
        </g>
        <path class="cls-4" d="M194.87,85.97c9.94-5.82,14.24-18.93,11.49-30.11-2.74-11.19-11.5-20.26-21.8-25.4-15.08-7.51-34.55-6.83-47.72,3.68-13.17,10.51-17.87,31.13-8.7,45.26,1.53,2.36,3.42,4.57,4.22,7.27,1.85,6.25-2.6,12.45-6.65,17.55-12.98,16.33-25.28,36.02-21.95,56.62,2.03,12.55,9.67,23.52,12.7,35.86,2.98,12.14,1.36,24.86.49,37.33-1.34,19.14-.87,38.4,1.39,57.45,1.17,9.82,2.82,19.66,2.19,29.53-.63,9.86-3.81,19.98-10.93,26.84-4.87,4.69-6,12.51-6.95,19.2s.73,14.15,5.92,18.48c6.2,5.17,15.2,4.54,23.24,3.82,20.9-1.88,41.92-2.5,62.9-1.84,8.7.27,17.81.69,25.68-3.04,7.87-3.73,13.81-13.16,10.48-21.21-2.54-6.13-9.29-9.33-13.23-14.67-5.21-7.05-4.81-16.89-2.03-25.21,2.78-8.31,7.61-15.8,10.8-23.96,11.06-28.25,1.48-60.93,10.22-89.98,3.39-11.26,9.42-21.56,13.03-32.75s4.45-24.23-2.07-34c-4.77-7.14-9.91-13.91-13.25-21.82-3.32-7.88-5.35-16.51-10.66-23.22-6.24-7.88-18.86-13.18-28.8-11.69Z"/>
      </g>
      <g class="cls-13">
        <g>
          <path class="cls-12" d="M1129.06,327.13l2.22,35.88h-51.74s-4.26-5.61,3.7-10.52c7.96-4.91,22.95-9.81,24.71-22.12l21.1-3.24Z"/>
          <path class="cls-12" d="M1143.96,335.18v27.83h40.96c4.72,0,12.68-8.14,2.68-13.91-10-5.77-13.57-3.36-19.21-11.97-5.65-8.61-4.26-14.81-4.26-14.81l-20.18,12.87Z"/>
          <path class="cls-1" d="M1170.81,220.88s-1.38,26.8-2.92,39.9,0,44.47,0,44.47c0,0,4.93,24.01-1.23,26.36-6.16,2.35-21.72,7.92-26.19,6.13s-.77-12.94-3.85-34.55c-3.08-21.61-11.71-63.51-12.94-67.52s-1.54.97-2,14.2,5.39,54.05,5.85,57.74c.46,3.7,8.01,5.7,3.08,11.86,0,0,9.09,5.27-.92,9.72-10.01,4.45-22.18,5.69-27.27,3.84s-3.85-8.01-6.32-20.95-11.82-67.18-15.36-82.26c-2.85-12.16-7.84-19.02-5.11-23.99,4.83-8.8,17.69-16.68,17.69-16.68l71.63,2.46,5.85,29.27Z"/>
          <path class="cls-12" d="M1186.62,186.53c.18-2.16.04-15.27.05-15.9.05-3.35.17-6.7.14-10.05-.03-3.39-.14-6.79-.33-10.18-.18-3.14-.16-6.41-1.51-9.32-1.12-2.4-2.98-4.43-3.93-6.91-1.34-3.51-.72-7.66-2.63-10.89-.99-1.67-2.55-2.9-3.97-4.22-.74-.69-1.45-1.43-2.03-2.27s-.76-1.67-1.17-2.51c-1.49-3.1-3.13-6.17-5-9.07-2.32-3.59-5.05-6.92-8.25-9.76-3.78-3.33-8.17-5.91-12.93-7.58-1.9-.49-3.67-.73-4.64-.71-15.87.37-12.96.61-12.96.61l-16.89-3.89s-7.37.9-12.18,2.06c-13.95,3.36-17.82,5.84-19.72,9.05-4.99,8.43-14.52,25.49-17.93,38.43-1.76,6.69-1.87,13.64-4.21,20.19-.76,2.12-1.7,4.26-1.61,6.5.1,2.49,1.45,4.8,1.49,7.29.05,2.76-1.12,5.17-.43,7.94.65,2.57,2.54,4.46,4.04,6.59,2.66,3.79-1.33,11.46,6.04,13.61l17.2-12.04s-1.44-15.28-1.64-22.14.21-7.37,1.64-7.37,2.15,35.31,2.15,35.31c0,0-3.27,5.01,15.15,6.24,18.42,1.23,56.7-1.74,56.7-1.74v-23.45s4.27-.45,1.33,13.15c-1.96,9.06-.1,10.71-.1,10.71l19.65,1.13s7.98-2.56,8.49-8.8Z"/>
          <path class="cls-7" d="M1139.48,88.71l-2.37-13.59s-.11-8.25,0-10.29,1.65-.88,3.25-3.96c1.6-3.08,3.47-11.94-3.8-12.98l-10.29-15.57s-17.05,2.37-19.25,4.73c-2.2,2.37-3.8,17-3.8,17,0,0-3.96.5-2.42,7.26s5.5,8.31,7.81,8.03c0,0,1.27,5.48,2.3,7.39.83,1.54-.97,8.94-.97,8.94l5.12,6.11,11.66,3.63,12.76-6.71Z"/>
          <path class="cls-1" d="M1136.56,49.38c-1.17,1.09-1.54-3.14-3.08-4.84s-4.57-2.37-4.57-4.51c0-1.06-.06-2.55-1.07-2.85-.67-.19-1.38.55-1.62,2.02-.87,5.15-8.71,3.94-12.1.06-1.27-1.46-1.38-3.19-1.38-3.19,0,0-4.68,2.26-5.72.99-.16-2.63,1.03-2.71,1.43-4.73s1.32-4.65,4.42-6.3c1.65-.88,3.33-1.22,5.18-1.22,5.7,0,8.61,4.34,8.61,4.34,0,0,1.5-1.45,3.49-.07,1.34.93,1.47,2.65,1.47,2.65,0,0,2.09-1.27,3.14,1.54s-.55,5.34.11,6.55,3.36,8.03,1.71,9.57Z"/>
          <path class="cls-1" d="M1107.95,58.57c.67-.43.61-7.21-1.54-12.54s.61-8.97.61-8.97c0,0-1.54-.61-3.3,1.93-1.76,2.53-1.89,13.31-1.33,15.38,1.71-.25,2.81,1.18,3.42,2.28s1.38,2.42,2.15,1.93Z"/>
          <path class="cls-1" d="M1118.96,58.29c1.55-.26,1.88-1.6,2.42-1.43s1.1,2.75,3.85,3.85,5.61.77,6,2.37-7.65,3.36-10.67.28c0,0-2.59,4.09-6.27,4.97-1.75.42-3.31.06-3.42-.92-.15-1.33.76-2.21,2.46-3.13,2.41-1.3,2.38-4.5,2.38-4.5,0,0-.83-.61-.44-1.38s2.37.11,3.69-.11Z"/>
          <path class="cls-1" d="M1123.31,74.88s1.93-4.21,4.98-4.7,8.86-5.66,8.86-5.66c0,0-.11,6.27,0,9.32.08,2.42-1.46,4.42-2.5,5.04-1.46.87-2.95.92-4.86-.11,0,0-1.58,3.6-5.03,4.28s-5.9-.01-7.91-2.29c-1.22-1.39-2.61-.72-4.29-1.97s-3.09-4.01-.76-6.62,4.18,1.23,5.22.8c4.04-1.65,6.3,1.89,6.3,1.89Z"/>
          <path class="cls-7" d="M1157.3,193.07s-3.27,9.18-1.85,11.53c1.42,2.35,4.98.71,4.98.71,0,0,3.7.36,1.78,5.55s-5.22,11.39-3.28,15.23,7.77-.93,14.82-7.4c0,0,4.83-12.05,1.63-23.54l-9.6-2.59-8.48.5Z"/>
          <path class="cls-1" d="M1157.25,190.13c-.96,3.39-.25,3.69-.25,3.69l20.01,3.45s2.28-.91,1.62-2.12c-.23-.42-1.58-1.11-2.46-1.49-3.42-1.47-15.23-4.7-18.92-3.53Z"/>
          <path class="cls-7" d="M1069.71,195.84l5.92,9.99s9.85-8.1,12.12-7.64c1.51.3,3.6.18,4.7-.97.94-.98.52-2.58.52-2.58l-9.61-8.63-13.66,9.83Z"/>
          <path class="cls-1" d="M1066.07,195.54s.07.53.6,1.54c.56,1.06,1.9,1.66,4,.37,4.12-2.51,13.6-9.27,13.6-12.78,0-1.41-1.1-2.1-1.1-2.1l-17.11,12.96Z"/>
          <path class="cls-1" d="M1110.27,83.88c-2.67-.25-2.76,2.71-.1,5.67s7.71,7.21,15.38,7.21,15.33-5.27,15.65-7.07c.18-1,.07-2.57-.33-3.16-.33-.49-1.89-.6-1.89-.6l.22,1.28c-1.98,1.68-6.59,6.21-13.9,6.09s-15.04-9.43-15.04-9.43Z"/>
          <path class="cls-1" d="M1085.3,103.63c-.6,1.79,1.12,1.63,2.13.71.67-.61,1-1.57,1.02-2.47.01-.61-.06-1.48-.81-1.53-1.27-.09-2.05,2.44-2.34,3.29Z"/>
          <path class="cls-1" d="M1094.93,106.05c-.04.48.11,1.01.5,1.31.41.31,1.01.29,1.47.05,1.24-.65,2.12-2.82.95-3.93-1.41-1.32-2.81,1.4-2.92,2.57Z"/>
          <path class="cls-1" d="M1104.03,107.44c-.01.58-.02,1.18.2,1.71s.75.99,1.33.93c1.73-.16,2.83-3.43,1.88-4.74-.48-.66-1.31-.98-2.1-.69-1.17.43-1.29,1.71-1.32,2.78Z"/>
          <path class="cls-1" d="M1113.02,109.17c.04.75.26,1.63.96,1.91.39.15.84.08,1.19-.13,1.31-.78,1.8-3.24.52-4.26-1.71-1.36-2.74,1.1-2.68,2.49Z"/>
          <path class="cls-1" d="M1124.1,106.87c-.29.45-.35,1-.34,1.53.01.86.25,1.82.99,2.26.83.49,2.01.04,2.46-.81.99-1.9-1.48-5.52-3.11-2.98Z"/>
          <path class="cls-1" d="M1135.8,105.89c-.37-.2-.85-.24-1.2,0-.31.21-.45.59-.54.95-.17.75-.14,1.57.21,2.26s1.04,1.23,1.81,1.27,1.57-.48,1.74-1.23c.27-1.21-1.01-2.71-2.02-3.25Z"/>
          <path class="cls-1" d="M1145.8,106.72c.2.61.54,1.19,1.06,1.56,2.04,1.42,3.52-1.65,2.49-3.25-1.35-2.09-4.35-.81-3.55,1.7Z"/>
          <path class="cls-1" d="M1095.93,118.3c1.73,1.62,3.89-1.59,2.13-3.21-1.94-1.78-3.51,1.93-2.13,3.21Z"/>
          <path class="cls-1" d="M1104.37,119.55c1.8,1.72,4.42-1.56,2.41-3.25-2.19-1.84-4.01,1.72-2.41,3.25Z"/>
          <path class="cls-1" d="M1115.15,120.4c.18.74.54,1.5,1.15,1.72,2.1.76,2.56-3.17,1.54-4.57-1.59-2.19-3.19.79-2.7,2.85Z"/>
          <path class="cls-1" d="M1126.42,118.67c.02.82.23,1.66.67,2.15s1.14.57,1.61.04c.84-.95.78-3.2-.13-3.83-1.01-.71-2.18-.23-2.15,1.64Z"/>
          <path class="cls-1" d="M1136.27,120.93c1.61,2.75,3.8-1.25,2.53-3.36-1.47-2.44-3.86,1.08-2.53,3.36Z"/>
          <path class="cls-1" d="M1145.82,115.51c-.66.24-1.06.97-1.02,1.67.09,1.85,3.12,3.57,4.19,1.55.94-1.78-1.42-3.86-3.16-3.22Z"/>
          <path class="cls-1" d="M1155.17,115.4c.53,1.31,1.92,1.96,2.58.38.4-.95.37-2.29-.02-3.23-.34-.82-.95-1.4-1.85-.95-1.41.7-1.19,2.61-.71,3.81Z"/>
        </g>
        <path class="cls-3" d="M1146.95,48.81c-.67-10.78-4.98-21.79-13.6-28.29-8.62-6.5-21.94-7.15-29.8.25-6.73,6.34-8.07,16.46-8.14,25.71s.64,18.94-3.33,27.29c-3.54,7.46-10.31,12.77-16.17,18.59-18.14,18.04-28.74,43.43-28.8,69.02-.07,30.84,14.23,59.56,24.89,88.5s17.57,62.32,3.45,89.73c-4.19,8.13-10.18,17.77-5.36,25.54,3.36,5.41,10.44,6.86,16.73,7.82,32.59,4.95,66.66,9.8,97.9-.71,8.12-2.73,17.3-8.91,15.88-17.35-1.24-7.36-9.62-10.73-14.91-15.99-7.9-7.85-8.79-20.13-9.21-31.26-.95-25.16-1.87-50.6,3.14-75.27,3.83-18.83,11.07-37,12.92-56.12,1.77-18.4-2.02-37.14-10.12-53.71-8.51-17.41-20.96-29.26-35.98-40.92-4.66-3.61-2.41-7.23-1.31-12.51,1.39-6.67,2.27-13.5,1.85-20.32Z"/>
      </g>
      <g class="cls-11">
        <g>
          <path class="cls-1" d="M1019.12,282.64s8.84,66.78,9.18,66.78h18.35s4.03-45.12,2.35-61.69c-1.68-16.57-29.88-5.09-29.88-5.09Z"/>
          <path class="cls-1" d="M1058.33,278.77s1.41,25.92,4.55,55.88l22.65,8.7v-56.6l-27.19-7.98Z"/>
          <path class="cls-12" d="M1025.9,333.11s15.65.17,22.02,0c3.99-.1,2.56,25.87,2.56,25.87l-.26,24.46h-11.09l-1.17-4.47s-7.22,4.47-15.15,4.47h-10.48c-2.75,0-7.79-3.22-4.62-7.69,2.12-2.99,6.26-4.14,12.11-7.76,7.43-4.61,8.35-9.34,8.35-9.34l-2.29-25.54Z"/>
          <path class="cls-12" d="M1085.53,333.85l-22.65.8,1.59,23.63-.51,25.17h10.54l2.24-4.16s5.43,4.16,9.79,4.16h12.86c6.73,0,9.95-8.11.53-12.3-13.03-5.79-14.4-13.89-14.4-13.89v-23.41Z"/>
          <polygon class="cls-7" points="1044.7 49.17 1060.92 54.51 1077.51 66.4 1076.5 83.09 1058.34 114.24 1040.92 92.18 1035.95 66.59 1044.7 49.17"/>
          <path class="cls-12" d="M1083.23,182.54s8.48,23.69,13,37.42,6.73,61.75,5.99,75.67c-.74,13.92-1.57,20.97-1.57,20.97,0,0-84.86,8.28-99.79-4.17,0,0-.34-23.62,8.55-75.15,7.35-42.62,20.37-61.29,20.37-61.29l39.17,1.38,14.29,5.16Z"/>
          <path class="cls-1" d="M1062.65,94.02s-3.27.7-6.7.7c-3.05,0-5.9-.31-7.32-.7-.9-.6-2.56-1.03-3.17-.5-1.02.88-.46,3.32,1.61,4.1-3.49,1.95-10.34,6.11-16.05,9.71-5.72,3.6-10.89,5.01-17.15,23.57-6.27,18.56-9.01,26.61-7.28,31.33,2.01,5.49,7.77,16.03,22.71,20.6,14.85,4.54,27.41,8.07,27.41,8.07,0,0,2.98-5.4,1.17-11.12,0,0,21.95,2.94,25.58,3.4s7.75-1.57,9.3-5.49c4.75-12.02,14.17-37.8,12.18-48.74-2.66-14.7-30.31-30.93-30.31-30.93l-11.98-3.99Z"/>
          <path class="cls-12" d="M1055.06,55.26c1.7,2.55,3.68,11.9,13.16,15.74,0,0,1.64-4.54,4.93-1.88,3.29,2.66.94,9.95-1.72,11.12-1.41.62-2.47,3.71-4.31,6.89-1.89,3.28-5.21,6.06-5.58,9.94-.19,2.01-.03,4.08-.68,5.99-.84,2.47-2.98,4.5-3.1,7.1-.1,2.25,1.35,4.26,1.89,6.45.92,3.79-.97,7.66-1.07,11.56-.18,7.02,6.5,14.08,13.71,13,2.42-.36,4.53-2.47,5.27-4.77.38-1.2.71-2.43.74-3.7.03-1.44-.16-2.89.14-4.31.66-3.09,3.62-5.32,4.16-8.43.53-3.08-1.47-6.19-.88-9.26.36-1.85,1.61-3.39,2.43-5.09,1.34-2.78,1.11-5.88.72-8.86-.23-1.75-.73-3.45-.83-5.19-.11-1.95-.7-3.96-1.04-5.89s-.65-3.81-.95-5.71c-.22-1.42-.68-3.03-.59-4.47.08-1.23.11-2.34-.05-3.59-.37-2.83-1.17-5.6-2.53-8.11-5.25-9.71-12.06-16.92-21.38-14.88,0,0-1.32-5.44-12.21-3.1-10.89,2.35-15.2,17.43-14.11,25.73,1.1,8.3,4.39,16.37,3.45,22.48-.94,6.11-5.72,10.26-3.6,13.31,0,0,9.8-2.8,14.51-5.8,1.57-1,1.19-3.44,1.54-3.91,0,0-2.17-2.1-1.2-3.4s2.77-.2,2.77-.2l-.77-1.84s-2.61-3.09-3.76-6.93c-.96-3.21-2.38-7.41-1.3-11.75.22-.88.53-2.3.99-3.32.46-1.03-.88-3.76.23-8.34,1.21-4.98,9-9.63,11.03-6.58Z"/>
          <path class="cls-12" d="M1053.88,69.4c-.19,0-.36.1-.49.24s-.21.32-.29.49c-.59,1.29-.92,2.65-1.62,3.88-.21.36-1.14,1.5-1.33,1.78-.33.5-.56,1.08-.54,1.67.05,1.91,2.09,2.57,3.68,2.68.38.02.78.04,1.14-.09s.69-.43.74-.81c.1-.78-.78-.77-1.28-.94-.57-.2-1.17-.44-1.7-.73-.5-.27-.2-.91.02-1.27.37-.6,1.67-3.26,1.86-4.02.13-.52.87-2.82-.18-2.87Z"/>
          <path class="cls-7" d="M1055.9,173.03s-7.89-11.06-2.94-11.58c1.65-.18,14.17-2.8,17.41-2.58s5.98,2.73,5.98,2.73c0,0-6.43,6.21-11.93,8.67-2.75,1.23-8.53,2.77-8.53,2.77Z"/>
          <path class="cls-7" d="M1046.25,161.08c-.1-.26-2.01-.43-2.24-.47-3.08-.52-6.2-.66-9.32-.56s-6.12.48-9.19-.02c-4.2-.69-9.13-3.28-8.54-8.24.25-2.09,1.31-3.78,3.22-4.62s4.32-1.03,6.39-.32c.68.23,1.36.55,2.07.5.49-.04.94-.25,1.42-.33,1.62-.28,3.83,1.98,5.03,2.89,1.69,1.28,3.34,2.63,4.93,4.04,2.18,1.94,5.17,4.32,6.23,7.15Z"/>
        </g>
        <path class="cls-2" d="M1094.55,52.99c-6.33-13.01-19.99-22.3-34.46-22.81s-28.99,8.06-35.03,21.21c-5.2,11.32-4.12,24.44-6.82,36.6-5.27,23.79-24.99,44.63-22.01,68.8,1.58,12.76,9.45,24.09,11.08,36.84,1.39,10.84-1.85,21.67-4.62,32.24-5.18,19.77-8.85,39.93-10.96,60.26-1.17,11.25-1.75,23.14,3.17,33.32,3.53,7.31,9.59,13.05,14.09,19.81s7.37,15.68,3.69,22.92c-4.18,8.21-16.07,13.43-14.34,22.48,1.42,7.47,10.96,9.56,18.55,10.04,14.04.89,30.35.86,39.32-9.98,9.05,6.44,20.49,9.46,31.54,8.32,8.42-.87,17.36-4.85,20.53-12.7,5.39-13.38-8.7-26.98-8.81-41.4-.09-12.03,9.35-21.67,14.62-32.48,9.23-18.96,5.42-41.51-.11-61.86-5.52-20.35-12.63-41.21-9.36-62.04,2.58-16.41,11.52-31.77,11.08-48.37-.33-12.35-6.17-22.93-14.78-31.44-3.12-3.09-6.02-5.94-5.91-10.6.13-5.86,3.18-11.49,3.59-17.43.51-7.43-.8-15.02-4.06-21.73Z"/>
      </g>
      <g>
        <rect class="cls-6" x="299.67" y="150.33" width="666.37" height="128"/>
        <path class="cls-9" d="M302.61,173.31c0-12.18,7.8-21.96,21.72-21.96,5.88,0,12.3,2.46,16.98,8.16l-6.18,5.28c-2.52-2.94-6.36-5.4-10.8-5.4-7.38,0-12.9,5.4-12.9,13.92,0,7.92,5.28,13.62,12.9,13.62,4.44,0,8.28-2.28,10.8-5.4l6.18,5.34c-3.66,4.56-9.42,8.04-16.98,8.04-11.64,0-21.72-7.56-21.72-21.6Z"/>
        <path class="cls-9" d="M348.21,151.9h8.46v42.6h-8.46v-42.6Z"/>
        <path class="cls-9" d="M364.59,173.31c0-12.18,7.8-21.96,21.72-21.96,5.88,0,12.3,2.46,16.98,8.16l-6.18,5.28c-2.52-2.94-6.36-5.4-10.8-5.4-7.38,0-12.9,5.4-12.9,13.92,0,7.92,5.28,13.62,12.9,13.62,4.44,0,8.28-2.28,10.8-5.4l6.18,5.34c-3.66,4.56-9.42,8.04-16.98,8.04-11.64,0-21.72-7.56-21.72-21.6Z"/>
        <path class="cls-9" d="M409.89,151.9h27.24v7.56h-18.96v10.2h15.18v7.44h-15.18v9.9h20.22v7.5h-28.5v-42.6Z"/>
        <path class="cls-9" d="M468.68,194.49l-9.54-14.58h-4.92v14.58h-8.34v-42.6h16.14c10.26,0,14.82,6,14.82,14.16,0,6.84-3.3,11.04-8.76,12.84l10.56,15.6h-9.96ZM454.23,172.47h5.88c5.22,0,8.04-2.64,8.04-6.6s-2.76-6.48-7.68-6.48h-6.24v13.08Z"/>
        <path class="cls-9" d="M482.13,173.19c0-12.66,8.82-21.84,21.72-21.84s21.66,8.82,21.66,21.84-9.12,21.78-21.66,21.78-21.72-9.18-21.72-21.78ZM516.75,173.19c0-8.04-5.52-13.92-12.84-13.92-7.68,0-13.02,6.18-13.02,13.92s5.34,13.92,13.02,13.92,12.84-5.94,12.84-13.92Z"/>
        <path class="cls-9" d="M530.01,190.71l3.84-5.46c2.4,2.28,4.92,3.42,8.1,3.42,2.28,0,3.6-.96,3.6-2.4s-1.5-2.04-5.34-3.24c-4.8-1.62-9-3.9-9-9.54,0-5.28,4.56-8.76,10.56-8.76,4.08,0,7.38,1.08,10.68,3.66l-3.78,5.76c-2.28-2.16-4.86-3.12-7.02-3.12-1.26,0-2.88.66-2.88,2.22,0,1.2,1.56,2.04,4.44,3.12,6.36,2.34,10.08,3.72,10.08,9.48,0,5.22-3.72,9.12-11.4,9.12-4.68,0-8.64-1.5-11.88-4.26Z"/>
        <path class="cls-9" d="M316.95,249.39l-4.2,4.98v12.12h-8.4v-42.6h8.4v18.78h.06l14.76-18.78h10.68l-15.72,18.78,16.2,23.82h-10.38l-11.34-17.1h-.06Z"/>
        <path class="cls-9" d="M344.31,223.89h8.46v35.1h18.96v7.5h-27.42v-42.6Z"/>
        <path class="cls-9" d="M378.56,223.89h8.46v42.6h-8.46v-42.6Z"/>
        <path class="cls-9" d="M439.88,223.89v42.6h-8.34v-26.46h-.12l-10.38,18.36h-5.46l-10.38-18.36h-.12v26.46h-8.4v-42.6h8.52l13.08,24.24h.12l13.02-24.24h8.46Z"/>
        <path class="cls-9" d="M473.6,257.97h-16.38l-2.88,8.52h-8.82l15.78-42.6h8.1l15.9,42.6h-8.82l-2.88-8.52ZM471.14,250.77l-5.7-16.74h-.12l-5.64,16.74h11.46Z"/>
        <path class="cls-9" d="M488.48,248.85v-24.96h8.46v24.42c0,6.12,3.12,10.74,8.7,10.74,5.16,0,8.88-3.96,8.88-10.74v-24.42h8.46v24.96c0,11.1-6.36,18.12-17.34,18.12-10.2,0-17.16-6.48-17.16-18.12Z"/>
        <path class="cls-9" d="M567.74,223.89v42.6h-8.64l-18.78-28.26h-.12v28.26h-8.4v-42.6h8.4l19.02,28.8h.06v-28.8h8.46Z"/>
        <path class="cls-9" d="M577.1,223.89h14.1c13.5,0,22.14,8.76,22.14,21.36s-8.28,21.24-21.96,21.24h-14.28v-42.6ZM590.84,258.99c8.28,0,13.74-5.94,13.74-13.74s-5.52-13.8-13.2-13.8h-5.94v27.54h5.4Z"/>
        <path class="cls-9" d="M620.9,223.89h27.24v7.56h-18.96v10.2h15.18v7.44h-15.18v9.9h20.22v7.5h-28.5v-42.6Z"/>
        <path class="cls-9" d="M679.7,266.49l-9.54-14.58h-4.92v14.58h-8.34v-42.6h16.14c10.26,0,14.82,6,14.82,14.16,0,6.84-3.3,11.04-8.76,12.84l10.56,15.6h-9.96ZM665.24,244.47h5.88c5.22,0,8.04-2.64,8.04-6.6s-2.76-6.48-7.68-6.48h-6.24v13.08Z"/>
        <path class="cls-9" d="M693.44,260.25l5.04-6.24c3.18,3.72,7.26,5.34,10.62,5.34,4.08,0,6.12-1.86,6.12-4.5,0-3.12-2.28-4.26-7.44-6-6.42-2.28-12.84-5.28-12.84-13.32,0-6.84,6-12.06,13.68-12.18,5.28-.06,10.2,1.92,14.34,5.4l-4.86,6.36c-3.54-2.94-6.66-4.2-9.3-4.2-2.94,0-5.1,1.56-5.1,4.26-.06,2.64,2.28,3.78,7.14,5.7,7.38,2.88,13.2,4.8,13.2,13.02,0,9.3-8.1,13.08-15.06,13.08-5.52,0-11.1-2.1-15.54-6.72Z"/>
        <path class="cls-9" d="M768.32,231.21c2.82,3.66,4.5,8.46,4.5,13.98,0,13.02-9.12,21.78-21.66,21.78-4.8,0-9-1.26-12.48-3.54l-4.68,5.16-4.02-3.78,4.56-4.98c-3.24-3.78-5.1-8.88-5.1-14.64,0-12.66,8.82-21.84,21.72-21.84,5.1,0,9.66,1.44,13.2,4.08l4.8-5.22,4.02,3.66-4.86,5.34ZM740.54,253.35l18.12-19.68c-2.1-1.56-4.62-2.4-7.44-2.4-7.68,0-13.02,6.18-13.02,13.92,0,3.06.84,5.88,2.34,8.16ZM762.26,237.81l-17.82,19.38c1.92,1.26,4.2,1.92,6.78,1.92,7.32,0,12.84-5.94,12.84-13.92,0-2.76-.66-5.28-1.8-7.38Z"/>
        <path class="cls-9" d="M793.04,249.39l-4.2,4.98v12.12h-8.4v-42.6h8.4v18.78h.06l14.76-18.78h10.68l-15.72,18.78,16.2,23.82h-10.38l-11.34-17.1h-.06Z"/>
        <path class="cls-9" d="M820.4,223.89h27.24v7.56h-18.96v10.2h15.18v7.44h-15.18v9.9h20.22v7.5h-28.5v-42.6Z"/>
        <path class="cls-9" d="M856.4,223.89h8.46v35.1h18.96v7.5h-27.42v-42.6Z"/>
        <path class="cls-9" d="M887.66,260.25l5.04-6.24c3.18,3.72,7.26,5.34,10.62,5.34,4.08,0,6.12-1.86,6.12-4.5,0-3.12-2.28-4.26-7.44-6-6.42-2.28-12.84-5.28-12.84-13.32,0-6.84,6-12.06,13.68-12.18,5.28-.06,10.2,1.92,14.34,5.4l-4.86,6.36c-3.54-2.94-6.66-4.2-9.3-4.2-2.94,0-5.1,1.56-5.1,4.26-.06,2.64,2.28,3.78,7.14,5.7,7.38,2.88,13.2,4.8,13.2,13.02,0,9.3-8.1,13.08-15.06,13.08-5.52,0-11.1-2.1-15.54-6.72Z"/>
        <path class="cls-9" d="M925.4,223.89h27.24v7.56h-18.96v10.2h15.18v7.44h-15.18v9.9h20.22v7.5h-28.5v-42.6Z"/>
      </g>
    </g>
  </g>
</svg>