<?xml version="1.0" encoding="UTF-8"?>
<svg xmlns="http://www.w3.org/2000/svg" version="1.1" xmlns:xlink="http://www.w3.org/1999/xlink" viewBox="0 0 1186.3 375.5">
  <!-- Generator: Adobe Illustrator 29.2.1, SVG Export Plug-In . SVG Version: 2.1.0 Build 116)  -->
  <defs>
    <style>
      .st0 {
        fill: #6f6f6f;
      }

      .st1 {
        clip-path: url(#clippath-6);
      }

      .st2 {
        clip-path: url(#clippath-7);
      }

      .st3 {
        fill: #010101;
      }

      .st4 {
        clip-path: url(#clippath-4);
      }

      .st5 {
        fill: #71c38a;
      }

      .st5, .st6, .st7, .st8, .st9, .st10, .st11, .st12, .st13 {
        isolation: isolate;
      }

      .st5, .st6, .st7, .st8, .st9, .st11, .st12, .st13 {
        mix-blend-mode: screen;
      }

      .st6 {
        fill: #7e90c8;
      }

      .st7 {
        fill: #4359a8;
      }

      .st14 {
        fill: none;
      }

      .st8 {
        fill: #f36f3f;
      }

      .st9 {
        fill: #00aa79;
      }

      .st15 {
        clip-path: url(#clippath-1);
      }

      .st16 {
        clip-path: url(#clippath-5);
      }

      .st17 {
        clip-path: url(#clippath-3);
      }

      .st18 {
        opacity: 0;
      }

      .st11 {
        fill: #f9a148;
      }

      .st12 {
        fill: #047960;
      }

      .st19 {
        clip-path: url(#clippath-2);
      }

      .st20 {
        fill: #deebe4;
      }

      .st21 {
        clip-path: url(#clippath);
      }

      .st13 {
        fill: #fbd250;
      }

      .st22 {
        fill: #b5b5b5;
      }
    </style>
    <clipPath id="clippath">
      <path class="st14" d="M124.5,212.6l.3-17.6s12-17.9,14.4-23.2c2.4-5.3-4.7-31.4-12.1-47.3-4.9-10.5-13-18.6-17.9-22.9,1.4-.3,2.7-3.4,1.5-6.9-1.2-3.2,1.8-6.8-.2-9,.2-.8.5-1.6.7-2.1.7-1.9.7-3.7.6-5.1,2.3-.2,3.2-5.7.6-6.8.5-1.8.8-4.4.2-7.5-1.2-6.1-8.4-9.5-14.7-8.7-.2-.5-.6-.9-1.4-1.1-2.4-.5-4.5,2.3-4.5,2.3,0,0-.8-.9-3.1-.9s-8.5,5.3-11.3,12.4c-2.8,7.1-.4,13,.9,17.2,1.2,4.2.2,8.1,2.6,8.1v2c-1.3.9-2.9,1.8-4.6,2.6,0,0-18.7,6.2-29.5,16.9-10.8,10.7-15.1,43.5-13.8,52.6s5.8,16,8.7,18.8c4.6,4.2,2.4,17.9,5.5,27,1.2,3.4,3.2,5.1,6.3,4.8l10.3,96.6c0,3.2-4.3,5-8.1,6.7s-6.3,2.9-9.4,5.9c-2.7,2.7-2,7.8-2,7.8h41.3s2.7-8,1.2-16.4c.9-.2,1.5-.7,1.8-1.2,2.2-3.9-2.3-7.4-.8-8.7s3.2-5,.7-14c-2.5-9.1-.7-14.9.9-19.3,1.7-4.3-2.1-4,0-10.7,1.3-4.4-3.9-8-3.4-15.9s5.3-26.2,5.3-26.2c0,0,.8,33.4,1.4,49.7.6,15.4,3.2,44.7,3.2,44.7.7,0,1.4.2,2.1.2-.7,1.2-1.9,3.9-2.4,7.3-1.2,8.1,1.7,10.5,1.7,10.5h31.9s5.9-10.1-6.9-16c-1.6-.7-2.8-1.6-3.8-2.6-.2-9.3,3.4-38.4,4.5-43.2,1.4-6.4-.7-11-.7-11,2.8-5.1.9-7.1.9-13.2s.6-21.9.9-33.7v-3h.2ZM111.3,77.3c-.2-1.4-.7-2.3-.7-2.3,0,0,.5-.7,1-2.1,1.4.8,1.2,4.2-.3,4.4Z"/>
    </clipPath>
    <clipPath id="clippath-1">
      <path class="st14" d="M202.5,159.4s-3.4-12.3-8-24.1c-4.1-10.5-8.1-23.2-14.5-26.5-4-4.6-14.4-7-21.7-10.5h0c.2-.9-1.6-1.6-1.7-.9-2.4-1.3-4.3-2.9-5.3-4.8,0-.2-.2-.4-.2-.7,1.6.7,3.2.2,4.2-.8,1.6-1.7.3-4,.3-4,0,0,1.2.5,1.9.5,2,0,3.2-1.2,2.8-3.8-.2-1.3.7-2.8,1.9-5.1,1.5-2.7,2.3-5.9.2-9.3-2-3.2-6.1-3.7-6.1-3.7,0,0-1.2-4.9-5.1-7.1-4-2.2-10.4,0-10.4,0-2.1-3.3-4.5-4.2-9.5-4.2s-10.5,5-11.1,8.4c-.7,3.5.6,4.4.3,5.4-.2.9-2.8,1.7-4.5,6.1-2.3,5.9.3,9.8,2,12.5,1.7,2.7,2.7,3.8,4.5,5.1,3.8,2.9,8.1,1.3,8.1,1.3,0,0,.6,2.4-1.1,4.1-.6.6-2.5,1.8-4.8,3.3-.8-.3-1.5.2-1.7,1.1-4,2.5-8.4,5-8.4,5,0,0-6.6,4.5-9.5,8.1-2.1,2.7-6.5,10-7.6,18.4-2.8,19.8.4,32.9.4,32.9l4.9,1.7s-1.8,53.7.5,64l2.8,36.5s1.2.4,3.5,1c1.1,11.1,4.2,42.9,4.5,46,.6,4.6-8,7-10.1,7.6-5.1,1.7-7.4,1.7-11.2,4.6-3.7,3-1.5,7.7,2.9,7.7h37.4v-11.9l1.7-50c3,.2,6.2.5,9.6.6-.6,9.1-.5,21.8,0,30.8.5,7.3-.3,13.9-1.2,18.4,0,0-.8,1.7-1.6,5.7-.7,4.1-.7,6.2-.7,6.2h34c5.6,0,8.1-2,8.1-5s-6-5.7-10-7.3c-.8-.3-1.2-.2-1.4.2-3.3-.9-9.2-3.1-10.1-6.2-.7-2.4,7.6-33.9,10.4-44.3,6.2-1.1,8.7-2.4,8.7-2.4,0,0,1.7-19.5.6-36.7,0,0-1.9-29.9-3.2-41.2,0-.8-.2-2-.4-3.3,6.3-4.9,27-21.6,24.6-29.6h.2ZM175.1,152.1c1.9,0,2.5,13.6,2.5,13.6l-2.2,1c-.7-7.9-1.2-14.5-.3-14.5h0Z"/>
    </clipPath>
    <clipPath id="clippath-2">
      <path class="st14" d="M423.6,131.9c-1.2-2.6-13.9-20.9-23.9-28.1-10-7.2-15.3-6.7-15.3-6.7l-2.8-.4v-.6c0-.4-.3-.8-1.2-.8h-1.2l.6-3.2c3.7-4.5,4.2-4.9,4.1-7.4-.2-2-.7-6.1-.7-6.1,3.3-1.6,4.7-2.3,3.3-4-1.3-1.6-4.9-5.6-4.9-5.6,0-6.1-4.6-10.1-6.2-11.3,3.8-2.1-7.9-3.7-12-2.7-3.2.7-4.1,2.3-4.1,2.3,0,0-4.7-.8-7.1,3.2-2.4,4-1.4,7-1.4,7,0,0-1.1.8-1.2.9-.6.4-.9.9-1.3,1.6-.7,1.3-1.2,2.9-1.1,4.5,0,2.2,1.1,4.2,2.7,5.6-.7,1.5-.7,3.4,0,4.9.4.8,1.2,1.7,2.2,1.9.4,0,1.1.2,1.4.4.5.3.7,1.1.8,1.6.2.7.7,1.3,1.3,1.5h1c.9,0,1.1,2,2.2,1.5.5-.2.7-1.2.8-1.7l-.5,4.6h-.7c-.5,0-.7.3-.8.7-.2.3-.5,1.7-.5,1.7,0,0-1.5,0-3.2.4-2.4.2-6.3.9-12.6,3.2-6.1,2.2-11.3,9-15.9,16.2,0,.2-.2.2-.2.4-13.4,26.5-14.4,53-14.4,59.5s.5,12.5,1.6,18.6c0,0,1,10.1,4.7,22.6s8,13.2,13.2,12.1c.4,5.6.9,11.7,1.7,18.2,4,33.1,13.9,62.9,13.9,62.9,0,0-.6.2-1.2.7s-1.2.9-.7,2.1c.2.7.9,1.9,1.5,3.1-1,.7-1.5,2.3-2.1,4.3-1.7,2.5-15.7,2.3-19.4,7.8-1.7,2.6-.2,5.4,1.2,6.2h41.8s1.2-3.7,1.2-5.7c0-4.5-.7-13.5-.7-13.5h.2s1.7-.2,1.7-2.6c-.2-12.3-1.3-69.7,1.3-88.9,0,0,5.3,28.5,6.5,39.4,0,0-1.6,40.9-1.2,50.2,0,1.1.7,2,1.8,2.7,0,0-2.7,10.5-2,14.5.7,3.2,3.9,3.7,3.9,3.7h29.5c5.5-1.4,6.3-5.1,3.7-8.1-3.5-3.9-13-3.4-14.9-8.6,0,0,1.6-1.5,2.4-4.7.2-.7-.2-1.1-.7-1.6,3-11.5,9.2-36.5,11.9-49.3,2.1-10.1-3.2-38.4-8-59.7,2.1.2,4.4-.4,6.5-1.9,4.6-3.2,0-9.2,2-11,.7-.7,2.6-2.2.3-6-.6-1-1.2-1.9-1.7-2.7,2.7-3.3,11-14.2,14.3-25.4,3.9-13.4-.2-22-1.3-24.6h0ZM399.7,141.8l3,8.6c-.7,4.6-6.2,11.2-6.2,11.2l3.2-19.9h0Z"/>
    </clipPath>
    <clipPath id="clippath-3">
      <path class="st14" d="M547,177.6c.3-.7.7-1.4.3-2.1-.4-1.1-2.1-1.5-2.2-2.7,0-.9,1.1-1.5,1.5-2.3s0-2.2-.5-3.2c-1.7-3.7-2.1-7.8-2.1-11.9s.3-4.2.2-6.1c0-1.9-.7-4.1-1.3-5.9-.7-2-.9-3.8-.6-5.9.3-2,1-4,.7-6-.4-2.4-2.4-4.9-4.1-6.6-1.9-2.1-2.1-4.8-2.9-7.5-1.2-3.6-3.6-6.8-6.6-9.1-1.7-1.2-3.5-2.2-5.5-2.9-1.7-.6-14-3.1-14-3,.5-1.9,1.1-4.4,1.1-4.4,0,0,5.3.7,9.5,1.2.8,0,1.7.2,2.3-.2.7-.4,1.2-1.2,1.5-2.1,1.2-2.8,2.3-5.7,2-8.7,0-1-.4-2-.3-3,0-1.2,1-2.4,1.5-3.7.7-1.7.3-3.3-.8-5-.4-.7-1.2-1.3-1.5-2.1-.2-.8.7-2.7-.3-4.8-.7-1.6-2.3-2.4-3.7-3.5-2.9-2.3-1.2-3-6.4-7.3-2.2-1.8-4.6-4.6-10.7-4.6s-3,1.1-7.4.3c-1.2-.2-2.5-.3-3.7-.3s-3.5.2-5.1.9c-2.4,1-4.6,2.1-5.5,4.7-.7,1.8-.7,3.8-.8,5.8s-.3,4-1.2,5.6c-1,1.8-2.7,3.1-4.2,4.5-2.3,2.2-3.5,5.1-4.3,8.2-.4,1.7-.2,7.1.2,7.2,4.3,1.2,8.6,2.2,13,3.1,1.5.2,2.9.6,4.4.8-.2,1.2-.7,3-1.2,5.8,0,0-8.3-1-12.9.9-8.2,3.4-13.3,11.5-16.9,20.3-6.1,14.6-14.9,36.5-17.5,48.1-3.4,14.5,1.6,16.6,5.3,17.8,3.7,1.2,8.6,2.3,8.6,2.3,0,0-4.5,45.8-4.9,48.9-.3,2.3.3,3.4,2.1,3.9-1.5,13.8-5.8,52.5-6.1,57.6-.4,6.6.3,9.1,8,10.8,2.6.6,5.6.9,8.8,1.1-1.6,7.5-8.8,8.1-15.6,11.8-7.2,3.9-5.7,10.5-2.6,10.5h32c9.7,0,6.1-3.7,6.1-6.1v-16.8c4.2-.3,7-.7,7-.7,0,0,1.7-37.7,3.7-65.8l6.8.4c1.5,28,2.6,64.9,2.6,64.9,0,0,2.2.7,5.9,1.5-.2,1.7-.7,4-2.1,6.2-2.5,4.1-8.8,4.2-10.3,11-.7,3.3,2,5.2,2,5.2h31.6l-.7-21.2c8.8-.5,12.7-2.2,13.3-6.4,0,0-3.3-38.5-4-59.5v-3c-.2-4.8-.3-9.7-.4-14.5,0-2.1-.2-4.2-.2-6.3,2.8-1.2,4.9-7.1,5.3-18.1.5-17.1,1.5-19.8,1.5-19.8.7-.7,1.7-1.3,2-2.3.5-1.5-.7-3.2-.3-4.7.2-.7.7-1.3,1-1.9l-.3.4Z"/>
    </clipPath>
    <clipPath id="clippath-4">
      <path class="st14" d="M1117.3,323.8c-8.3-4.8-11.3-2.8-15.9-10-1-1.5-1.7-3-2.2-4.3.2,0,.6-.2.8-.3,5.1-1.9,1-21.9,1-21.9,0,0-1.2-26.1,0-37,1.2-10,2.2-29.7,2.4-32.7.8-.7,1.6-1.4,2.5-2.2,0,0,3.6-9,1.7-17.9l1,.2s1.9-.7,1.3-1.7c1.5-.6,6.3-2.7,6.6-7.1.2-1.8,0-12.7,0-13.2,0-2.7.2-5.6,0-8.3,0-2.8,0-5.6-.2-8.5-.2-2.6-.2-5.3-1.2-7.7-.9-2-2.5-3.7-3.2-5.7-1.1-2.9-.6-6.4-2.2-9.1-.8-1.4-2.2-2.4-3.3-3.5-.6-.6-1.2-1.2-1.7-1.9-.5-.7-.7-1.4-1-2.1-1.2-2.6-2.6-5.1-4.2-7.6-1.9-3-4.2-5.7-6.8-8.1-3.2-2.7-6.8-4.9-10.7-6.3-1.2-.3-2.4-.5-3.2-.6,0-.2-.2-.4-.2-.6-.2-.4-1.6-.5-1.6-.5l-1.6-9v-8.8c.2-1.3,1.4-.6,2.7-3.1,1.3-2.5,2.8-9.5-2.7-10.7.2-2.2-1.4-6-1.8-6.8-.6-1,.7-3.1,0-5.4s-2.6-1.2-2.6-1.2c0,0,0-1.4-1.2-2.2-1.7-1.2-2.9,0-2.9,0,0,0-2.4-3.6-7.1-3.6s-2.9.2-4.3,1c-2.6,1.4-3.3,3.6-3.7,5.2s-1.3,1.7-1.2,3.9c0,0-1.2-.5-2.7,1.6s-1.6,11-1.1,12.8c-.9.5-2.2,1.8-1.3,5.8,1.2,5.6,4.6,6.9,6.5,6.6,0,0,1.1,4.6,1.9,6.1.5.9,0,4.1-.5,6-.4,0-.8,0-1.1.2-2,.2-5.9.8-8.8,1.5-11.5,2.8-14.8,4.8-16.4,7.5-4.2,7-12,21.2-14.9,31.9-1.5,5.6-1.6,11.3-3.5,16.8-.7,1.7-1.4,3.6-1.3,5.4,0,2.1,1.2,4,1.2,6.1,0,2.3-.9,4.3-.3,6.6.6,2.2,2.1,3.7,3.3,5.5,2.2,3.2-1.1,9.5,5,11.3,0,0,0,.4.5,1.2.5.9,1.6,1.4,3.3.3l4.2,7c-2.2,4.2,1.8,9.8,4.2,19.9,2.9,12.5,10.7,57.5,12.8,68.3,2.1,10.7,1,15.9,5.2,17.4,1,.3,2.3.6,3.9.7-3.2,8.1-13.8,11.8-19.8,15.5-6.6,4.1-3.1,8.7-3.1,8.7h42.9l-1.7-27.9c.2,0,.2,0,.4-.2,8.3-3.7.7-8.1.7-8.1,4.1-5.1-2.2-6.8-2.6-9.9s-5.2-37-4.8-47.9c.4-11,.7-15.1,1.7-11.8s8.2,38.1,10.7,56c2.6,17.9-.5,27.2,3.2,28.6.7.2,1.7.3,2.9.2v20.8h34c3.9,0,10.5-6.7,2.2-11.5l-.2.2ZM1093.1,186.3c-.5,2.3-.7,4.2-.7,5.4-.2,0-.2,0-.3,0v-16.4s3.6-.4,1.1,11ZM1076.9,105.3h0ZM1029.3,167.8c-.2-5.7.2-6.1,1.3-6.1s1.7,22.5,1.7,28.1l-1.3-1.2c.2-.5.4-1,.4-1.4,0-1.2-.9-1.7-.9-1.7-.2-2.8-1.2-12.8-1.3-17.6h0Z"/>
    </clipPath>
    <clipPath id="clippath-5">
      <path class="st14" d="M1044.5,325c-10.8-4.8-12-11.5-12-11.5v-32.7c7.6-.5,12.5-1,12.5-1,0,0,.7-5.9,1.3-17.4.6-11.5-1.2-51.4-5-62.9-3.4-10.3-9.5-27.3-10.6-30.6,3,.4,6.5-1.3,7.7-4.6,4-10,11.8-31.4,10.1-40.4-1.3-7.3-10.1-15.1-16.9-20.2.7-2.1.6-4.4.2-6.6-.2-1.5-.6-2.9-.7-4.3,0-1.7-.6-3.3-.8-4.9-.2-1.6-.6-3.2-.7-4.7-.2-1.2-.6-2.5-.5-3.7,0-1,0-1.9,0-3-.3-2.3-1-4.7-2.1-6.7-4.3-8.1-10-14-17.8-12.4,0,0-1.1-4.5-10.1-2.6-9.1,1.9-12.6,14.4-11.7,21.3.9,6.9,3.7,13.6,2.9,18.7-.7,5.1-4.7,8.6-3,11-4.7,3-9.1,4.2-14.3,19.6-5.2,15.4-7.5,22.1-6.1,26,1.6,4.2,5.8,12.1,16.4,16.3-3.7,7.1-10,21.9-14.1,46.1-7.4,42.8-7.1,62.4-7.1,62.4,3.2,2.7,10.4,4.2,19.2,5,.6,4.2,1.2,8.5,1.7,12.2l1.9,21.2s-.7,3.9-6.9,7.7c-4.8,3-8.3,4-10,6.5-2.7,3.7,1.6,6.4,3.8,6.4h8.7c6.6,0,12.6-3.7,12.6-3.7l1,3.7h9.2l.2-20.3s1.2-21.6-2.2-21.5c.2-3.5.5-7.5.7-11.5,3.5,0,7.1,0,10.5-.2.3,4.2.8,8.5,1.2,13l1.3,19.6-.4,20.9h8.7l1.8-3.5s4.5,3.5,8.1,3.5h10.7c5.6,0,8.2-6.7.4-10.2h-.2Z"/>
    </clipPath>
    <clipPath id="clippath-6">
      <path class="st14" d="M750.4,161.2c-.5-.9-1.1-1.8-1.2-2.9,0-1,.5-1.8.8-2.7.5-1.4.3-3,0-4.4-.3-1.7-.9-3.3-1.4-5-.4-1.7-.9-3.5-1.4-5.2-1.1-3.8-2.2-7.7-3.3-11.5-4.1-13.5-8.1-15.4-12.2-17.8-4.1-2.4-11.7-5.4-10.7-8,1-2.7-1.7-4.9-4.6-4.9h-5.1c0-1.9.9-2.7,3.6-5.3s2.5-8.1,2.5-8.1c1.9.2,4.4-2.2,3.6-3.6-.5-.8-1.2-2-1.6-2.8.2-1.7,0-3.2,0-4.9v-.6c-.2-.5-.7-.5-.9,0,0,.2,0,.7-.2,1.1,0,0-.2,0-.4,0h0c.2-1.2,0-2.6,0-4,.2-.2.5-.5.7-.8.3-.6.4-1.3.3-2v-.6c0-.2.2-.3.4-.5.8-.7,1.4-1.7,1.7-2.7.2-.4.3-1.6,0-3.2-1.4-5.9-7.8-6.3-11.6-4.9-2.2-1.3-8-2-10.5,1-2.5,3-2.1,2.9-4.6,2.7-2.5-.2-6,1.2-6.1,7.1,0,0-3.7,3.7-3.5,8.1.2,4.4,1.4,4.8,1.8,8.3.4,3.5.2,12,5.6,13.7,0,0-5.1-1.9-9.2,1-5.4,3.8-3.3,7.6-3.3,7.6,0,0-4.2-.2-10.5,2.3-3,1.2-5.6,4.6-8.5,9.2-9.2,14.8-13.9,31.1-16.1,41-2.2,9.9,3.1,11.7,2.9,16.9-.2,5.1,7.2,14.9,6.4,21.6-.8,6.6,4.2,6.3,4.2,6.3,0,5.5,3.2,5.5,3.2,5.5,0,3.7.2,13.7,2.7,14.4,0,0-1.6,25.6,0,30.8,1.6,5.2-1.2,5-1,14.4.2,9.5-2.2,38.4-2.1,47.7-3.3,1.9-7.6,6.2-10.3,7.5-3.7,1.7-10.9,1.8-13,5.5-2.2,3.7,1.9,7.2,1.9,7.2h37c6.1,0,5.8-7.5,5-12.5,0,0,3.7-6.3,1-8.8,0,0,1.5-27.3,5.5-48.7s5.4-29.4,7.6-29.5c1.2,0,2.7,32.3,2.7,32.3l4.6,54.7s-.7,1.7-1.2,6.4c-.4,4.4,1,6.1,2.5,6.1h29.6c6.4,0,7.6-5.8,3.6-9.6-2.3-2.2-10.6-2.9-13.2-4.2-.7-.3-2.1-1.5-3.6-2.7.3,0,.6-.2.9-.3,1.7-.6,2-.4,2.2-4.4.2-4-.2-5.5-1.6-5.6,0,0,1.8-27.4,3.5-37.8s4-48.2,4-48.2c0,0,4.5-1.8.7-15.2,0,0,7.1-5.6,12.1-14.4.3-.3.6-1,.7-1.5,1.5-3.1,2.6-6.3,3.5-9.5.5-1.7.9-3.3,1.2-5,.2-.7.3-1.6.6-2.4s.2-1.5.2-2.3,0-1.8.3-2.7c.4-.8,1.2-1.4,1.7-2.2.6-.8.8-1.9.7-3,0-1.1-.4-2.1-.9-3v-.2ZM718.1,75.9c.2.2,0,.5.2.7,0,.4,0,.6,0,.8-.2-.3-.6-.9-.7-1.8.2,0,.3.2.4.2Z"/>
    </clipPath>
    <clipPath id="clippath-7">
      <path class="st14" d="M867.9,184.3c-1.7-5.6-4.8-13-5.9-17.1-1.1-4.1-10.1-29.9-10.1-29.9l2.1-.3s-.2-1.9-.8-4.7v-.2c0-.4-.2-.8-.2-1.3-.7-3.3-2-7.6-3.8-11.5,0-.2-.2-.5-.3-.7-.2-.5-.5-1-.7-1.4-1.3-2.4-3-4.7-4.9-6.4,0,0-2-1.1-5.2-2.5-.7-.2-1.3-.6-2.1-.8h0c-1.1-.4-2.2-.8-3.5-1.2,2.2-.4,4.3-1.6,5.5-3.5,1.2-2.1.8-5.1-1.2-6.5,1.9-.4,2.6-2.9,2.2-4.8s-1.6-3.7-1.8-5.6c-.2-1.6.2-3.2.2-4.9s-.8-3.5-2.4-3.9c1.2-.3,1.9-1.7,1.7-3s-1-2.3-1.9-3.2-2-1.6-2.8-2.4c-2-2-2.9-4.8-4.6-7.1-1.2-1.7-3-2.9-5-3.7-1.7-.7-3.6-1-5.5-.8-1.8.2-2.7.3-4.2-.7-3.1-2-7.1-2.3-10,0-1.8,1.5-2.9,3.8-4.9,5.2-1.2.9-2.7,1.3-3.8,2.4-1.1,1.1-1.3,3.2,0,3.9-1.8-.2-3.6,1.2-4.3,2.9-.7,1.7-.7,3.6-.7,5.5,0,1.8.2,3.7-.5,5.5-1.2,3.2-4.6,5.6-4.5,9,0,3.1,3.1,5.5,3.2,8.6,0,1.7-.8,3.2-1.1,4.7-.3,2.3.7,4.7,2.7,6.1l-6.3,10.2c-.2.3-.4.7-.7,1.1l-6.5,10.5-1.1,1.7-1.1,1.7c0,2.2,3.8,7.1,7.5,11.3v6.4c0,4.8-.2,9.7-.6,14.5-.5,6.1-1,12.6-2.7,18.4-1.2,4.1-2.7,8-3.5,12.1-.7,4.2-.5,8.6,1.7,12.2.9,1.4,2.3,2.7,3.9,2.9-3.9,18.8-7.7,37.2-8.9,43-2.6,13-9.3,55.4-9.3,55.4,0,0,2.5,3.3,13.1,5.9-.8.7-1.8,1.5-2.9,2.2-6,4.1-19.8,5.5-19.8,11.1s1.7,4.6,1.7,4.6h38.5l2.5-15.4c1.9,0,3.9.2,6,.2l10.5-100.7s-.7,25.7-.4,41.5c.3,15.8,4,43.5,4.6,48.6.4,2.9.7,5.7,1.2,8.6v.4s4,.5,10,.7c0,1.1-.5,3.3-4,6.4-4.8,4.3-2.9,9.6-2.9,9.6h25.3c1.9,0,1.7-13.5,1.7-16.4,5.1-.5,10.5-1.3,15.4-2.7,0,0-13.3-61.6-15.1-68.7-1.9-7.1-2.2-15.8-3.2-26.1-.3-3.4-1.2-7.2-2.1-10.8,10.5-2.6,31.1-7.7,31.9-9.2,1.2-1.9-3.4-11.5-5.1-17.1l.2-.2ZM846.8,155.8c-.2,0-.6.2-.9.2,2.9-8.6,3.4-18.4,3.4-18.4l5.2,15.8s-2.6.8-7.8,2.4h0Z"/>
    </clipPath>
  </defs>
  <g class="st10">
    <g id="Layer_2">
      <rect class="st20" width="1186.3" height="375.5" rx="22" ry="22"/>
    </g>
    <g id="Layer_1">
      <g>
        <g class="st21">
          <path class="st3" d="M64,314.8c0,3.2-4.3,5-8.1,6.7s-6.3,2.9-9.4,5.9c-2.7,2.7-2,7.8-2,7.8h41.3s3.7-11.1,0-20.9c-2.7-7.2-4.1-10.5-4.1-10.5l-17.8,11h0Z"/>
          <path class="st3" d="M98.6,316.8s-2.1,3.3-2.8,8c-1.2,8.1,1.7,10.5,1.7,10.5h31.9s5.9-10.1-6.9-16c-12.8-5.9-5.6-21.8-5.6-21.8l-18.3,19.3h0Z"/>
          <path class="st0" d="M60,204.7h64s.6,3.7.3,11c-.4,11.8-.9,30-.9,33.7,0,6.1,3.3,9.7-.9,13.2,0,0,2.2,4.6.7,11-1.1,4.8-4.6,33.9-4.5,43.2,0,0-11.1,2.2-22.6.4,0,0-2.7-29.1-3.2-44.7-.6-16.4-1.4-49.7-1.4-49.7,0,0-4.8,18.4-5.3,26.2-.5,7.8,4.7,11.5,3.4,15.9-2,6.7,1.8,6.5,0,10.7s-3.4,10.1-.9,19.3.7,12.7-.7,14,3.1,4.8.8,8.7-19.9.8-24.9-2.8l-10.9-102.1,6.9-8.1h0v.2Z"/>
          <path class="st22" d="M76.4,98.1c8.1-3.7,12.2-9.9,12.2-9.9l21.2,17.1,1.2,105s-27.7,6.7-42-2.2c-14.3-8.9-11.2-56.8-11.2-56.8l18.6-53.4h0Z"/>
          <path class="st0" d="M86.9,181s3.7,1.5,6.8,3.7l4.6-3.5,9.1,14.6s1.1,2.2-.6,3.6c-3.2,2.7-5.2,3.9-10,6.4-8,4.1-15.8,2.2-15.4-2.5l-6.2-4.6,11.8-17.7h-.2Z"/>
          <path class="st3" d="M76.4,98.1s-18.7,6.2-29.5,16.9-15.1,43.5-13.8,52.6,5.8,16,8.7,18.8c4.6,4.2,2.4,17.9,5.5,27,2.8,8.3,11.1,6.4,26.6-9.1,0,0,4.7,2.7,6.5-1.7,0,0-2.7-1.6-.3-8.1s6.8-13.5,6.8-13.5l-4.4-2.2s2.6-29.1,2.2-46.4c-.4-18.1-.2-31.4-8.4-34.3h0Z"/>
          <path class="st3" d="M104.7,98.1v73.9s-5.6,6.2-7.2,8.1-.4,3.7-.4,3.7l9.8,15.7s-1.6,16.1,17.5,16.1l.3-20.5s12-17.9,14.4-23.2-4.7-31.4-12.1-47.3c-7.4-15.9-22.3-26.4-22.3-26.4h0Z"/>
          <path class="st0" d="M80.9,92.4v3.2s3.2,7.2,12.5,8.9,12.9-4.1,12.9-4.1c0,0,3.5-13.2,4.6-16.6,1.6-4.6-.3-8.7-.3-8.7,0,0,3-4.2,1.7-10.7s-9.6-10-16.2-8.5-16.2,15.4-16.2,15.4l1.1,21.2h0Z"/>
          <path class="st22" d="M95.2,59v.2c.2.8.3,1.7,0,2.6-.2.6-.5,1.1-1,1.5-.6.5-1.1,1-1.3,1.7-.2.7,0,1.4.2,2.1,0,.6,0,1.2-.2,1.7-.5.9-1.7,1.2-2.2,2.1-.4.7-.2,1.5.3,2.1.3.6.9,1.4.2,1.9-1.4.8-3.9-.2-3.7-3.4s-4.2-.2-3.4,4.7c.7,4.2,2.7,3.2,2.7,5.3s-1.8,7.6-4.7,9.2c-1.3.7-1.2,2.9-1.2,2.9-2.3,0-1.3-3.9-2.6-8.1s-3.7-10-.9-17.2,8.2-12.4,11.3-12.4,3.1.9,3.1.9c0,0,2.1-2.8,4.5-2.3s1.6,3.3-1.1,4.5h0Z"/>
          <path class="st22" d="M109.8,85.3c-2.2-1.3-2.8-1.7-4.5-2.2-4.5-1.4-8.6-2.2-10.9.4s-.3,11,1.3,14.8,3.1,4.2,4.4,4.6,0,2.8,4.5,2.1c1.7-.2,3.2-3.1,4.6-3.4s2.7-3.4,1.5-6.9,2.3-7.4-.8-9.4h0ZM105.2,89.5l-4.4-3.9c.2,0,5.1,1.3,5.1,1.3l-.7,2.6h0Z"/>
          <path class="st3" d="M102,68.9c-2.1-.4-3.8,1.2-4.2,3.7s1,4.6,3.7,4.5c1.4,0,2.7-1.7,3.2-3.5.5-2-.3-4.3-2.7-4.7h0ZM103.1,73.3c-.2,1.1-.9,2.6-2.6,2.3-1.2-.2-1.7-1.2-1.5-2.7s1.3-3.1,2.5-2.8c1.7.3,1.8,2.2,1.6,3.2h0Z"/>
          <path class="st3" d="M104.2,72.9s3-.4,4.3,1.2v1s-2.3-1.5-4.6-1l.2-1.2h0Z"/>
          <path class="st3" d="M111.8,71.6c-1.5-.3-2.9.8-3.3,2.9s.6,4.2,3,4.1c2.5,0,3.5-6.2.3-7ZM110.8,77.2c-2.6-.8-.7-4.6.3-4.6,2.2,0,1.9,5.2-.3,4.6Z"/>
          <path class="st0" d="M75.6,123.5c.3-.4,1.7-2,.8-2.4-1-.5-4.1,4.2-6,7.3-.7,1.1-1.3,3-1,4.2.2,1.1,1.1,2.1,2,2.7s2,1.1,3.1,1.5c-1.1,2.7-2.2,5.6-3.3,8.3-.7,1.6-1.2,3.3-.8,5,.7,2.7,3.8,3.9,4.9,6.3,1.2,2.9.6,6.2,2.1,6.2s1.5-3.3-.5-7.8c-1.1-2.5-4.2-3.2-4.5-6-.2-2.3,1.9-6,2.7-8.2s2.5-5.1-.5-6.1c-1.8-.6-4.2-2.3-2.4-5.6.5-1,2.6-4.5,3.4-5.6h0v.2Z"/>
          <path class="st0" d="M112.3,151.3h0c1,1.6,3.2.4,2.2-1.3s-3.2-.4-2.2,1.2h0Z"/>
          <path class="st0" d="M112.3,161.2c.7,1.5,3.4.4,2.6-1.3s-3.2-.2-2.6,1.3Z"/>
          <path class="st7" d="M116.3,57.7c-7.8-12.3-27.1-13.8-38.4-4.6-10.8,8.8-14.2,25.5-7.6,37.8-21.8,11.3-41.4,30.6-45.7,54.9-2.7,15.4.9,31,4.6,46.1,5.6,23,11.6,45.9,17.9,68.8,2.5,9,5.1,18.1,5.6,27.4s-1,19-6.2,26.8c-4.6,6.8-12.3,13.8-9.7,21.6,2.2,6.6,10.5,8.7,17.5,9.6,12,1.7,25.8,2.8,35-5.1,9.9,3.8,20.3,7.7,30.8,5.9,10.5-1.8,20.2-11.8,17.7-22.1-1.2-5-4.8-8.9-6.7-13.6-3-7.5-1.2-15.9,1.4-23.4s6.2-14.9,7.1-22.8c2.2-20.3-14.1-40.4-8.6-60,2.7-9.5,10.1-17,13.7-26.2,4.3-11.1,2.6-23.7-1.1-35.1-4.2-13-10.7-25.2-19.3-35.9-2.7-3.4-6.2-6.8-7.1-11.3-1.2-5.6,1.6-11.5,2.6-17,1.2-7.3.8-15.1-3.3-21.5h0Z"/>
        </g>
        <g class="st15">
          <path class="st3" d="M109.3,265.4s4.4,46.2,4.9,49.8c.6,4.6-8,7-10.1,7.6-.7,1.2-2.7,2.6-2.7,2.6l.7,6.8,31.1-4.8,2.3-71.9-26.2,10h0Z"/>
          <path class="st3" d="M173.2,269.3s-12.1,44.8-11.3,47.7c1.3,4.5,12.4,6.8,12.4,6.8l-10.5,8.8-21.9-2.5s3.6-11.4,2.7-25.2c-.8-13.9-.6-35.8,1.4-41.5s27.2,6,27.2,6h0Z"/>
          <path class="st0" d="M133.3,323.4v11.9h-37.5c-4.3,0-6.6-4.7-2.9-7.7s6.1-3,11.2-4.7c1.8,4.2,4.6,5.9,14.3,4.7,9.7-1.2,14.9-4.2,14.9-4.2h0Z"/>
          <path class="st0" d="M143.5,323.3s-.8,1.7-1.6,5.7-.7,6.2-.7,6.2h34c5.6,0,8.1-2,8.1-5s-6-5.7-10-7.3c-3.2-1.2.8,4.2-8.8,5.1s-21.2-4.7-21.2-4.7h0Z"/>
          <path class="st0" d="M103.4,231.8l2.8,36.5s15.3,5.2,40.8,5.8c25.4.7,34.1-3.9,34.1-3.9,0,0,1.7-19.5.6-36.7s-55.7-16.1-55.7-16.1l-22.5,14.3h0Z"/>
          <path class="st22" d="M177.6,165.8l-4.6,2,3.2,22.7s29.2-21.5,26.3-31-16.3-9.5-16.3-9.5l-8.6,15.9h0Z"/>
          <path class="st22" d="M114.7,106.6s13.2-7.6,14.9-9.3,1.1-4.1,1.1-4.1l-7.9-2.2-.4-23.4,24.5-4.2,6.3,13.7s-3.9,11.5-1.8,15.5c4,7.6,23,9.5,28.6,16.2,4.3,5.1-43.3,15.7-43.3,15.7l-24.4-12.8,2.5-5.1h0Z"/>
          <path class="st3" d="M114.7,106.6s-1.7,4.5,15,5.2c16.6.7,40.2-5,48-3.8s12.2,15.5,16.8,27.2c4.6,11.7,8,24.1,8,24.1l-24.9,6.4s-.6-13.7-2.5-13.6,2.4,33,3.2,40.3c1.4,11.3,3.2,41.2,3.2,41.2,0,0-72.2,3.3-78.2-1.8-2.3-10.3-.5-64-.5-64l-4.9-1.7s-3.2-13.2-.4-32.9c1.2-8.3,5.6-15.7,7.6-18.4,2.8-3.7,9.5-8.1,9.5-8.1h0Z"/>
          <path class="st0" d="M140.8,58.6s6.5-2.2,10.4,0,5.1,7.1,5.1,7.1c0,0,4.1.4,6.1,3.7,2.2,3.4,1.3,6.6-.2,9.3-1.2,2.2-2.1,3.7-1.9,5.1.3,2.6-.8,3.8-2.8,3.8s-1.9-.5-1.9-.5c0,0,1.2,2.3-.3,4-2,2.1-6.2,1.7-8.3-4.1-1.6-4.3,1.2-8.6,1.2-8.6,0,0-2.3-.7-2.2-2.8,0-1.7,1.3-3.7,0-5-.5-.5-1.3-.8-1.6-1.5-.5-1-.4-2.3-.8-3.2-.7-1.3-3.1-1.7-4.2,1.2-.6,1.3-1.3,2.6-3.3,1.5-.2,1-3.2,3.2-5.2,1.1,0,0-1.3,4.3-6.2,2,0,0-1.5,3.4.5,6.5.7,1.1.5,3.4.2,5.1-.2,1.1,0,3.1.6,4.5.9,2.2,2.5,5,4.7,5.6,0,0-4.3,1.6-8.1-1.3-1.8-1.4-2.8-2.5-4.5-5.1s-4.4-6.6-2-12.5c1.7-4.3,4.2-5.1,4.5-6.1s-1.1-1.9-.3-5.4,5.1-8.5,11.1-8.4c5.1,0,7.5.8,9.5,4.2h0Z"/>
          <path class="st0" d="M132.9,75.4c1,0,1.2,1.7.5,3.2s-1.2,2.2-.8,2.5,1.7.4,1.5,1.4-2.5.7-3.3-.7.4-2.1,1-3.4c.7-1.4,1.1-2.8,1.1-2.8h0Z"/>
          <path class="st0" d="M124.7,100.6s1.6,18,6.6,27.1,13.3,1.7,17.3-6c4.2-8.1,6.5-17.3,8.1-24.2.2-.7,1.9,0,1.7.8-.5,2.1-6.7,32-19.3,35.3-5.4,1.4-9.3-1.2-12.5-12.1-2.3-7.9-3.3-16.8-3.5-17.9,0-.5,0-1.3,0-1.7.2-.9.8-1.4,1.7-1.1h-.2Z"/>
          <path class="st6" d="M161.8,93.7c8.2-4.8,11.8-15.7,9.5-25-2.2-9.3-9.5-16.9-18.1-21.1-12.5-6.2-28.7-5.6-39.6,3.1-11,8.7-14.9,25.8-7.2,37.6,1.2,2,2.8,3.8,3.5,6.1,1.5,5.1-2.2,10.4-5.6,14.5-10.8,13.5-21,29.9-18.3,47,1.7,10.4,8.1,19.5,10.5,29.8,2.5,10,1.2,20.7.4,31-1.1,15.9-.7,31.9,1.2,47.7,1,8.1,2.3,16.4,1.8,24.5-.5,8.2-3.2,16.6-9.1,22.3-4.1,3.9-5,10.4-5.7,15.9s.6,11.8,4.9,15.4c5.1,4.3,12.6,3.7,19.3,3.2,17.4-1.6,34.8-2.1,52.2-1.5,7.2.2,14.8.6,21.3-2.5,6.6-3.1,11.5-11,8.7-17.6-2.1-5.1-7.7-7.7-11-12.2-4.3-5.8-4-14-1.7-20.9,2.3-6.9,6.3-13.1,9-19.9,9.2-23.4,1.2-50.6,8.5-74.7,2.8-9.4,7.8-17.9,10.8-27.2s3.7-20.1-1.7-28.2c-4-5.9-8.2-11.5-11-18.1s-4.5-13.7-8.9-19.3c-5.1-6.6-15.7-11-23.9-9.7h0Z"/>
        </g>
      </g>
      <g>
        <g class="st18">
          <g class="st19">
            <path class="st3" d="M329.8,192.8s-1.7,22.3,2.2,55.5c4,33.1,13.9,62.9,13.9,62.9,0,0-.6.2-1.2.7s-1.2.9-.7,2.1,2.3,4.8,2.3,4.8l21.3-2.6s1.7-.2,1.7-2.5c-.2-12.3-1.3-69.7,1.3-88.9,0,0,5.3,28.5,6.5,39.4,0,0-1.6,40.9-1.2,50.2.2,6.5,22,4.4,22,4.4,0,0,1.6-1.5,2.4-4.7.2-.7-.2-1.2-.7-1.6,3-11.5,9.2-36.5,11.9-49.3,3.6-17.1-14.1-85.6-14.1-85.6l-65.6-3.4-2,18.7h0Z"/>
            <path class="st22" d="M330.7,188.6s12.3,8.8,27.7,8.1l4.2-5s5,5,7.4,5,33.9-13.7,33.9-13.7l-52.6-3.2-20.6,4v4.7h0Z"/>
            <path class="st0" d="M423.6,131.9c-1.2-2.6-13.9-20.9-23.9-28.1-10-7.2-15.3-6.7-15.3-6.7l-11.5,6.7-11-.9-4.6-5.1s-2.8-2-16.1,2.9c-6.1,2.2-11.3,9-15.9,16.2,0,.2-.2.2-.2.4-13.4,26.5-14.4,53-14.4,59.5s.5,13.5,1.9,20l17.9-2.4,2.1-7s11,1.9,31.6,1.2c20.5-.7,45.6-5.7,45.6-5.7,0,0,11.2-13,15.1-26.4s-.2-22-1.3-24.6h.2ZM396.4,161.7l3.2-19.9,3,8.6c-.7,4.6-6.2,11.2-6.2,11.2h0Z"/>
            <path class="st3" d="M312.5,195.3s1,10.1,4.7,22.6c3.7,12.5,8,13.2,13.2,12.1l3.1-37.4-20.9,2.7h0Z"/>
            <path class="st3" d="M394.3,170.7c1.7-1.2,10.1,3.7,12.3,5.7s3.3,4.3,5.7,8.2.4,5.3-.3,6c-1.9,1.7,2.6,7.7-2,11-5.1,3.7-11.4,2.1-13.6-3.6s-2.1-27.2-2.1-27.2h0Z"/>
            <path class="st3" d="M374.9,57.1s7,4.2,6.9,11.8c0,0,3.5,4,4.9,5.6s0,2.3-3.3,4c0,0,.5,4.2.7,6.1.2,2.5-.3,2.9-4.1,7.4l-.8,4.4-2.7,5.4-9.8,3.5-7.5-9.4.7-6-7.4-10,.9-10.9,11.1-13.1h7.3l3.2,1.2h0Z"/>
            <path class="st0" d="M360.5,76.4s2.6-.5,2.6-2.2-3.7-7.7.5-11.3c0,0,0-5.3,2.8-6.1s5.1,2.7,9.1.7-7.9-3.7-12-2.7c-3.2.7-4.1,2.3-4.1,2.3,0,0-4.7-.8-7.1,3.2-2.4,4-1.4,7-1.4,7,0,0-1.1.8-1.2.8-.6.4-.9.9-1.3,1.6-.7,1.3-1.2,2.9-1.1,4.5,0,2.2,1.1,4.2,2.7,5.6-.7,1.5-.7,3.4,0,4.9.4.8,1.2,1.7,2.2,1.9.4,0,1.1.2,1.4.4.5.3.7,1.1.8,1.6.2.7.7,1.3,1.3,1.5h1c.9,0,1.1,2,2.2,1.5.5-.2.7-1.2.8-1.7.3-2.3-.2-6.6-2.7-9s-3.7-6.6-1.2-7.9c2.7-1.4,4.6,3.4,4.6,3.4h0Z"/>
            <path class="st0" d="M367.6,316.1s.7,8.9.7,13.5-1.2,5.7-1.2,5.7h-41.8c-1.5-.8-2.9-3.7-1.2-6.2,3.7-5.5,17.8-5.3,19.4-7.8.7-2.6,1.2-4.4,3.1-4.8,3.5-.7,3.7,1.7,3.7,1.7l17.4-2.1h0Z"/>
            <path class="st0" d="M377.9,316.9s-2.7,10.5-2,14.5c.7,3.2,3.9,3.7,3.9,3.7h29.5c5.5-1.4,6.3-5.1,3.7-8.1-3.5-3.9-13-3.4-14.9-8.6-2.1-5.4-8.2-5.5-12.5-1.7-5.1.2-7.8,0-7.8,0h0Z"/>
            <path class="st22" d="M359.3,94.5s4.7,7.3,8,7.6,12-7,12-7h1.2c.8,0,1.2.4,1.2.8v.6l2.8.4s-5.3,4.9-13.4,12.3l-3.3-3.7h-1.1s-2.6,3-3.7,3c-2.1,0-4.4-5-5.4-6.6-1.1-1.7-2.2-3.3-3.7-4.7,1.7-.3,3.2-.4,3.2-.4,0,0,.4-1.3.5-1.7s.4-.7.8-.7h.9Z"/>
            <path class="st9" d="M352.3,49.1c-13.3,6.8-17.4,26.7-8,38.1-13.4,5.2-23.2,17.4-28.7,30.6-5.6,13.3-7.5,27.7-9.3,42-2.7,20.9-5.3,42.7,1.3,62.7,3,9.1,7.8,17.3,11.6,26,8.6,19.8,12,41.4,15.2,62.7-5.3,2.4-10.7,4.8-15,8.7s-7.4,9.6-6.7,15.4c.7,6.3,5.8,11.5,11.6,14,5.8,2.6,12.3,3.1,18.6,3.6,5.6.4,11.3.8,16.7-.3s10.8-4.2,13.5-9.1c11,4.2,23.4,4.2,34.4.2,7-2.6,14-8,14.1-15.4,0-4.4-2.3-8.5-3.4-12.7-2.2-8.8,1.2-17.9,3.7-26.7,7.1-25.7,5.3-53.9-5.1-78.5,7.4-24.3,20.2-49.2,14-73.8-2.7-10.6-8.6-20-14.4-29.2-8.1-12.7-16.4-25.3-24.2-38.3-5.2-8.7-11.2-17.6-21.3-20.9-6.1-2-12.9-1.9-18.7,1h0Z"/>
          </g>
        </g>
        <g class="st18">
          <g class="st17">
            <polygon class="st3" points="502.7 246.5 487.2 245.6 487.2 210.3 502.2 210.3 502.7 246.5"/>
            <path class="st22" d="M521.3,66.4c-2.9-2.3-1.2-3-6.4-7.3-2.2-1.8-4.6-4.6-10.7-4.6s-3,1.1-7.4.3c-1.2-.2-2.5-.3-3.7-.3s-3.5.2-5.1.9c-2.4,1-4.6,2.2-5.5,4.7-.7,1.8-.7,3.8-.8,5.8s-.3,4-1.2,5.6c-1,1.7-2.7,3.1-4.2,4.5-2.3,2.2-3.5,5.1-4.3,8.2-.4,1.7-.2,7.1.2,7.2,4.3,1.2,8.6,2.2,13,3.1,2.1.4,4,.8,6.1,1.1l6.9.8c7.5.9,14.9,1.9,22.4,2.8.8,0,1.7.2,2.3-.2.7-.4,1.2-1.2,1.5-2.1,1.2-2.7,2.3-5.7,2-8.7,0-1-.4-2-.3-3,0-1.2,1-2.4,1.5-3.6.7-1.7.3-3.3-.8-5-.4-.7-1.2-1.3-1.5-2.1-.2-.8.7-2.7-.3-4.8-.7-1.6-2.3-2.4-3.7-3.5h0Z"/>
            <path class="st3" d="M482.6,307.6v21.6c0,2.4-.2,6.1-6.1,6.1h-32c-3.1,0-4.7-6.6,2.6-10.5,7.6-4.2,15.9-4.5,15.9-14.9l19.5-2.1h0Z"/>
            <path class="st3" d="M529,312.2l.7,23h-31.6s-2.7-1.9-2-5.2c1.5-6.8,7.8-6.8,10.3-11,3.2-5.1,1.9-9.9,1.9-9.9l20.7,3.1h0Z"/>
            <path class="st0" d="M488.5,101.2c1.2-6.1,1.7-7.7,1.7-7.7,0,0-4.1-2.1-4.7-9.8-.7-7.1,2.3-10.4,2.3-10.4,0,0,2.8-3.1,3.2-6.3s2.7-3.6,5.5-3.3,5.8-1.6,6.6-4.6c0,0,0,4.1,2.9,6.9s4.2,1.7,3.6,4.8c-.3,1.7-.7,3.5-.4,5.2s.9,3.4,2.1,4.7c.7.8,1.5,1.7,1.4,2.7-.2,1.4-1.5,2.3-2.3,3.4-1.3,1.7-1.9,3.1-2.2,6.6-.2,1.5.2,4.3.2,4.3l2.9.4s-.6,2.5-1.1,4.4c1.7,1.4.4,2.3.3,2.8-.4,2-1.7,3.8-2.2,5.8,0,.3,0,.6-.2.9l-13.9,10.3-9.6-14.3,3.9-7h0Z"/>
            <path class="st3" d="M495.8,73.4c-.4-.5-1.1.7-2.4,2.1s-2.3,2.5-1.6,3.8,2.4,1.7,3.1,1.5c.9-.2.7-1.2-.7-1.5s-1.3-1.7-.3-2.5,2.7-2.5,1.9-3.3h0Z"/>
            <path class="st0" d="M452.7,238.5s-6.3,56.2-6.6,62.4c-.4,6.6.3,9.1,8,10.8,12.2,2.7,35.5,0,35.5,0,0,0,4.2-96.7,7.3-96.2,3.1.4,5.7,95.7,5.7,95.7,0,0,9.1,3.2,21.4,3,12.4-.2,17.6-1.7,18.4-6.6,0,0-3.3-38.5-4-59.5-.7-20.9-17-28.6-17-28.6l-1.9-51.2h-56.6l-10.1,70.2h0Z"/>
            <path class="st22" d="M484.7,102.5l12.1,15.3,16.5-12.1-6.3,75.6s-5.8,1.8-8-4.1c0,0-2.4,3.1-6.1,3.1s-6.6-3.8-6.6-3.8c0,0-4,6.3-9.1.4s-10.4-29.1-10.4-29.1l17.7-45.3h0Z"/>
            <path class="st3" d="M510.1,102.5c0,0,12.3,2.4,14,3,2,.7,3.8,1.6,5.5,2.8,3.1,2.3,5.4,5.5,6.6,9.1.9,2.6,1.1,5.4,2.9,7.5,1.7,1.7,3.7,4.2,4.1,6.6.3,2-.4,4-.7,6-.3,2.1,0,3.9.6,5.9.6,1.8,1.2,4,1.3,5.9s-.2,4.1-.2,6.1c0,4.1.4,8.1,2.1,11.9.4,1,1,2.2.5,3.2-.4.8-1.6,1.4-1.5,2.3,0,1.2,1.7,1.6,2.2,2.7.2.7,0,1.4-.3,2.1s-.8,1.2-1,1.9c-.3,1.6.8,3.2.3,4.7-.3,1-1.2,1.7-2,2.3-1.2,1-1.2,1.9-1.4,3.2-.3,1.7-.7,3.2-1.1,4.8-.7,3.2-1.5,6.5-2.2,9.7-.9,4.1-2.4,8.2-2.2,12.4.2,4.7.3,9.3.4,13.9l.4,14.5c0,.2,0,3,0,3l-31-1.7s.5-44.8-2.4-67.7c-3-22.9-1.4-47.7,5.2-76.2h0Z"/>
            <path class="st3" d="M488.5,101.2s-8.3-1-12.9.9c-8.2,3.4-13.3,11.5-16.9,20.3-6.1,14.6-14.9,36.4-17.5,48.1-3.4,14.6,1.6,16.7,5.3,17.8s8.6,2.3,8.6,2.3c0,0-4.5,45.8-4.9,48.9s.8,3.9,4.2,4.2,15.8,1.2,15.8,1.2l11.4-99.1,7-44.6h0Z"/>
            <path class="st0" d="M466.5,159.7c-3-3.1-1.4-9.6,2.7-16.4s9.4-9.2,13-5.6c3.6,3.6.3,14.9-7.1,22-2.4,2.2-6.2,2.4-8.6,0h0Z"/>
            <path class="st0" d="M544.3,186.5c-4,0-14.1-.3-14.1-.3,0,0,.8,7.2,1,9.8,0,2.5,0,5.1-.2,7.6s-1.2,5.1-1.3,7.6c0,3.2.7,8.5,2.9,11,5.1,6,9.7.9,10.2-15.9.5-17.1,1.5-19.8,1.5-19.8h0Z"/>
            <path class="st0" d="M509.5,158c-1.3-.7-2.4.2-2.5,1.3s1.2,2.2,2.2,1.7,1.6-2.4.2-3.1h0Z"/>
            <path class="st0" d="M507.6,168c-.2.8.4,1.6,1.2,1.8,1.2.3,2.3-1.1,1.7-2.2-.5-.9-2.5-1.7-2.9.3h0Z"/>
            <path class="st0" d="M511,176.2c-.7-.5-1.7-.2-2.2.5s-.2,1.7.6,2.2,1.7.2,2.2-.5-.4-2.2-.7-2.2h0Z"/>
            <path class="st12" d="M496.1,45.9c-6.3-.2-13,1.8-16.9,6.8-3.8,4.8-4.2,11.5-6.7,17-2.2,5-6.1,9.1-8.1,14.2-2.1,5.1-1.9,11.9,2.7,14.9-16.7,23.3-28.2,50.2-33.8,78.4-.9,4.8-1.5,10.5,2,14.1,1.9,2,4.8,2.8,6.7,4.8,3.6,3.7,2.8,9.5,2,14.6-6,34.8-6.5,70.5-1.5,105.4-3.2,3.2-6.3,6.5-8.3,10.5s-2.3,9.1,0,12.9c3.7,5.9,12,6.4,19,6.1,19.4-.6,38.9-1.2,58.3-1.7,6.4-.2,13.1-.4,18.7-3.6,5.6-3.2,9.7-10,7.5-15.9,4.6-1.2,8-5.3,9.5-9.8s1.7-9.3,1.7-14.1c.5-47.2,1.1-94.5,1.6-141.7.2-15.5.2-31.7-6.9-45.5-3-5.9-7.3-11.2-9.1-17.6-2.2-7.7-.6-16.1-2.2-24-3.3-16.9-20.1-25.3-36.1-25.9h0Z"/>
          </g>
        </g>
      </g>
      <g>
        <g class="st4">
          <path class="st3" d="M1068.6,305.5l1.8,29.8h-42.9s-3.6-4.7,3.1-8.7c6.6-4.1,19-8.1,20.5-18.4l17.5-2.7h0Z"/>
          <path class="st3" d="M1081,312.2v23.1h34c3.9,0,10.5-6.7,2.2-11.5s-11.3-2.8-15.9-10c-4.7-7.1-3.6-12.3-3.6-12.3l-16.8,10.7h0Z"/>
          <path class="st0" d="M1103.3,217.3s-1.2,22.3-2.4,33.1c-1.2,10.9,0,37,0,37,0,0,4.1,19.9-1,21.9s-18,6.6-21.8,5.1-.7-10.7-3.2-28.6c-2.5-17.9-9.7-52.7-10.7-56-1-3.3-1.2.8-1.7,11.8s4.5,44.8,4.8,47.9c.4,3.1,6.6,4.7,2.6,9.9,0,0,7.6,4.4-.7,8.1-8.3,3.7-18.4,4.7-22.7,3.2-4.2-1.6-3.2-6.6-5.2-17.4-2.1-10.8-9.8-55.8-12.8-68.3-2.3-10.1-6.5-15.8-4.2-19.9,4-7.3,14.7-13.9,14.7-13.9l59.5,2.1,4.8,24.3h0Z"/>
          <path class="st3" d="M1116.5,188.8c.2-1.8,0-12.7,0-13.2,0-2.7.2-5.6,0-8.3,0-2.8,0-5.6-.2-8.5-.2-2.6-.2-5.3-1.2-7.7-.9-2-2.5-3.7-3.2-5.7-1.1-2.9-.6-6.4-2.2-9.1-.8-1.4-2.2-2.4-3.3-3.5-.6-.6-1.2-1.2-1.7-1.9s-.7-1.4-1-2.1c-1.2-2.6-2.6-5.1-4.2-7.6-1.9-3-4.2-5.7-6.8-8.1-3.2-2.7-6.8-4.9-10.7-6.3-1.6-.4-3.1-.6-3.8-.6-13.2.3-10.8.5-10.8.5l-14-3.2s-6.1.7-10.1,1.7c-11.5,2.8-14.8,4.8-16.4,7.5-4.2,7-12,21.2-14.9,31.9-1.5,5.6-1.6,11.3-3.5,16.8-.7,1.7-1.4,3.6-1.3,5.4,0,2.1,1.2,4,1.2,6.1,0,2.3-.9,4.3-.3,6.6.6,2.2,2.1,3.7,3.3,5.5,2.2,3.2-1.1,9.5,5,11.3l14.3-10s-1.2-12.7-1.3-18.4c-.2-5.6.2-6.1,1.3-6.1s1.8,29.3,1.8,29.3c0,0-2.7,4.2,12.6,5.1s47.1-1.4,47.1-1.4v-19.5s3.6-.4,1.1,11c-1.7,7.6,0,8.9,0,8.9l16.4.9s6.6-2.2,7.1-7.3h-.2Z"/>
          <path class="st22" d="M1077.3,107.6l-2-11.3s0-6.8,0-8.6,1.4-.7,2.7-3.3,2.9-9.9-3.2-10.8l-8.6-13s-14.2,2-15.9,3.9c-1.8,2-3.2,14.1-3.2,14.1,0,0-3.3.4-2,6.1,1.3,5.6,4.6,6.9,6.5,6.6,0,0,1.1,4.6,1.9,6.1.7,1.2-.8,7.4-.8,7.4l4.2,5.1,9.7,3,10.6-5.6h0v.2Z"/>
          <path class="st0" d="M1074.9,74.9c-1,.9-1.2-2.6-2.6-4s-3.8-2-3.8-3.7,0-2.1-.9-2.3c-.6-.2-1.2.4-1.3,1.7-.7,4.3-7.2,3.2-10,0-1.1-1.2-1.2-2.7-1.2-2.7,0,0-3.9,1.9-4.7.8-.2-2.2.8-2.2,1.2-3.9s1.1-3.9,3.7-5.2c1.4-.7,2.7-1,4.3-1,4.7,0,7.1,3.6,7.1,3.6,0,0,1.2-1.2,2.9,0,1.1.7,1.2,2.2,1.2,2.2,0,0,1.7-1.1,2.6,1.2s-.5,4.4,0,5.4,2.8,6.6,1.4,8h0Z"/>
          <path class="st0" d="M1051.1,82.5c.6-.3.5-6-1.2-10.4s.5-7.5.5-7.5c0,0-1.2-.5-2.7,1.6s-1.6,11-1.1,12.8c1.4-.2,2.3,1,2.8,1.9s1.2,2,1.8,1.6h0Z"/>
          <path class="st0" d="M1060.3,82.3c1.3-.2,1.6-1.3,2-1.2s.9,2.3,3.2,3.2,4.6.7,5,2c.3,1.3-6.4,2.8-8.9.2,0,0-2.2,3.4-5.2,4.2-1.5.3-2.7,0-2.8-.7-.2-1.1.7-1.8,2.1-2.6,2-1.1,2-3.7,2-3.7,0,0-.7-.5-.3-1.2s2,0,3.1,0h0Z"/>
          <path class="st0" d="M1063.8,96.1s1.6-3.5,4.2-3.9,7.4-4.7,7.4-4.7c0,0,0,5.2,0,7.7,0,2-1.2,3.7-2.1,4.2-1.2.7-2.4.7-4.1,0,0,0-1.3,3-4.2,3.6s-4.9,0-6.6-1.9c-1-1.2-2.2-.6-3.6-1.7s-2.6-3.3-.7-5.5,3.5,1,4.3.7c3.3-1.4,5.2,1.6,5.2,1.6h0Z"/>
          <path class="st22" d="M1092.1,194.2s-2.7,7.6-1.5,9.5c1.2,1.9,4.2.6,4.2.6,0,0,3.1.3,1.5,4.6s-4.3,9.5-2.7,12.6,6.5-.7,12.3-6.1c0,0,4-10,1.3-19.5l-8-2.2-7.1.4h0Z"/>
          <path class="st0" d="M1092.1,191.8c-.8,2.8-.2,3.1-.2,3.1l16.6,2.9s1.9-.7,1.3-1.7c-.2-.3-1.3-.9-2.1-1.2-2.8-1.2-12.6-3.9-15.7-2.9h0Z"/>
          <path class="st22" d="M1019.3,196.5l4.9,8.3s8.1-6.7,10-6.3c1.2.2,3,.2,3.9-.8.7-.8.4-2.2.4-2.2l-8-7.1-11.4,8.1h0Z"/>
          <path class="st0" d="M1016.3,196.2s0,.4.5,1.2c.5.9,1.6,1.4,3.3.3,3.4-2.1,11.3-7.7,11.3-10.6s-.9-1.7-.9-1.7l-14.2,10.8h0Z"/>
          <path class="st0" d="M1053,103.6c-2.2-.2-2.3,2.2,0,4.7s6.4,6,12.8,6,12.7-4.4,13-5.9c.2-.8,0-2.2-.2-2.7-.2-.4-1.6-.5-1.6-.5l.2,1.1c-1.7,1.4-5.5,5.1-11.5,5.1s-12.5-7.8-12.5-7.8h-.2Z"/>
          <path class="st0" d="M1032.3,119.9c-.5,1.5.9,1.3,1.7.6.6-.5.8-1.3.8-2.1s0-1.2-.7-1.2c-1.1,0-1.7,2-1.9,2.7h0Z"/>
          <path class="st0" d="M1040.3,121.9c0,.4,0,.8.4,1.1s.8.2,1.2,0c1-.6,1.7-2.3.7-3.2-1.2-1.1-2.3,1.2-2.4,2.2h0Z"/>
          <path class="st0" d="M1047.9,123.1c0,.5,0,1,.2,1.4s.7.8,1.1.7c1.4-.2,2.3-2.8,1.6-3.9-.4-.6-1.1-.8-1.7-.6-1,.3-1.1,1.4-1.1,2.3h0Z"/>
          <path class="st0" d="M1055.4,124.5c0,.7.2,1.3.8,1.6.3.2.7,0,1,0,1.1-.7,1.5-2.7.4-3.6-1.4-1.2-2.2.9-2.2,2.1h0Z"/>
          <path class="st0" d="M1064.5,122.6c-.2.4-.2.8-.2,1.2,0,.7.2,1.5.8,1.9s1.7,0,2.1-.7c.8-1.6-1.2-4.6-2.6-2.5h0Z"/>
          <path class="st0" d="M1074.2,121.8c-.3-.2-.7-.2-1,0-.2.2-.3.5-.4.8-.2.7,0,1.3.2,1.9s.8,1,1.5,1.1,1.3-.4,1.4-1c.2-1-.8-2.2-1.7-2.7h0v-.2Z"/>
          <path class="st0" d="M1082.5,122.5c.2.5.4,1,.9,1.3,1.7,1.2,2.9-1.4,2.1-2.7-1.1-1.7-3.6-.7-3,1.4h0Z"/>
          <path class="st0" d="M1041.2,132.1c1.4,1.3,3.2-1.3,1.7-2.7-1.6-1.5-2.9,1.6-1.7,2.7Z"/>
          <path class="st0" d="M1048.1,133.1c1.5,1.4,3.7-1.3,2-2.7-1.8-1.5-3.3,1.4-2,2.7Z"/>
          <path class="st0" d="M1057.1,133.9c.2.6.4,1.2,1,1.4,1.7.7,2.2-2.7,1.2-3.8-1.3-1.8-2.7.7-2.2,2.3h0Z"/>
          <path class="st0" d="M1066.5,132.4c0,.7.2,1.4.6,1.8s.9.5,1.3,0c.7-.8.7-2.7,0-3.2-.8-.6-1.8-.2-1.8,1.3Z"/>
          <path class="st0" d="M1074.6,134.3c1.3,2.3,3.2-1,2.1-2.8-1.2-2-3.2.9-2.1,2.8Z"/>
          <path class="st0" d="M1082.5,129.8c-.6.2-.9.8-.8,1.4,0,1.5,2.6,3,3.5,1.2.7-1.5-1.2-3.2-2.7-2.7h0Z"/>
          <path class="st0" d="M1090.3,129.7c.4,1.1,1.6,1.7,2.2.3.3-.8.3-1.9,0-2.7-.2-.7-.7-1.2-1.5-.8-1.2.6-1,2.2-.6,3.2h0Z"/>
          <path class="st8" d="M1083.5,74.4c-.6-9-4.2-18.1-11.3-23.5s-18.2-5.9-24.7.2c-5.6,5.2-6.7,13.7-6.7,21.3s.5,15.7-2.7,22.7c-2.9,6.2-8.6,10.6-13.5,15.4-15,14.9-23.8,36-23.9,57.3,0,25.6,11.8,49.5,20.7,73.5,8.9,24,14.6,51.7,2.8,74.5-3.5,6.7-8.5,14.8-4.5,21.2,2.8,4.5,8.6,5.7,13.9,6.5,27.1,4.2,55.4,8.1,81.3-.6,6.7-2.2,14.4-7.4,13.2-14.4-1-6.1-8-8.9-12.4-13.3-6.6-6.5-7.3-16.7-7.6-26-.7-20.9-1.6-42,2.6-62.5,3.2-15.6,9.2-30.7,10.7-46.6,1.5-15.3-1.7-30.8-8.4-44.6-7.1-14.4-17.4-24.3-29.9-34-3.9-3-2-6-1.1-10.4,1.2-5.6,1.9-11.2,1.5-16.9h0Z"/>
        </g>
        <g class="st16">
          <path class="st0" d="M977.4,251.5s7.3,55.5,7.6,55.5h15.3s3.3-37.4,1.9-51.2c-1.4-13.8-24.8-4.2-24.8-4.2h0Z"/>
          <path class="st0" d="M1009.9,248.4s1.2,21.5,3.8,46.4l18.8,7.2v-47l-22.6-6.6h0Z"/>
          <path class="st3" d="M982.9,293.5s13,.2,18.3,0c3.3,0,2.2,21.5,2.2,21.5l-.2,20.3h-9.2l-1-3.7s-6,3.7-12.6,3.7h-8.7c-2.3,0-6.5-2.7-3.8-6.4,1.7-2.5,5.2-3.4,10-6.5,6.1-3.8,6.9-7.7,6.9-7.7l-1.9-21.2h.2Z"/>
          <path class="st3" d="M1032.5,294.1l-18.8.7,1.3,19.6-.4,20.9h8.7l1.8-3.5s4.5,3.5,8.1,3.5h10.7c5.6,0,8.2-6.7.4-10.2-10.8-4.8-12-11.5-12-11.5v-19.4h0Z"/>
          <polygon class="st22" points="998.6 57.7 1012.1 62.1 1025.9 72 1025 85.9 1009.9 111.7 995.5 93.4 991.3 72.2 998.6 57.7"/>
          <path class="st3" d="M1030.6,168.4s7.1,19.7,10.8,31.1,5.6,51.3,5,62.9c-.6,11.5-1.3,17.4-1.3,17.4,0,0-70.5,6.9-82.9-3.5,0,0-.2-19.6,7.1-62.4,6.1-35.4,16.9-50.9,16.9-50.9l32.5,1.2,11.9,4.3h0Z"/>
          <path class="st0" d="M1013.5,94.9s-2.7.6-5.6.6-4.9-.2-6.1-.6c-.7-.5-2.2-.8-2.7-.4-.8.7-.4,2.7,1.3,3.4-2.9,1.7-8.6,5.1-13.3,8.1s-9.1,4.2-14.3,19.6c-5.2,15.4-7.5,22.1-6.1,26,1.7,4.6,6.5,13.3,18.8,17.1,12.3,3.7,22.8,6.7,22.8,6.7,0,0,2.5-4.5,1-9.2,0,0,18.2,2.4,21.3,2.8s6.5-1.3,7.7-4.6c4-10,11.8-31.4,10.1-40.4-2.2-12.2-25.2-25.7-25.2-25.7l-10-3.3h0Z"/>
          <path class="st3" d="M1007.2,62.8c1.4,2.1,3.1,9.9,11,13,0,0,1.3-3.7,4.1-1.6s.7,8.3-1.4,9.2c-1.2.5-2.1,3.1-3.6,5.7-1.6,2.7-4.3,5.1-4.6,8.2-.2,1.7,0,3.4-.6,5-.7,2.1-2.5,3.7-2.6,5.9,0,1.8,1.1,3.6,1.6,5.4.7,3.2-.8,6.4-.9,9.6-.2,5.8,5.4,11.7,11.4,10.8,2-.3,3.7-2.1,4.4-4,.3-1,.6-2,.6-3.1s-.2-2.4,0-3.6c.6-2.6,3-4.4,3.5-7,.4-2.6-1.2-5.1-.7-7.7.3-1.5,1.3-2.8,2-4.2,1.1-2.3.9-4.9.6-7.4-.2-1.5-.6-2.9-.7-4.3,0-1.7-.6-3.3-.8-4.9s-.6-3.2-.7-4.7c-.2-1.2-.6-2.5-.5-3.7,0-1,0-1.9,0-3-.3-2.3-1-4.6-2.1-6.7-4.3-8.1-10-14-17.8-12.4,0,0-1.1-4.5-10.1-2.6-9.1,1.9-12.6,14.4-11.7,21.3.9,6.9,3.7,13.6,2.9,18.7s-4.7,8.6-3,11c0,0,8.1-2.3,12-4.8,1.3-.8,1-2.8,1.2-3.2,0,0-1.8-1.7-1-2.8s2.3-.2,2.3-.2l-.7-1.5s-2.2-2.6-3.2-5.7c-.8-2.7-2-6.1-1.1-9.8.2-.7.4-1.9.8-2.7s-.7-3.2.2-6.9c1-4.2,7.5-8,9.1-5.5h0Z"/>
          <path class="st3" d="M1006.2,74.5c-.2,0-.3,0-.4.2s-.2.2-.2.4c-.5,1.1-.7,2.2-1.3,3.2-.2.3-.9,1.2-1.1,1.5-.2.4-.5.9-.4,1.4,0,1.6,1.7,2.2,3.1,2.2h.9c.2,0,.6-.3.6-.7,0-.7-.7-.7-1.1-.7-.5-.2-1-.3-1.4-.6s-.2-.7,0-1.1c.3-.5,1.4-2.7,1.6-3.3,0-.4.7-2.3-.2-2.4h0v-.2Z"/>
          <path class="st22" d="M1007.9,160.5s-6.6-9.2-2.4-9.6c1.4-.2,11.8-2.3,14.4-2.2s5,2.2,5,2.2c0,0-5.3,5.1-9.9,7.2s-7.1,2.3-7.1,2.3h0Z"/>
          <path class="st22" d="M999.9,150.7c0-.2-1.7-.3-1.8-.4-2.6-.4-5.1-.6-7.7-.5s-5.1.4-7.6,0c-3.5-.6-7.6-2.7-7.1-6.8.2-1.7,1.1-3.2,2.7-3.8s3.6-.8,5.3-.2c.6.2,1.2.4,1.7.4s.7-.2,1.2-.2c1.3-.2,3.2,1.7,4.2,2.4,1.4,1.1,2.7,2.2,4.1,3.3,1.8,1.6,4.3,3.6,5.1,6h0Z"/>
          <path class="st13" d="M1040,60.9c-5.2-10.8-16.6-18.5-28.6-18.9s-24.1,6.7-29.1,17.6c-4.3,9.4-3.4,20.3-5.6,30.4-4.4,19.8-20.8,37-18.3,57.1,1.3,10.6,7.9,20,9.2,30.6,1.2,9-1.5,18-3.8,26.7-4.3,16.4-7.3,33.1-9.1,50.1-1,9.3-1.5,19.2,2.7,27.7,2.9,6.1,8,10.8,11.7,16.4s6.1,13,3.1,19c-3.5,6.8-13.4,11.1-11.9,18.7,1.2,6.2,9.1,8,15.4,8.3,11.6.7,25.2.7,32.6-8.3,7.6,5.3,17,7.9,26.2,6.9,7-.7,14.4-4,17-10.5,4.5-11.1-7.2-22.4-7.3-34.4,0-10,7.7-18,12.1-27,7.6-15.8,4.5-34.5,0-51.4-4.6-16.9-10.5-34.2-7.8-51.5,2.2-13.6,9.5-26.4,9.2-40.2-.2-10.2-5.1-19-12.3-26.1-2.6-2.6-5-4.9-4.9-8.8,0-4.9,2.7-9.5,3-14.4.4-6.1-.7-12.5-3.4-18h0Z"/>
        </g>
      </g>
      <g>
        <g class="st18">
          <g class="st1">
            <path class="st3" d="M680.2,318.5s5.2,16.9-4,16.9h-37s-4.1-3.6-1.9-7.2c2.2-3.7,9.3-3.7,13-5.5,2.7-1.2,7-5.5,10.3-7.5,1.3-.7,1.9-1.4,3.1-.9l.4,3.7,14.4-1.7,1.7,2.1h0Z"/>
            <path class="st22" d="M660.9,206.5s-.2,14.8,2.7,15.8c0,0-1.6,25.6,0,30.8,1.6,5.2-1.2,5-1,14.4.2,9.5-2.2,38.4-2.1,47.7,2.5,0,2.5,4.6,2.5,4.6l18.1,3.1s3.7-6.3,1-8.8c0,0,1.5-27.3,5.5-48.7s5.4-29.4,7.6-29.5c1.2,0,2.7,32.3,2.7,32.3l4.9,57.7s9.5-4.7,18.3-7.5c1.7-.6,2-.4,2.2-4.4.2-4-.2-5.5-1.6-5.6,0,0,1.8-27.4,3.5-37.8s4-48.2,4-48.2c0,0,4.5-1.8.7-15.2-3.8-13.4.7-17,.7-17l-20.1-3.9-44.8,2.2-4.8,17.9h0Z"/>
            <path class="st0" d="M716.6,65.3s1.8,5.9,1.2,8.9c-.6,3,1,3.7,1,3.7,0,0,1.4,2.3,2.2,3.8.8,1.5-1.7,3.8-3.6,3.6,0,0,.2,5.4-2.5,8.1s-3.6,3.4-3.6,5.3-.5,17.6-.5,17.6l-15.5,2.1-4.6-9.5s1.3-9.5,1.3-12.5v-7.1l-4.4-7-.7-9.8,12.2-4.9,17.5-2.4h0l-.2.2Z"/>
            <path class="st3" d="M692,96.3s-.2,9.5,2.8,12.6c3,3.2,9.5,3.4,13-.2,3.2-3.2,3.6-7.7,3.6-10.1h5.1c2.8,0,5.6,2.2,4.6,4.8-1,2.7,6.6,5.6,10.7,8s8.1,4.3,12.2,17.8c1.2,3.8,2.3,7.6,3.3,11.5.5,1.7,1,3.5,1.4,5.2.4,1.7,1,3.3,1.4,5,.2,1.5.4,3,0,4.4-.3.9-.8,1.8-.8,2.8s.7,2,1.2,2.9c.5.9.8,2,.9,3s-.2,2.2-.7,3c-.6.7-1.3,1.3-1.7,2.2-.4.8-.4,1.7-.3,2.7,0,.9,0,1.5-.2,2.3-.2.7-.4,1.6-.6,2.4l-1.2,5c-.9,3.2-1.9,6.5-3.5,9.5-.2.4-.4,1.2-.7,1.5-5.1,8.9-12.1,14.4-12.1,14.4l-5.3-14.9s-11.4,9.9-27,9.1c-15.6-.7-27-7.4-27-7.4l-9.7,13.6s-3.2,0-3.2-5.5c0,0-5,.3-4.2-6.3.8-6.7-6.6-16.4-6.4-21.6.2-5.1-5.1-7.1-2.9-16.9s6.9-26.2,16.1-41c2.9-4.6,5.6-8.1,8.5-9.2,6.4-2.5,10.5-2.3,10.5-2.3,0,0-2-3.7,3.3-7.6,4.1-2.9,9.2-1,9.2-1h0Z"/>
            <path class="st3" d="M692,96.3s1-9.7-.2-12-3.1-1-3.5-5.6c-.4-4.6,2.2-6.3,4.1-4.1s2.7,4.3,4.3,3.9,1.9-3.7,1.9-5.8.8-.8,3.4.4c1.7.8,4,.8,5.8.4.9-.2,1.8-.7,2.4-1.4.3-.4.6-.9,1-1.2.4-.2.8-.2,1.3,0s.8.3,1.2.4c1.7.5,3.8-.3,4.7-1.9.3-.6.4-1.3.3-2v-.6c0-.2.2-.3.4-.5.8-.7,1.4-1.7,1.7-2.7.2-.4.3-1.6,0-3.2-1.4-5.9-7.8-6.3-11.6-4.9-2.2-1.3-8-2-10.5,1-2.5,3-2.1,2.9-4.6,2.7s-6,1.2-6.1,7.1c0,0-3.7,3.7-3.5,8.1.2,4.4,1.4,4.8,1.8,8.3.4,3.5.2,12,5.6,13.7h0v-.2Z"/>
            <path class="st3" d="M711.5,73.7c-1.8-.2-4.2,1.1-4.1,5.1,0,3.3,2.1,4.6,3.7,4.5s2.7-2.1,2.7-4.6-.5-4.9-2.4-5.1h0ZM712.6,78.2c0,1.8-.4,3.6-1.7,3.7s-2.1-.7-2.2-2.9.7-4.1,2.5-3.9c1,0,1.4,1.4,1.4,3.2h0Z"/>
            <path class="st3" d="M713.5,76.2c0-.3.6-.8.7-1.1.4-.4.9-.7,1.5-.8.7-.2,1.7-.2,2.5,0,0-.3,0-.8.2-1.1.2-.4.8-.4.9,0v.6c0,1.7.2,3.2,0,4.9,0-.2-.9-1.2-1.1-1.4,0-.2,0-.4,0-.8,0-.2,0-.5-.2-.7,0-.2-.2-.2-.5-.3h-2c-.8.2-1.5.7-1.7,1.5-.8,2.1-.4-.9-.4-.9h.2Z"/>
            <path class="st22" d="M704,116.9s-.2-.7,1-.8,1,.7.9,1.7v8s0,3.7-.9,3.8c0,0-.3,0-1,0,0,0-.9-.2-.7-2.1s.6-3.3.7-5.3.2-5.2.2-5.2h0Z"/>
            <path class="st22" d="M691.1,111.5c.3.2.5.6.7.9.3.9.7,1.7,1.1,2.7.9,2.3,1.9,4.7,1.8,7.2,0,2.7-1.2,5.2-.7,7.8.2.7.4,1.5,0,2.1-.2.2-1.6.3-1.6.3,0,0-.3-.2-.4-.2-.2-.2-.2-.6-.3-.9-.2-1.6-.2-3.2-.2-4.7,0-1.3.4-2.7.5-4.1.2-1.3,0-2.7-.4-4.1-.3-.8-.8-1.6-1.2-2.3-.4-.9-.7-1.9-.7-2.9s0-1.1.3-1.4c.2-.3.8-.4,1.2-.2h0Z"/>
            <path class="st3" d="M702.7,322.9s-.7,1.7-1.2,6.4c-.4,4.4,1,6.1,2.5,6.1h29.6c6.4,0,7.6-5.8,3.6-9.6-2.3-2.2-10.6-2.9-13.2-4.2-1.3-.7-6.1-5-7.5-5.6-2.2-1-7.6-1.7-9.2,3-.3,1-1.1,2-2,2.7-.3.2-2.5,1.4-2.5,1.4h0Z"/>
            <path class="st11" d="M728,59.9c-.7-1.2-1.5-2.5-2.4-3.6-4.4-5.5-11.1-8.9-18.2-9.2-12.5-.6-24.7,7.5-27.3,19.8-1.2,5.8-1,11.8-1.9,17.7-.8,5.9-2.9,12-7.6,15.5-3.2,2.5-7.1,3.6-10.8,5.1-6.4,2.7-7.7,6.8-10.7,12.5-3.4,6.5-6.6,13.1-8.9,20.2-4.6,13.9-3.5,28.7-.3,42.8,3.4,15.2,9,29.9,11.8,45.3,2.9,16.3,2.7,32.9,1,49.3-.7,7.1-2.4,13.6-4.1,20.5-.8,3.4-.6,6.7-1.7,10-1.3,3.6-3.3,6.9-5.4,10-3.4,5.1-7.7,10.3-9.3,16.3-1.3,5.2,3.2,10.1,7.7,12.1,3.5,1.5,7.2,1.9,11,2.1,13.5.7,27.7-2.1,37.7-11,0,0,10,6,11,6.5,4.2,2,8.6,3.7,13.1,4.8,7.8,2,17.7,3,24.4-2.5,5-4.1,7.1-12.1,6.9-18.4-.2-6.3-7.7-9.7-11.3-14.4-3-3.9-4.2-9-4.2-13.9,0-4.9.9-9.8,1.8-14.6,2.5-12.6,5.1-25.2,7.6-37.8,2.3-11.5,3.2-22.7,7.1-33.8,4.5-12.3,11.1-23.7,14.2-36.5,6.1-24.8-3.2-52.8-22.8-69.2-3.2-2.7-7-5.3-8.6-9.3-2.6-6.6,1.5-13.6,2.7-20.5,1-5.5,0-11.3-2.7-16.2h0Z"/>
          </g>
        </g>
        <g class="st18">
          <g class="st2">
            <path class="st0" d="M794.3,318.7l-2.7,16.5h-38.5s-1.7-2.8-1.7-4.6c0-5.6,13.9-7.1,19.8-11.1,5.9-4.1,8.1-8.8,8.1-8.8l14.9,7.9h0Z"/>
            <path class="st0" d="M825.9,318.5s1,2.7-3.9,7.1c-4.8,4.3-2.9,9.6-2.9,9.6h25.3c2.2,0,1.7-17.1,1.7-17.1l-20.2.4h0Z"/>
            <path class="st3" d="M826.9,61.1c1.7,2.2,2.7,5.1,4.6,7.1.9.9,1.9,1.6,2.8,2.4s1.7,1.9,1.9,3.2-.6,2.7-1.7,3c1.6.4,2.3,2.2,2.4,3.9s-.4,3.2-.2,4.9c.2,2,1.4,3.7,1.8,5.6s-.2,4.4-2.2,4.8c2,1.3,2.3,4.4,1.2,6.5-1.2,2.1-3.6,3.3-6,3.7s-4.8-.2-7.1-.7c-4.3-1-8.6-2.2-12.9-2.4s-4.4,2.2-7.7,5.1c-1.4,1.2-7.2,1.4-8.9,2.2-2.1,1.1-4.7.9-6.6-.4s-3-3.7-2.7-6.1c.2-1.6,1.1-3.2,1.1-4.7,0-3.1-3.1-5.6-3.2-8.6,0-3.4,3.3-5.7,4.5-9,.7-1.7.5-3.7.5-5.5s0-3.7.7-5.5c.7-1.7,2.5-3.1,4.3-2.9-1.3-.7-1-2.8,0-3.9,1.1-1.1,2.6-1.6,3.8-2.4,1.9-1.4,3.1-3.7,4.9-5.2,2.9-2.4,7.1-2.1,10,0,1.6,1,2.5.8,4.2.7s3.7.2,5.5.8c1.9.7,3.7,2,5,3.7h0Z"/>
            <path class="st22" d="M772.6,135.2c-.2,4.2,13.9,18,13.9,18l-3.2,13.5,42.5-.9,23.4-28.1,4.7-.7s-2.2-18.7-11-26.3c0,0-16.9-9.5-34.5-7.2-11.7,1.5-20.3,6.6-20.3,6.6l-15.5,25.2h0Z"/>
            <path class="st0" d="M810,64.2s0,8.6,7.6,13.2c4.7,2.9,5.6-.2,8,1.6,2.4,1.8-1.2,7.2-4.2,7.5s-1.2,18.6-1.2,18.6c0,0-2.7,3.2-7.6,3.2s-9.2-1.6-9.2-4.6,0-6.6,0-6.6c0,0-2.4-1.2-4-4.8-1.6-3.5-2.5-7-1.9-10.2.2-1.2,1.2-3.3,1.4-3.9s0-1.7.2-3.3c.2-1.6.9-3,2.2-3.7,3.8-.3,7.2-.9,8.7-7.1h0Z"/>
            <path class="st3" d="M807.1,76.3c.9.6-2.1,4.4-2.5,5.1s-.5,1.6.2,1.8c1.3.4,1.2,2.1-.7,1.6s-2.1-1.7-1.7-2.8c.2-.7,1.2-1.9,2.2-3.2,1.2-1.4,1.8-2.9,2.4-2.6h0Z"/>
            <path class="st0" d="M780.2,142.7v10.2c0,4.8-.2,9.7-.6,14.5-.5,6.1-1,12.6-2.7,18.4-1.2,4.1-2.7,8-3.5,12.1-.7,4.2-.5,8.6,1.7,12.2,1.2,1.8,3.2,3.4,5.2,2.7,1.6-.5,2.4-2.2,2.9-3.8.7-2.4,1.5-4.7,2.7-6.9,1.4-2.5,1.7-5.6,2.2-8.5,1.1-5.7,2.2-11.5,2.7-17.4.2-2.4.4-4.9.2-7.4,0-.8-.2-1.7-.5-2.4-.7-1.5-1.8-1.2-3.3-1.3-.2,0-.5,0-.7-.2-.3-.2-.3-.7-.2-1,.2-4.9,1-9.9.5-14.8-.2-2.2-1.7-3-3.4-4.3-.9-.7-3.2-2.3-3.2-2.3h0Z"/>
            <path class="st3" d="M789.1,165.3s-16.2,77.8-18.8,90.8-9.3,55.3-9.3,55.3c0,0,6,8.1,39.1,8.6l10.5-100.7s-.7,25.7-.4,41.5c.3,15.8,4,43.5,4.6,48.6.4,2.9.7,5.7,1.2,8.6v.4s26,3,45.5-2.4c0,0-13.3-61.5-15.1-68.7-1.9-7.1-2.2-15.8-3.2-26.1-1.1-10.3-6.5-24.6-6.5-24.6l-10.9-31.1-36.8-.5h0Z"/>
            <path class="st0" d="M835.6,107.2s-9.8,3-10,12.3c-.2,9.2,2.1,1,2.5-1.2.7-4,3.2-7.8,9.8-10.1-1.5-.6-2.2-.9-2.2-.9h0Z"/>
            <path class="st22" d="M849.3,137.6l2.6-.4s9.1,25.8,10.1,29.9c1,4.1,4.2,11.5,5.9,17.1,1.7,5.6,6.1,15.2,5.1,17.1s-34,9.8-37.8,10.6-5.6-.6-6.2-4.9c-.7-5.1-7.1-51.3-7.1-51.3,0,0,19.7,1.6,24.9,0s7.8-2.4,7.8-2.4l-5.2-15.8h0Z"/>
            <path class="st0" d="M833.1,137.9s9.3.7,16.1-.3c0,0-1.6,27-12.6,30.9-5.6,2-9.5-1.3-14.9-12.6s-6.1-22.4-6.1-22.4c0,0,5.9-21.4,12-17.9,1.2.7,1.8,3.3,1.1,5.1-1,2.3-2.8,4.6-2.8,4.6,0,0,2-1.3,2.9-.2.8,1.1.5,3.4-3.9,10.5l6.5,9.8,1.6-7.5h0Z"/>
            <path class="st0" d="M800.3,111.3c3.6.9,7.2,1.2,11,1.5s7.6,0,11.2-.6c.3,0,.6,0,.9,0s.6.3.6.6c0,.4-.3.7-.7.8-3.1,1.1-5.5,1-8.3,1.1-1.5,0-6.9-.2-8.1-.3-1.5-.2-3.1-.4-4.6-.7-3.7-.6-7.2-1.7-10.7-3.3.2-.7,1-1.2,1.7-1.2s3,1.1,7,2.2h.2Z"/>
            <path class="st0" d="M818.1,126.4c1.8-.2.7,2.2,2.2,2.9-.4.6-.7-.2-1.8-.2-4.2.2-10.1,0-16.4-1.3-3.9-.7-7.8-1.7-11.6-2.7-.8-.2-10-2.8-10-2.8.5-.7.8-1.5,1.3-2.2,10.4,3.5,24.7,7.1,36.2,6.2h0Z"/>
            <path class="st0" d="M773.7,133.5l1.1-1.7c2.4.9,10,4.9,18.9,6.8,7.3,1.6,15.6,3.6,23.1,3.7.8,0,2.9-.4,2.2.2-.2.2.3,1.6,0,1.6-10.7.7-22.3-2-32.7-4.7-6.9-1.8-12.6-5.7-12.6-5.8h0Z"/>
            <path class="st0" d="M788.7,154.1c.2-1.2,3.3-.4,4.2-.4,3,.2,6,.2,9,.3,6.1.2,12.1.4,18.2,1.1.3,0,.7,0,.8.2.4.3.2.9-.3,1.2s-1.2.2-1.8.2c-7.9-.2-15.9-.2-23.7-.7-1,0-6.5.2-6.4-1.9h0c0,0,0,0,0,0Z"/>
            <path class="st22" d="M789.5,141.7c.2,4.2-2.6,4.6-2.7,3.7-.3-2.7-.7-5.4-.7-8.1,0-1.6-.3-3.2-.2-4.8,0-1.7.9-3.6,1.5-5.1,1.2-3.4,3-6.6,5.1-9.7.2-.3.5-.7.8-.7s.8.4.8.8-.2.8-.3,1.2c-1.7,3.6-3,7.4-3.7,11.3-.8,3.9-.6,7.4-.3,11.4h-.2Z"/>
            <path class="st0" d="M833.7,133.3c6.3-.9,12.8-1.8,19.1-2.7.2.9.3,1.6.3,1.6,0,0-1.9.6-2.5.7-4.2.9-15.9,2.3-17.1,2.2-.9,0-1.2-1.5.2-1.7h0Z"/>
            <path class="st0" d="M835.1,122.9c4.6-.4,9.5-2.8,12.9-6.1.4.9.7,1.3,1.1,2.2.2.6-4.4,3-5,3.3-1.7.8-3.4,1.5-5.1,1.9-1.5.3-3.6.6-5.1.4-2.5-.2-1-1.6,1.4-1.7h0Z"/>
            <path class="st5" d="M798.5,49.5c-13.5,4.8-23.3,18.6-23.4,33,0,12.9,6.6,26.7.7,38-3.3,6.2-10.2,10.9-10.7,17.9-.4,5.7,3.7,10.8,5.3,16.3,3.7,12.8-6.6,25.3-7.4,38.5-.6,9.1,3.3,17.9,4.5,27.1,1.7,13.9-3.2,27.7-7.1,41.3-5.6,19-9.2,38.6-12.9,58-1.3,7-2.5,14.8,1.2,20.8,4.7,7.8,15.1,9.5,24.2,10.4,7.2.7,14.8,1.3,21.6-1.2s12.6-9.5,11.4-16.6c.8,4.7,4.7,8.5,9.1,10.4s9.3,2.3,14.1,2.7c7.1.6,15.2.7,19.8-4.7,2.2-2.5,3.2-5.9,5.4-8.3,3.5-3.7,9.2-4.5,13-7.9,6.4-5.7,4.8-15.9,2.7-24.2-3.7-14.6-7.4-29.3-11.1-43.9-2-7.8-4-15.7-3.7-23.7.3-8.1,3.1-16.3,9.2-21.5,5.4-4.5,13.1-6.7,15.9-13.1,3.5-7.9-2.9-16.3-6.8-24-8.5-17.2-4.7-38.4-13.2-55.6-3-6.1-7.5-11.5-9.6-17.8-4.2-12-.7-25.5-7.1-37-4.1-7.4-15.9-13.2-23.5-15.4-7.1-2.1-14.7-2-21.7.4h0Z"/>
          </g>
        </g>
      </g>
    </g>
  </g>
</svg>