<?xml version="1.0" encoding="UTF-8"?>
<svg xmlns="http://www.w3.org/2000/svg" xmlns:xlink="http://www.w3.org/1999/xlink" viewBox="0 0 1186.3 375.5">
  <defs>
    <style>
      .cls-1 {
        fill: #6f6f6f;
      }

      .cls-2 {
        clip-path: url(#clippath-6);
      }

      .cls-3 {
        clip-path: url(#clippath-7);
      }

      .cls-4 {
        fill: #010101;
      }

      .cls-5 {
        clip-path: url(#clippath-4);
      }

      .cls-6 {
        fill: #71c38a;
      }

      .cls-6, .cls-7, .cls-8, .cls-9, .cls-10, .cls-11, .cls-12, .cls-13, .cls-14 {
        isolation: isolate;
      }

      .cls-6, .cls-7, .cls-8, .cls-9, .cls-10, .cls-12, .cls-13, .cls-14 {
        mix-blend-mode: screen;
      }

      .cls-7 {
        fill: #7e90c8;
      }

      .cls-15 {
        fill: #fff;
      }

      .cls-8 {
        fill: #4359a8;
      }

      .cls-16 {
        fill: none;
      }

      .cls-9 {
        fill: #f36f3f;
      }

      .cls-10 {
        fill: #00aa79;
      }

      .cls-17 {
        clip-path: url(#clippath-1);
      }

      .cls-18 {
        clip-path: url(#clippath-5);
      }

      .cls-19 {
        clip-path: url(#clippath-3);
      }

      .cls-20 {
        opacity: .06;
      }

      .cls-12 {
        fill: #f9a148;
      }

      .cls-13 {
        fill: #047960;
      }

      .cls-21 {
        clip-path: url(#clippath-2);
      }

      .cls-22 {
        clip-path: url(#clippath);
      }

      .cls-14 {
        fill: #fbd250;
      }

      .cls-23 {
        fill: #b5b5b5;
      }
    </style>
    <clipPath id="clippath">
      <path class="cls-16" d="M121.4,216.2l.4-21.2s14.5-21.5,17.4-27.9c2.9-6.4-5.7-37.8-14.6-57-5.9-12.6-15.6-22.4-21.6-27.6,1.7-.4,3.3-4.1,1.8-8.3-1.4-3.9,2.2-8.2-.3-10.8.3-1,.6-1.9.8-2.5.8-2.3.8-4.4.7-6.2,2.8-.3,3.9-6.9.7-8.2.6-2.2,1-5.3.3-9-1.5-7.3-10.1-11.4-17.7-10.5-.2-.6-.7-1.1-1.7-1.3-2.9-.6-5.4,2.8-5.4,2.8,0,0-1-1.1-3.7-1.1s-10.2,6.4-13.6,14.9c-3.4,8.6-.5,15.7,1.1,20.7,1.5,5,.3,9.8,3.1,9.8v2.4c-1.6,1.1-3.5,2.2-5.5,3.1,0,0-22.5,7.5-35.5,20.4-13,12.9-18.2,52.4-16.6,63.4s7,19.3,10.5,22.6c5.5,5.1,2.9,21.6,6.6,32.5,1.4,4.1,3.9,6.1,7.6,5.8l12.4,116.3c0,3.9-5.2,6-9.8,8.1s-7.6,3.5-11.3,7.1c-3.2,3.2-2.4,9.4-2.4,9.4h49.7s3.3-9.6,1.5-19.8c1.1-.3,1.8-.8,2.2-1.5,2.6-4.7-2.8-8.9-1-10.5s3.9-6,.9-16.9c-3-11-.9-18,1.1-23.2,2-5.2-2.5-4.8-.1-12.9,1.6-5.3-4.7-9.6-4.1-19.1s6.4-31.6,6.4-31.6c0,0,1,40.2,1.7,59.9.7,18.6,3.9,53.8,3.9,53.8.8.1,1.7.2,2.5.3-.8,1.4-2.3,4.7-2.9,8.8-1.4,9.8,2,12.7,2,12.7h38.4s7.1-12.2-8.3-19.3c-1.9-.9-3.4-1.9-4.6-3.1-.2-11.2,4.1-46.3,5.4-52,1.7-7.7-.9-13.2-.9-13.2,3.4-6.2,1.1-8.6,1.1-15.9s.7-26.4,1.1-40.6v-3.6h.3ZM105.6,53.3c-.3-1.7-.8-2.8-.8-2.8,0,0,.6-.9,1.2-2.5,1.7,1,1.4,5-.4,5.3Z"/>
    </clipPath>
    <clipPath id="clippath-1">
      <path class="cls-16" d="M229.4,152.1s-4.1-14.8-9.6-29c-4.9-12.7-9.7-27.9-17.5-31.9-4.8-5.5-17.3-8.4-26.1-12.7v-.1c.2-1-1.9-1.8-2.1-1-2.9-1.6-5.2-3.5-6.4-5.8-.1-.2-.2-.5-.3-.8,1.9.8,3.9.3,5.1-1,1.9-2,.4-4.8.4-4.8,0,0,1.4.6,2.3.6,2.4,0,3.9-1.5,3.4-4.6-.2-1.6.8-3.4,2.3-6.1,1.8-3.2,2.8-7.1.2-11.2-2.4-3.9-7.4-4.4-7.4-4.4,0,0-1.4-5.9-6.1-8.6-4.8-2.7-12.5,0-12.5,0-2.5-4-5.4-5-11.5-5-7.3,0-12.6,6-13.4,10.1-.9,4.2.7,5.3.4,6.5-.3,1.1-3.4,2.1-5.4,7.3-2.8,7.1.4,11.8,2.4,15.1,2,3.2,3.2,4.6,5.4,6.2,4.6,3.5,9.8,1.6,9.8,1.6,0,0,.7,2.9-1.3,4.9-.7.7-3,2.2-5.8,4-1-.4-1.8.2-2.1,1.3-4.8,3-10.1,6-10.1,6,0,0-8,5.4-11.4,9.7-2.5,3.2-7.8,12.1-9.2,22.1-3.4,23.8.5,39.6.5,39.6l5.9,2.1s-2.2,64.7.6,77.1l3.4,44s1.4.5,4.2,1.2c1.3,13.4,5,51.7,5.4,55.4.7,5.5-9.6,8.4-12.2,9.1-6.1,2.1-8.9,2-13.5,5.6-4.5,3.6-1.8,9.3,3.5,9.3h45.1v-14.3l2-60.2c3.6.3,7.5.6,11.6.7-.7,11-.6,26.2,0,37.1.6,8.8-.4,16.7-1.4,22.2,0,0-1,2.1-1.9,6.9-.9,4.9-.8,7.5-.8,7.5h41c6.7,0,9.8-2.4,9.8-6s-7.2-6.9-12-8.8c-1-.4-1.4-.2-1.7.3-4-1.1-11.1-3.7-12.2-7.5-.8-2.9,9.1-40.8,12.5-53.4,7.5-1.3,10.5-2.9,10.5-2.9,0,0,2.1-23.5.7-44.2,0,0-2.3-36-3.9-49.6-.1-1-.3-2.4-.5-4,7.6-5.9,32.5-26,29.6-35.7l.3.1ZM196.4,143.4c2.3,0,3,16.4,3,16.4l-2.6,1.2c-.9-9.5-1.4-17.5-.4-17.5v-.1Z"/>
    </clipPath>
    <clipPath id="clippath-2">
      <path class="cls-16" d="M402.9,119c-1.4-3.1-16.7-25.2-28.8-33.9-12.1-8.7-18.4-8.1-18.4-8.1l-3.4-.5v-.7c0-.5-.4-1-1.4-1h-1.4l.7-3.9c4.5-5.4,5.1-5.9,4.9-8.9-.2-2.4-.8-7.3-.8-7.3,4-1.9,5.6-2.8,4-4.8-1.6-1.9-5.9-6.7-5.9-6.7.1-7.4-5.5-12.2-7.5-13.6,4.6-2.5-9.5-4.5-14.5-3.3-3.8.9-4.9,2.8-4.9,2.8,0,0-5.6-1-8.5,3.8-2.9,4.8-1.7,8.4-1.7,8.4,0,0-1.3,1-1.4,1.1-.7.5-1.1,1.1-1.6,1.9-.9,1.6-1.4,3.5-1.3,5.4.1,2.6,1.3,5.1,3.2,6.8-.9,1.8-.9,4.1.1,5.9.5,1,1.4,2.1,2.6,2.3.5,0,1.3.2,1.7.5.6.4.8,1.3,1,1.9.3.8.8,1.6,1.6,1.8h1.2c1.1,0,1.3,2.4,2.6,1.8.6-.3.9-1.4,1-2l-.6,5.6h-.9c-.6,0-.9.4-1,.8-.2.4-.6,2-.6,2,0,0-1.8,0-3.8.5-2.9.2-7.6,1.1-15.2,3.9-7.4,2.7-13.6,10.8-19.2,19.5-.1.2-.2.3-.3.5-16.1,31.9-17.3,63.8-17.3,71.7s.6,15.1,1.9,22.4c0,0,1.2,12.2,5.6,27.2s9.6,15.9,15.9,14.6c.5,6.7,1.1,14.1,2.1,21.9,4.8,39.9,16.8,75.7,16.8,75.7,0,0-.7.3-1.4.8s-1.4,1.1-.8,2.5c.3.8,1.1,2.3,1.8,3.7-1.2.9-1.8,2.8-2.5,5.2-2,3-18.9,2.8-23.4,9.4-2.1,3.1-.3,6.5,1.4,7.5h50.3s1.4-4.5,1.4-6.9c0-5.4-.8-16.2-.8-16.2h.3s2.1-.3,2-3.1c-.3-14.8-1.6-83.9,1.6-107.1,0,0,6.4,34.3,7.8,47.5,0,0-1.9,49.3-1.5,60.4,0,1.3.9,2.4,2.2,3.2,0,0-3.3,12.6-2.4,17.5.8,3.8,4.7,4.5,4.7,4.5h35.5c6.6-1.7,7.6-6.2,4.5-9.7-4.2-4.7-15.6-4.1-18-10.3,0,0,1.9-1.8,2.9-5.6.2-.8-.3-1.3-.9-1.9,3.6-13.9,11.1-43.9,14.3-59.4,2.5-12.2-3.9-46.3-9.6-71.9,2.5.2,5.3-.5,7.8-2.3,5.5-3.9.1-11.1,2.4-13.2.9-.8,3.1-2.7.4-7.2-.7-1.2-1.4-2.3-2-3.3,3.2-4,13.3-17.1,17.2-30.6,4.7-16.1-.2-26.5-1.6-29.6l-.1.1ZM374.1,130.9l3.6,10.4c-.8,5.5-7.5,13.5-7.5,13.5l3.9-24v.1Z"/>
    </clipPath>
    <clipPath id="clippath-3">
      <path class="cls-16" d="M551.5,174.1c.4-.8.8-1.7.4-2.5-.5-1.3-2.5-1.8-2.6-3.2,0-1.1,1.3-1.8,1.8-2.8.6-1.2,0-2.6-.6-3.9-2-4.5-2.5-9.4-2.5-14.3,0-2.4.4-5,.3-7.4-.1-2.3-.9-4.9-1.6-7.1-.8-2.4-1.1-4.6-.7-7.1.4-2.4,1.2-4.8.9-7.2-.5-2.9-2.9-5.9-4.9-8-2.3-2.5-2.5-5.8-3.5-9-1.5-4.3-4.3-8.2-7.9-11-2-1.5-4.2-2.7-6.6-3.5-2.1-.7-16.9-3.7-16.9-3.6.6-2.3,1.3-5.3,1.3-5.3,0,0,6.4.8,11.4,1.4,1,.1,2,.2,2.8-.2.9-.5,1.4-1.5,1.8-2.5,1.4-3.4,2.8-6.9,2.4-10.5-.1-1.2-.5-2.4-.4-3.6,0-1.5,1.2-2.9,1.8-4.4.8-2,.4-4-1-6-.5-.8-1.5-1.6-1.8-2.5-.3-1,.8-3.3-.4-5.8-.9-1.9-2.8-2.9-4.4-4.2-3.5-2.8-1.5-3.6-7.7-8.8-2.7-2.2-5.5-5.6-12.9-5.6s-3.6,1.3-8.9.4c-1.5-.3-3-.4-4.5-.4-2.1,0-4.2.3-6.2,1.1-2.9,1.2-5.5,2.5-6.6,5.7-.8,2.2-.8,4.6-1,7s-.4,4.8-1.5,6.8c-1.2,2.2-3.2,3.7-5,5.4-2.8,2.7-4.2,6.2-5.2,9.9-.5,2.1-.2,8.6.3,8.7,5.2,1.5,10.4,2.7,15.7,3.7,1.8.3,3.5.7,5.3,1-.3,1.4-.9,3.6-1.5,7,0,0-10-1.2-15.5,1.1-9.9,4.1-16,13.9-20.4,24.4-7.4,17.6-17.9,43.9-21.1,57.9-4.1,17.5,1.9,20,6.4,21.4,4.5,1.4,10.4,2.8,10.4,2.8,0,0-5.4,55.1-5.9,58.9-.4,2.8.4,4.1,2.5,4.7-1.8,16.6-7,63.2-7.3,69.4-.5,8,.4,10.9,9.6,13,3.1.7,6.7,1.1,10.6,1.3-1.9,9-10.6,9.8-18.8,14.2-8.7,4.7-6.9,12.7-3.1,12.7h38.5c11.7,0,7.3-4.4,7.3-7.3v-20.2c5-.4,8.4-.8,8.4-.8,0,0,2-45.4,4.4-79.3l8.2.5c1.8,33.7,3.1,78.2,3.1,78.2,0,0,2.6.9,7.1,1.8-.2,2.1-.8,4.8-2.5,7.5-3,4.9-10.6,5-12.4,13.2-.9,4,2.4,6.3,2.4,6.3h38l-.8-25.5c10.6-.6,15.3-2.6,16-7.7,0,0-4-46.4-4.8-71.6v-3.6c-.2-5.8-.4-11.7-.5-17.5,0-2.5-.2-5-.2-7.6,3.4-1.4,5.9-8.6,6.4-21.8.6-20.6,1.8-23.8,1.8-23.8.9-.8,2-1.6,2.4-2.8.6-1.8-.9-3.8-.4-5.7.2-.8.8-1.6,1.2-2.3l-.4.5Z"/>
    </clipPath>
    <clipPath id="clippath-4">
      <path class="cls-16" d="M1173.2,350.1c-10-5.8-13.6-3.4-19.2-12-1.2-1.8-2.1-3.6-2.7-5.2.3-.1.7-.2,1-.4,6.2-2.3,1.2-26.4,1.2-26.4,0,0-1.5-31.4,0-44.5,1.4-12.1,2.7-35.8,2.9-39.4,1-.8,1.9-1.7,3-2.7,0,0,4.3-10.8,2.1-21.6l1.2.2s2.3-.9,1.6-2.1c1.8-.7,7.6-3.3,8-8.6.2-2.2,0-15.3,0-15.9,0-3.3.2-6.7.1-10,0-3.4-.1-6.8-.3-10.2-.2-3.1-.2-6.4-1.5-9.3-1.1-2.4-3-4.4-3.9-6.9-1.3-3.5-.7-7.7-2.6-10.9-1-1.7-2.6-2.9-4-4.2-.7-.7-1.4-1.4-2-2.3-.6-.8-.8-1.7-1.2-2.5-1.5-3.1-3.1-6.2-5-9.1-2.3-3.6-5.1-6.9-8.2-9.8-3.8-3.3-8.2-5.9-12.9-7.6-1.5-.4-2.9-.6-3.9-.7,0-.3-.2-.5-.3-.7-.3-.5-1.9-.6-1.9-.6l-1.9-10.8v-10.6c.2-1.6,1.7-.7,3.2-3.7,1.6-3,3.4-11.5-3.3-12.9.2-2.6-1.7-7.2-2.2-8.2-.7-1.2.9-3.7-.1-6.5s-3.1-1.5-3.1-1.5c0,0-.1-1.7-1.5-2.7-2-1.4-3.5,0-3.5,0,0,0-2.9-4.3-8.6-4.3s-3.5.3-5.2,1.2c-3.1,1.7-4,4.3-4.4,6.3s-1.6,2.1-1.4,4.7c0,0-1.5-.6-3.3,1.9s-1.9,13.3-1.3,15.4c-1.1.6-2.7,2.2-1.6,7,1.5,6.8,5.5,8.3,7.8,8,0,0,1.3,5.5,2.3,7.4.6,1.1-.1,4.9-.6,7.2-.5,0-1,0-1.3.2-2.4.3-7.1,1-10.6,1.8-13.9,3.4-17.8,5.8-19.7,9-5,8.4-14.5,25.5-17.9,38.4-1.8,6.7-1.9,13.6-4.2,20.2-.8,2.1-1.7,4.3-1.6,6.5,0,2.5,1.4,4.8,1.5,7.3,0,2.8-1.1,5.2-.4,7.9.7,2.6,2.5,4.5,4,6.6,2.7,3.8-1.3,11.5,6,13.6,0,0,0,.5.6,1.5.6,1.1,1.9,1.7,4,.4l5,8.4c-2.7,5,2.2,11.8,5.1,24,3.5,15.1,12.9,69.3,15.4,82.3,2.5,12.9,1.2,19.1,6.3,21,1.2.4,2.8.7,4.7.8-3.8,9.8-16.6,14.2-23.8,18.7-8,4.9-3.7,10.5-3.7,10.5h51.7l-2.1-33.6c.2,0,.3-.1.5-.2,10-4.5.9-9.7.9-9.7,4.9-6.2-2.6-8.2-3.1-11.9s-6.3-44.5-5.8-57.7c.5-13.2.8-18.2,2-14.2s9.9,45.9,12.9,67.5c3.1,21.6-.6,32.8,3.8,34.5.8.3,2,.4,3.5.3v25h41c4.7,0,12.7-8.1,2.7-13.9l-.2.3ZM1144.1,184.5c-.6,2.8-.8,5-.9,6.5-.2,0-.3,0-.4.1v-19.8s4.3-.5,1.3,13.2ZM1124.6,87h0ZM1067.2,162.3c-.2-6.9.2-7.4,1.6-7.4s2,27.1,2.1,33.8l-1.6-1.5c.3-.6.5-1.2.5-1.7,0-1.4-1.1-2.1-1.1-2.1-.3-3.4-1.4-15.4-1.6-21.2l.1.1Z"/>
    </clipPath>
    <clipPath id="clippath-5">
      <path class="cls-16" d="M1085.5,351.6c-13-5.8-14.4-13.9-14.4-13.9v-39.4c9.1-.6,15.1-1.2,15.1-1.2,0,0,.8-7.1,1.6-21,.7-13.9-1.5-61.9-6-75.7-4.1-12.4-11.4-32.9-12.8-36.8,3.6.5,7.8-1.6,9.3-5.5,4.8-12,14.2-37.8,12.2-48.7-1.6-8.8-12.2-18.2-20.4-24.3.9-2.5.7-5.3.3-7.9-.2-1.8-.7-3.5-.8-5.2-.1-2-.7-4-1-5.9-.3-1.9-.7-3.8-.9-5.7-.2-1.4-.7-3-.6-4.5,0-1.2.1-2.3,0-3.6-.4-2.8-1.2-5.6-2.5-8.1-5.2-9.7-12.1-16.9-21.4-14.9,0,0-1.3-5.4-12.2-3.1-10.9,2.3-15.2,17.4-14.1,25.7,1.1,8.3,4.4,16.4,3.5,22.5-.9,6.1-5.7,10.3-3.6,13.3-5.7,3.6-10.9,5-17.2,23.6-6.3,18.6-9,26.6-7.3,31.3,1.9,5.1,7,14.6,19.8,19.6-4.4,8.5-12,26.4-17,55.5-8.9,51.5-8.5,75.2-8.5,75.2,3.9,3.2,12.5,5.1,23.1,6,.7,5.1,1.4,10.2,2,14.7l2.3,25.5s-.9,4.7-8.3,9.3c-5.8,3.6-10,4.8-12.1,7.8-3.2,4.5,1.9,7.7,4.6,7.7h10.5c7.9,0,15.2-4.5,15.2-4.5l1.2,4.5h11.1l.3-24.5s1.4-26-2.6-25.9c.3-4.2.6-9,.8-13.8,4.2,0,8.5-.1,12.6-.2.4,5,1,10.2,1.5,15.6l1.6,23.6-.5,25.2h10.5l2.2-4.2s5.4,4.2,9.8,4.2h12.9c6.7,0,9.9-8.1.5-12.3h-.3Z"/>
    </clipPath>
    <clipPath id="clippath-6">
      <path class="cls-16" d="M737.2,154.3c-.6-1.1-1.3-2.2-1.4-3.5,0-1.2.6-2.2,1-3.3.6-1.7.4-3.6,0-5.3-.4-2-1.1-4-1.7-6-.5-2.1-1.1-4.2-1.7-6.3-1.3-4.6-2.7-9.3-4-13.9-4.9-16.2-9.8-18.5-14.7-21.4-4.9-2.9-14.1-6.5-12.9-9.6,1.2-3.2-2-5.9-5.5-5.9h-6.2c0-2.3,1.1-3.2,4.3-6.4s3-9.7,3-9.7c2.3.2,5.3-2.6,4.3-4.3-.6-1-1.4-2.4-1.9-3.4.2-2,0-3.9,0-5.9v-.7c-.2-.6-.9-.6-1.1-.1-.1.3-.1.9-.2,1.3-.1,0-.3,0-.5-.1v-.1c.2-1.3.1-3,0-4.7.3-.3.6-.6.8-1,.4-.7.5-1.6.4-2.4v-.7c0-.2.3-.4.5-.6,1-.8,1.7-2,2.1-3.2.2-.5.4-1.9,0-3.8-1.7-7.1-9.4-7.6-14-5.9-2.6-1.6-9.6-2.4-12.7,1.2-3,3.6-2.5,3.5-5.5,3.2-3-.3-7.2,1.4-7.4,8.6,0,0-4.5,4.4-4.2,9.7.3,5.3,1.7,5.8,2.2,10,.5,4.2.2,14.4,6.8,16.5,0,0-6.2-2.3-11.1,1.2-6.5,4.6-4,9.1-4,9.1,0,0-5-.2-12.7,2.8-3.6,1.4-6.8,5.6-10.2,11.1-11.1,17.8-16.7,37.5-19.4,49.4-2.7,11.9,3.7,14.1,3.5,20.3-.2,6.2,8.7,17.9,7.7,26-1,8,5.1,7.6,5.1,7.6-.1,6.6,3.8,6.6,3.8,6.6,0,4.4.3,16.5,3.2,17.4,0,0-1.9,30.8,0,37.1,1.9,6.3-1.4,6-1.2,17.3.2,11.4-2.7,46.2-2.5,57.5-4,2.3-9.2,7.5-12.4,9-4.5,2.1-13.1,2.2-15.7,6.6s2.3,8.7,2.3,8.7h44.6c7.4,0,7-9,6-15,0,0,4.5-7.6,1.2-10.6,0,0,1.8-32.9,6.6-58.6s6.5-35.4,9.2-35.5c1.5,0,3.3,38.9,3.3,38.9l5.6,65.9s-.9,2-1.5,7.7c-.5,5.3,1.2,7.3,3,7.3h35.6c7.7,0,9.2-7,4.3-11.6-2.8-2.6-12.8-3.5-15.9-5.1-.8-.4-2.5-1.8-4.3-3.3.4-.1.7-.2,1.1-.4,2.1-.7,2.4-.5,2.7-5.3.3-4.8-.3-6.6-1.9-6.8,0,0,2.2-33,4.2-45.5s4.8-58,4.8-58c0,0,5.4-2.2.8-18.3,0,0,8.5-6.7,14.6-17.4.4-.4.7-1.2.9-1.8,1.8-3.7,3.1-7.6,4.2-11.5.6-2,1.1-4,1.5-6,.2-.9.4-1.9.7-2.9s.3-1.8.3-2.8c0-1.1,0-2.2.4-3.2.5-1,1.5-1.7,2.1-2.7.7-1,1-2.3.9-3.6,0-1.3-.5-2.5-1.1-3.6l-.1-.3ZM698.3,51.6c.2.2.1.6.2.9,0,.5,0,.7.1,1-.3-.4-.7-1.1-.8-2.2.2,0,.4.2.5.3Z"/>
    </clipPath>
    <clipPath id="clippath-7">
      <path class="cls-16" d="M878.7,182.1c-2-6.7-5.8-15.7-7.1-20.6s-12.2-36-12.2-36l2.5-.4s-.3-2.3-1-5.7v-.3c-.1-.5-.2-1-.3-1.6-.9-4-2.4-9.1-4.6-13.8-.1-.3-.3-.6-.4-.8-.3-.6-.6-1.2-.9-1.7-1.6-2.9-3.6-5.6-5.9-7.7,0,0-2.4-1.3-6.3-3-.8-.3-1.6-.7-2.5-1h-.1c-1.3-.5-2.7-1-4.2-1.5,2.7-.5,5.2-1.9,6.6-4.2,1.4-2.5,1-6.1-1.4-7.8,2.3-.5,3.1-3.5,2.6-5.8s-1.9-4.4-2.2-6.8c-.2-1.9.3-3.9.3-5.9s-1-4.2-2.9-4.7c1.5-.4,2.3-2.1,2.1-3.6s-1.2-2.8-2.3-3.8-2.4-1.9-3.4-2.9c-2.4-2.4-3.5-5.8-5.6-8.5-1.5-2-3.6-3.5-6-4.4-2.1-.8-4.3-1.2-6.6-1-2.2.2-3.3.4-5.1-.8-3.7-2.4-8.6-2.8-12.1.1-2.2,1.8-3.5,4.6-5.9,6.3-1.5,1.1-3.3,1.6-4.6,2.9-1.3,1.3-1.6,3.8,0,4.7-2.2-.3-4.3,1.4-5.2,3.5-.9,2-.9,4.3-.8,6.6,0,2.2.2,4.5-.6,6.6-1.4,3.8-5.5,6.7-5.4,10.8,0,3.7,3.7,6.6,3.8,10.4,0,2-1,3.8-1.3,5.7-.4,2.8.9,5.7,3.2,7.3l-7.6,12.3c-.3.4-.5.8-.8,1.3l-7.8,12.7-1.3,2.1-1.3,2.1c-.1,2.7,4.6,8.6,9,13.6v7.7c0,5.8-.2,11.7-.7,17.5-.6,7.3-1.2,15.2-3.2,22.2-1.4,4.9-3.3,9.6-4.2,14.6s-.6,10.4,2.1,14.7c1.1,1.7,2.8,3.2,4.7,3.5-4.7,22.6-9.3,44.8-10.7,51.8-3.1,15.7-11.2,66.7-11.2,66.7,0,0,3,4,15.8,7.1-1,.9-2.2,1.8-3.5,2.7-7.2,4.9-23.8,6.6-23.8,13.4s2,5.5,2,5.5h46.4l3-18.5c2.3.1,4.7.2,7.2.2l12.6-121.3s-.9,31-.5,50,4.8,52.4,5.6,58.5c.5,3.5.9,6.9,1.4,10.4v.5s4.8.6,12,.8c0,1.3-.6,4-4.8,7.7-5.8,5.2-3.5,11.6-3.5,11.6h30.5c2.3,0,2.1-16.2,2-19.8,6.2-.6,12.6-1.6,18.5-3.2,0,0-16-74.2-18.2-82.7-2.3-8.5-2.6-19-3.9-31.4-.4-4.1-1.4-8.7-2.5-13,12.7-3.1,37.4-9.3,38.4-11.1,1.4-2.3-4.1-13.9-6.1-20.6l.2-.2ZM853.2,147.8c-.3.1-.7.2-1.1.3,3.5-10.4,4.1-22.2,4.1-22.2l6.3,19s-3.1,1-9.4,2.9h.1Z"/>
    </clipPath>
  </defs>
  <g class="cls-11">
    <g id="Layer_2" data-name="Layer 2">
      <rect class="cls-15" width="1186.3" height="375.5"/>
    </g>
    <g id="Layer_1" data-name="Layer 1">
      <g class="cls-22">
        <path class="cls-4" d="M48.6,339.3c0,3.9-5.2,6-9.8,8.1s-7.6,3.5-11.3,7.1c-3.2,3.2-2.4,9.4-2.4,9.4h49.7s4.5-13.4,0-25.2c-3.3-8.7-4.9-12.7-4.9-12.7l-21.4,13.2h0l.1.1Z"/>
        <path class="cls-4" d="M90.3,341.7s-2.5,4-3.4,9.6c-1.4,9.8,2,12.7,2,12.7h38.4s7.1-12.2-8.3-19.3-6.8-26.3-6.8-26.3l-22,23.3h.1Z"/>
        <path class="cls-1" d="M43.8,206.7h77.1s.7,4.5.4,13.2c-.5,14.2-1.1,36.1-1.1,40.6,0,7.3,4,11.7-1.1,15.9,0,0,2.6,5.5.9,13.2-1.3,5.8-5.6,40.8-5.4,52,0,0-13.4,2.7-27.2.5,0,0-3.2-35.1-3.9-53.8-.7-19.7-1.7-59.9-1.7-59.9,0,0-5.8,22.2-6.4,31.6-.6,9.4,5.7,13.8,4.1,19.1-2.4,8.1,2.2,7.8.1,12.9s-4.1,12.2-1.1,23.2.9,15.3-.9,16.9,3.7,5.8,1,10.5-24,1-30-3.4l-13.1-123,8.3-9.7h0v.2Z"/>
        <path class="cls-23" d="M63.5,78.3c9.8-4.5,14.7-11.9,14.7-11.9l25.5,20.6,1.4,126.5s-33.4,8.1-50.6-2.6c-17.2-10.7-13.5-68.4-13.5-68.4l22.4-64.3.1.1Z"/>
        <path class="cls-1" d="M76.2,178.2s4.4,1.8,8.2,4.4l5.5-4.2,11,17.6s1.3,2.6-.7,4.3c-3.8,3.3-6.3,4.7-12,7.7-9.6,4.9-19,2.6-18.5-3l-7.5-5.5,14.2-21.3h-.2Z"/>
        <path class="cls-4" d="M63.5,78.3s-22.5,7.5-35.5,20.4-18.2,52.4-16.6,63.4,7,19.3,10.5,22.6c5.5,5.1,2.9,21.6,6.6,32.5,3.4,10,13.4,7.7,32-11,0,0,5.7,3.2,7.8-2,0,0-3.3-1.9-.4-9.7s8.2-16.2,8.2-16.2l-5.3-2.7s3.1-35,2.7-55.9c-.5-21.8-.2-37.8-10.1-41.3h0l.1-.1Z"/>
        <path class="cls-4" d="M97.6,78.3v89s-6.8,7.5-8.7,9.8-.5,4.4-.5,4.4l11.8,18.9s-1.9,19.4,21.1,19.4l.4-24.7s14.5-21.5,17.4-27.9-5.7-37.8-14.6-57-26.9-31.8-26.9-31.8h0v-.1Z"/>
        <path class="cls-1" d="M69,71.4v3.8s3.9,8.7,15.1,10.7,15.5-4.9,15.5-4.9c0,0,4.2-15.9,5.6-20,1.9-5.5-.4-10.5-.4-10.5,0,0,3.6-5,2-12.9s-11.6-12.1-19.5-10.2-19.5,18.6-19.5,18.6l1.3,25.5h0l-.1-.1Z"/>
        <path class="cls-23" d="M86.2,31.2v.2c.3,1,.4,2.1.1,3.1-.2.7-.6,1.3-1.2,1.8-.7.6-1.3,1.2-1.6,2.1-.2.8,0,1.7.2,2.5.1.7.1,1.4-.2,2-.6,1.1-2.1,1.4-2.7,2.5-.5.9-.2,1.8.4,2.5.4.7,1.1,1.7.2,2.3-1.7,1-4.7-.3-4.5-4.1s-5-.2-4.1,5.7c.8,5,3.3,3.9,3.3,6.4s-2.2,9.2-5.7,11.1c-1.6.8-1.5,3.5-1.5,3.5-2.8,0-1.6-4.7-3.1-9.8s-4.5-12.1-1.1-20.7,9.9-14.9,13.6-14.9,3.7,1.1,3.7,1.1c0,0,2.5-3.4,5.4-2.8s1.9,4-1.3,5.4h0l.1.1Z"/>
        <path class="cls-23" d="M103.7,62.9c-2.6-1.6-3.4-2-5.4-2.7-5.4-1.7-10.4-2.6-13.1.5s-.4,13.3,1.6,17.8,3.7,5,5.3,5.6,0,3.4,5.4,2.5c2-.3,3.8-3.7,5.5-4.1s3.3-4.1,1.8-8.3,2.8-8.9-1-11.3h-.1ZM98.2,68l-5.3-4.7c.2,0,6.1,1.6,6.1,1.6l-.8,3.1h0Z"/>
        <path class="cls-4" d="M94.3,43.1c-2.5-.5-4.6,1.4-5.1,4.5s1.2,5.6,4.4,5.4c1.7-.1,3.3-2,3.8-4.2.6-2.4-.4-5.2-3.2-5.7h.1ZM95.7,48.4c-.3,1.3-1.1,3.1-3.1,2.8-1.5-.2-2.1-1.4-1.8-3.2s1.6-3.7,3-3.4c2,.4,2.2,2.6,1.9,3.8h0Z"/>
        <path class="cls-4" d="M97,48s3.6-.5,5.2,1.4v1.2s-2.8-1.8-5.6-1.2l.3-1.4h.1Z"/>
        <path class="cls-4" d="M106.1,46.4c-1.8-.4-3.5,1-4,3.5s.7,5,3.6,4.9c3,0,4.2-7.5.4-8.4ZM104.9,53.2c-3.1-1-.8-5.5.4-5.5,2.7,0,2.3,6.3-.4,5.5Z"/>
        <path class="cls-1" d="M62.6,108.9c.4-.5,2.1-2.4,1-2.9-1.2-.6-4.9,5.1-7.2,8.8-.8,1.3-1.6,3.6-1.2,5.1.3,1.3,1.3,2.5,2.4,3.3s2.4,1.3,3.7,1.8c-1.3,3.3-2.7,6.7-4,10-.8,1.9-1.5,4-1,6,.8,3.2,4.6,4.7,5.9,7.6,1.5,3.5.7,7.5,2.5,7.5,1.3,0,1.8-4-.6-9.4-1.3-3-5.1-3.9-5.4-7.2-.3-2.8,2.3-7.2,3.2-9.9s3-6.2-.6-7.4c-2.2-.7-5-2.8-2.9-6.7.6-1.2,3.1-5.4,4.1-6.8h0l.1.2Z"/>
        <path class="cls-1" d="M106.8,142.4h0c1.2,1.9,3.9.5,2.6-1.6s-3.9-.5-2.6,1.5h0v.1Z"/>
        <path class="cls-1" d="M106.8,154.3c.9,1.8,4.1.5,3.1-1.6s-3.9-.2-3.1,1.6Z"/>
        <path class="cls-8" d="M111.6,29.6c-9.4-14.8-32.6-16.6-46.3-5.5-13,10.6-17.1,30.7-9.2,45.5C29.8,83.2,6.3,106.4,1.1,135.7c-3.2,18.5,1.1,37.3,5.5,55.5,6.8,27.7,14,55.3,21.6,82.8,3,10.8,6.1,21.8,6.8,33s-1.2,22.9-7.5,32.3c-5.6,8.2-14.8,16.6-11.7,26,2.7,8,12.7,10.5,21.1,11.6,14.5,2,31.1,3.4,42.1-6.2,11.9,4.6,24.5,9.3,37.1,7.1,12.6-2.2,24.3-14.2,21.3-26.6-1.4-6-5.8-10.7-8.1-16.4-3.6-9-1.5-19.1,1.7-28.2s7.5-18,8.5-27.5c2.6-24.5-17-48.6-10.3-72.3,3.2-11.5,12.2-20.5,16.5-31.6,5.2-13.4,3.1-28.6-1.3-42.3-5-15.7-12.9-30.4-23.2-43.2-3.3-4.1-7.5-8.2-8.6-13.6-1.5-6.8,1.9-13.8,3.1-20.5,1.5-8.8,1-18.2-4-25.9h0l-.1-.1Z"/>
      </g>
      <g class="cls-17">
        <path class="cls-4" d="M117.2,279.8s5.3,55.6,5.9,60c.7,5.5-9.6,8.4-12.2,9.1-.8,1.5-3.2,3.1-3.2,3.1l.8,8.2,37.4-5.8,2.8-86.6-31.5,12h0Z"/>
        <path class="cls-4" d="M194.1,284.5s-14.6,53.9-13.6,57.4c1.6,5.4,14.9,8.2,14.9,8.2l-12.6,10.6-26.4-3s4.3-13.7,3.3-30.4-.7-43.1,1.7-50,32.7,7.2,32.7,7.2h0Z"/>
        <path class="cls-1" d="M146.1,349.6v14.3h-45.2c-5.2,0-8-5.7-3.5-9.3s7.4-3.6,13.5-5.6c2.2,5,5.5,7.1,17.2,5.7,11.7-1.5,18-5,18-5h0v-.1Z"/>
        <path class="cls-1" d="M158.3,349.5s-1,2-1.9,6.9-.8,7.5-.8,7.5h41c6.7,0,9.8-2.4,9.8-6s-7.2-6.9-12-8.8c-3.8-1.5,1,5-10.6,6.1s-25.5-5.7-25.5-5.7h0Z"/>
        <path class="cls-1" d="M110,239.3l3.4,44s18.4,6.3,49.1,7c30.6.8,41.1-4.7,41.1-4.7,0,0,2.1-23.5.7-44.2s-67.1-19.4-67.1-19.4l-27.1,17.2h0l-.1.1Z"/>
        <path class="cls-23" d="M199.4,159.8l-5.5,2.4,3.8,27.3s35.2-25.9,31.7-37.3-19.6-11.4-19.6-11.4l-10.4,19.1h0v-.1Z"/>
        <path class="cls-23" d="M123.6,88.6s15.9-9.2,17.9-11.2,1.3-4.9,1.3-4.9l-9.5-2.7-.5-28.2,29.5-5,7.6,16.5s-4.7,13.8-2.2,18.7c4.8,9.2,27.7,11.5,34.5,19.5,5.2,6.1-52.2,18.9-52.2,18.9l-29.4-15.4,3-6.2h0Z"/>
        <path class="cls-4" d="M123.6,88.6s-2,5.4,18.1,6.3c20,.9,48.4-6,57.8-4.6s14.7,18.7,20.2,32.8,9.6,29,9.6,29l-30,7.7s-.7-16.5-3-16.4,2.9,39.7,3.9,48.5c1.7,13.6,3.9,49.6,3.9,49.6,0,0-87,4-94.2-2.2-2.8-12.4-.6-77.1-.6-77.1l-5.9-2.1s-3.9-15.9-.5-39.6c1.4-10,6.7-18.9,9.2-22.1,3.4-4.4,11.4-9.7,11.4-9.7h0l.1-.1Z"/>
        <path class="cls-1" d="M155.1,30.7s7.8-2.7,12.5,0,6.1,8.6,6.1,8.6c0,0,4.9.5,7.4,4.4,2.6,4.1,1.6,8-.2,11.2-1.5,2.7-2.5,4.5-2.3,6.1.4,3.1-1,4.6-3.4,4.6-.8,0-2.3-.6-2.3-.6,0,0,1.5,2.8-.4,4.8-2.4,2.5-7.5,2-10-4.9-1.9-5.2,1.4-10.4,1.4-10.4,0,0-2.8-.8-2.7-3.4,0-2,1.6-4.5.1-6-.6-.6-1.6-1-1.9-1.8-.6-1.2-.5-2.8-1-3.8-.8-1.6-3.7-2.1-5.1,1.4-.7,1.6-1.6,3.1-4,1.8-.2,1.2-3.8,3.9-6.3,1.3,0,0-1.6,5.2-7.5,2.4,0,0-1.8,4.1.6,7.8.8,1.3.6,4.1.3,6.1-.2,1.3,0,3.7.7,5.4,1.1,2.6,3,6,5.6,6.7,0,0-5.2,1.9-9.8-1.6-2.2-1.7-3.4-3-5.4-6.2s-5.3-8-2.4-15.1c2.1-5.2,5.1-6.2,5.4-7.3s-1.3-2.3-.4-6.5,6.1-10.2,13.4-10.1c6.1,0,9,1,11.5,5h0l.1.1Z"/>
        <path class="cls-1" d="M145.6,51c1.2,0,1.5,2,.6,3.8s-1.4,2.7-1,3,2,.5,1.8,1.7-3,.9-4-.9c-.5-.9.5-2.5,1.2-4.1.8-1.7,1.3-3.4,1.3-3.4h0l.1-.1Z"/>
        <path class="cls-1" d="M135.7,81.3s1.9,21.7,7.9,32.6,16,2,20.8-7.2c5-9.8,7.8-20.8,9.8-29.2.2-.8,2.3,0,2.1,1-.6,2.5-8.1,38.5-23.2,42.5-6.5,1.7-11.2-1.5-15-14.6-2.8-9.5-4-20.2-4.2-21.6,0-.6-.1-1.6,0-2.1.2-1.1,1-1.7,2.1-1.3h0l-.3-.1Z"/>
        <path class="cls-7" d="M180.4,73c9.9-5.8,14.2-18.9,11.5-30.1-2.7-11.2-11.5-20.3-21.8-25.4-15.1-7.5-34.6-6.8-47.7,3.7-13.2,10.5-17.9,31.1-8.7,45.3,1.5,2.4,3.4,4.6,4.2,7.3,1.8,6.2-2.6,12.5-6.7,17.5-13,16.3-25.3,36-22,56.6,2,12.5,9.7,23.5,12.7,35.9,3,12.1,1.4,24.9.5,37.3-1.3,19.1-.9,38.4,1.4,57.5,1.2,9.8,2.8,19.7,2.2,29.5-.6,9.9-3.8,20-10.9,26.8-4.9,4.7-6,12.5-6.9,19.2s.7,14.2,5.9,18.5c6.2,5.2,15.2,4.5,23.2,3.8,20.9-1.9,41.9-2.5,62.9-1.8,8.7.3,17.8.7,25.7-3s13.8-13.2,10.5-21.2c-2.5-6.1-9.3-9.3-13.2-14.7-5.2-7-4.8-16.9-2-25.2,2.8-8.3,7.6-15.8,10.8-24,11.1-28.2,1.5-60.9,10.2-90,3.4-11.3,9.4-21.6,13-32.8s4.4-24.2-2.1-34c-4.8-7.1-9.9-13.9-13.2-21.8s-5.4-16.5-10.7-23.2c-6.2-7.9-18.9-13.2-28.8-11.7h0Z"/>
      </g>
      <g class="cls-20">
        <g class="cls-21">
          <path class="cls-4" d="M289.9,192.4s-2,26.9,2.7,66.8c4.8,39.9,16.8,75.7,16.8,75.7,0,0-.7.3-1.4.8s-1.4,1.1-.8,2.5,2.8,5.8,2.8,5.8l25.7-3.1s2.1-.2,2-3c-.3-14.8-1.6-83.9,1.6-107.1,0,0,6.4,34.3,7.8,47.5,0,0-1.9,49.3-1.5,60.4.3,7.8,26.5,5.3,26.5,5.3,0,0,1.9-1.8,2.9-5.6.2-.8-.3-1.4-.9-1.9,3.6-13.9,11.1-43.9,14.3-59.4,4.3-20.6-17-103.1-17-103.1l-79-4.1-2.4,22.5h-.1Z"/>
          <path class="cls-23" d="M291,187.3s14.8,10.6,33.4,9.8l5.1-6s6,6,8.9,6,40.8-16.5,40.8-16.5l-63.4-3.8-24.8,4.8v5.7h0Z"/>
          <path class="cls-1" d="M402.9,119c-1.4-3.1-16.7-25.2-28.8-33.9-12.1-8.7-18.4-8.1-18.4-8.1l-13.8,8.1-13.3-1.1-5.5-6.1s-3.4-2.4-19.4,3.5c-7.4,2.7-13.6,10.8-19.2,19.5-.1.2-.2.3-.3.5-16.1,31.9-17.3,63.8-17.3,71.7s.6,16.2,2.3,24.1l21.5-2.9,2.5-8.4s13.3,2.3,38,1.5,54.9-6.9,54.9-6.9c0,0,13.5-15.7,18.2-31.8s-.2-26.5-1.6-29.6h0l.2-.1ZM370.1,154.9l3.9-24,3.6,10.4c-.8,5.5-7.5,13.5-7.5,13.5h0v.1Z"/>
          <path class="cls-4" d="M269.1,195.4s1.2,12.2,5.6,27.2c4.4,15.1,9.6,15.9,15.9,14.6l3.7-45.1-25.2,3.3h0Z"/>
          <path class="cls-4" d="M367.6,165.7c2-1.4,12.2,4.5,14.8,6.9s4,5.2,6.9,9.9.5,6.4-.4,7.2c-2.3,2.1,3.1,9.3-2.4,13.2-6.2,4.4-13.7,2.5-16.4-4.3s-2.5-32.8-2.5-32.8h0v-.1Z"/>
          <path class="cls-4" d="M344.2,28.9s8.4,5,8.3,14.2c0,0,4.2,4.8,5.9,6.7s0,2.8-4,4.8c0,0,.6,5,.8,7.3.3,3-.4,3.5-4.9,8.9l-1,5.3-3.2,6.5-11.8,4.2-9-11.3.8-7.2-8.9-12,1.1-13.1,13.4-15.8h8.8l3.8,1.4h0l-.1.1Z"/>
          <path class="cls-1" d="M326.9,52.2s3.1-.6,3.1-2.6-4.4-9.3.6-13.6c0,0,.1-6.4,3.4-7.4s6.2,3.3,10.9.8-9.5-4.5-14.5-3.3c-3.8.9-4.9,2.8-4.9,2.8,0,0-5.6-1-8.5,3.8-2.9,4.8-1.7,8.4-1.7,8.4,0,0-1.3,1-1.4,1-.7.5-1.1,1.1-1.6,1.9-.9,1.6-1.4,3.5-1.3,5.4.1,2.6,1.3,5.1,3.2,6.8-.9,1.8-.9,4.1.1,5.9.5,1,1.4,2.1,2.6,2.3.5,0,1.3.2,1.7.5.6.4.8,1.3,1,1.9.3.8.8,1.6,1.6,1.8h1.2c1.1,0,1.3,2.4,2.6,1.8.6-.3.9-1.4,1-2,.4-2.8-.3-8-3.3-10.8s-4.5-7.9-1.4-9.5c3.3-1.7,5.5,4.1,5.5,4.1h.1Z"/>
          <path class="cls-1" d="M335.4,340.9s.8,10.7.8,16.2-1.4,6.9-1.4,6.9h-50.3c-1.8-1-3.5-4.4-1.4-7.5,4.5-6.6,21.4-6.4,23.4-9.4.9-3.1,1.5-5.3,3.7-5.8,4.2-.9,4.4,2.1,4.4,2.1l20.9-2.5h-.1Z"/>
          <path class="cls-1" d="M347.9,341.8s-3.3,12.6-2.4,17.5c.8,3.8,4.7,4.5,4.7,4.5h35.5c6.6-1.7,7.6-6.2,4.5-9.7-4.2-4.7-15.6-4.1-18-10.3-2.5-6.5-9.9-6.6-15-2-6.1.3-9.4-.1-9.4-.1h0l.1.1Z"/>
          <path class="cls-23" d="M325.5,74s5.6,8.8,9.6,9.1,14.5-8.4,14.5-8.4h1.4c1,0,1.4.5,1.4,1v.7l3.4.5s-6.4,5.9-16.1,14.8l-4-4.4h-1.3s-3.1,3.6-4.4,3.6c-2.5,0-5.3-6-6.5-7.9-1.3-2.1-2.7-4-4.5-5.7,2-.4,3.8-.5,3.8-.5,0,0,.5-1.6.6-2s.5-.8,1-.8h1.1Z"/>
          <path class="cls-10" d="M317,19.3c-16,8.2-20.9,32.1-9.6,45.9-16.1,6.3-27.9,21-34.6,36.9-6.7,16-9,33.4-11.2,50.6-3.3,25.2-6.4,51.4,1.6,75.5,3.6,10.9,9.4,20.8,14,31.3,10.4,23.8,14.4,49.8,18.3,75.5-6.4,2.9-12.9,5.8-18.1,10.5s-8.9,11.6-8.1,18.5c.9,7.6,7,13.8,14,16.9s14.8,3.7,22.4,4.3c6.7.5,13.6,1,20.1-.4s13-5,16.3-10.9c13.2,5.1,28.2,5.1,41.4.2,8.4-3.1,16.9-9.6,17-18.6.1-5.3-2.8-10.2-4.1-15.3-2.7-10.6,1.4-21.6,4.4-32.2,8.5-31,6.4-64.9-6.1-94.5,8.9-29.3,24.3-59.2,16.9-88.9-3.2-12.8-10.3-24.1-17.4-35.2-9.8-15.3-19.8-30.5-29.2-46.1-6.3-10.5-13.5-21.2-25.6-25.2-7.3-2.4-15.5-2.3-22.5,1.2h.1Z"/>
        </g>
      </g>
      <g class="cls-20">
        <g class="cls-19">
          <polygon class="cls-4" points="498.1 257 479.5 255.9 479.5 213.4 497.6 213.4 498.1 257"/>
          <path class="cls-23" d="M520.6,40.1c-3.5-2.8-1.5-3.6-7.7-8.8-2.7-2.2-5.5-5.6-12.9-5.6s-3.6,1.3-8.9.4c-1.5-.3-3-.4-4.5-.4-2.1,0-4.2.3-6.2,1.1-2.9,1.2-5.5,2.6-6.6,5.7-.8,2.2-.8,4.6-1,7s-.4,4.8-1.5,6.8c-1.2,2.1-3.2,3.7-5,5.4-2.8,2.7-4.2,6.2-5.2,9.9-.5,2.1-.2,8.5.3,8.7,5.2,1.5,10.4,2.7,15.7,3.7,2.5.5,4.8,1,7.3,1.3l8.3,1c9,1.1,18,2.3,27,3.4,1,.1,2,.2,2.8-.2.9-.5,1.4-1.5,1.8-2.5,1.4-3.3,2.8-6.9,2.4-10.5-.1-1.2-.5-2.4-.4-3.6,0-1.5,1.2-2.9,1.8-4.3.8-2,.4-4-1-6-.5-.8-1.5-1.6-1.8-2.5-.3-1,.8-3.3-.4-5.8-.9-1.9-2.8-2.9-4.4-4.2h.1Z"/>
          <path class="cls-4" d="M473.9,330.6v26c0,2.9-.2,7.3-7.3,7.3h-38.5c-3.7,0-5.6-8,3.1-12.7,9.2-5,19.1-5.4,19.1-18l23.5-2.5h0l.1-.1Z"/>
          <path class="cls-4" d="M529.8,336.2l.9,27.7h-38s-3.3-2.3-2.4-6.3c1.8-8.2,9.4-8.2,12.4-13.2,3.8-6.1,2.3-11.9,2.3-11.9l24.9,3.7h-.1Z"/>
          <path class="cls-1" d="M481,82c1.5-7.4,2.1-9.3,2.1-9.3,0,0-4.9-2.5-5.7-11.8-.8-8.6,2.8-12.5,2.8-12.5,0,0,3.4-3.7,3.8-7.6s3.3-4.3,6.6-4,7-1.9,8-5.5c0,0,0,4.9,3.5,8.3s5.1,2.1,4.3,5.8c-.4,2-.8,4.2-.5,6.3s1.1,4.1,2.5,5.7c.8,1,1.8,2,1.7,3.3-.2,1.7-1.8,2.8-2.8,4.1-1.6,2-2.3,3.7-2.7,8-.2,1.8.3,5.2.3,5.2l3.5.5s-.7,3-1.3,5.3c2,1.7.5,2.8.4,3.4-.5,2.4-2.1,4.6-2.6,7,0,.4-.1.7-.2,1.1l-16.7,12.4-11.6-17.2,4.7-8.4h0l-.1-.1Z"/>
          <path class="cls-4" d="M489.8,48.6c-.5-.6-1.3.8-2.9,2.5s-2.8,3-1.9,4.6,2.9,2,3.7,1.8c1.1-.2.9-1.4-.8-1.8s-1.6-2.1-.4-3,3.2-3,2.3-4h0v-.1Z"/>
          <path class="cls-1" d="M437.9,247.4s-7.6,67.7-8,75.2c-.5,8,.4,10.9,9.6,13,14.7,3.3,42.8,0,42.8,0,0,0,5.1-116.4,8.8-115.9,3.7.5,6.9,115.3,6.9,115.3,0,0,10.9,3.8,25.8,3.6s21.2-2,22.1-8c0,0-4-46.4-4.8-71.6s-20.5-34.4-20.5-34.4l-2.3-61.7h-68.2l-12.2,84.5h0Z"/>
          <path class="cls-23" d="M476.5,83.6l14.6,18.4,19.9-14.6-7.6,91.1s-7,2.2-9.6-4.9c0,0-2.9,3.7-7.3,3.7s-7.9-4.6-7.9-4.6c0,0-4.8,7.6-10.9.5s-12.5-35.1-12.5-35.1l21.3-54.6h0v.1Z"/>
          <path class="cls-4" d="M507.1,83.6c0-.1,14.8,2.9,16.9,3.6,2.4.8,4.6,1.9,6.6,3.4,3.7,2.8,6.5,6.6,7.9,11,1.1,3.1,1.3,6.5,3.5,9,2,2.1,4.4,5.1,4.9,8,.4,2.4-.5,4.8-.9,7.2-.4,2.5,0,4.7.7,7.1.7,2.2,1.5,4.8,1.6,7.1s-.3,4.9-.3,7.4c0,4.9.5,9.8,2.5,14.3.5,1.2,1.2,2.7.6,3.9-.5,1-1.9,1.7-1.8,2.8,0,1.4,2,1.9,2.6,3.2.3.8,0,1.7-.4,2.5s-1,1.5-1.2,2.3c-.4,1.9,1,3.8.4,5.6-.4,1.2-1.5,2-2.4,2.8-1.4,1.2-1.4,2.3-1.7,3.9-.4,2-.9,3.9-1.3,5.8-.9,3.9-1.8,7.8-2.7,11.7-1.1,4.9-2.9,9.9-2.7,14.9.2,5.6.4,11.2.5,16.8l.5,17.5c0,.2,0,3.6.1,3.6l-37.3-2s.6-53.9-2.9-81.5c-3.6-27.6-1.7-57.4,6.3-91.8h0v-.1Z"/>
          <path class="cls-4" d="M481,82s-10-1.2-15.5,1.1c-9.9,4.1-16,13.9-20.4,24.4-7.4,17.6-17.9,43.8-21.1,57.9-4.1,17.6,1.9,20.1,6.4,21.4s10.4,2.8,10.4,2.8c0,0-5.4,55.1-5.9,58.9s1,4.7,5.1,5.1,19,1.4,19,1.4l13.7-119.4,8.4-53.7h0l-.1.1Z"/>
          <path class="cls-1" d="M454.5,152.5c-3.6-3.7-1.7-11.6,3.3-19.7s11.3-11.1,15.6-6.8c4.3,4.3.4,17.9-8.6,26.5-2.9,2.7-7.5,2.9-10.4,0h.1Z"/>
          <path class="cls-1" d="M548.3,184.8c-4.8,0-17-.4-17-.4,0,0,1,8.7,1.2,11.8.1,3,0,6.1-.3,9.1s-1.5,6.2-1.6,9.2c0,3.8.9,10.2,3.5,13.3,6.1,7.2,11.7,1.1,12.3-19.2.6-20.6,1.8-23.8,1.8-23.8h.1Z"/>
          <path class="cls-1" d="M506.4,150.4c-1.6-.8-2.9.3-3,1.6s1.5,2.6,2.7,2.1,1.9-2.9.3-3.7h0Z"/>
          <path class="cls-1" d="M504.1,162.5c-.2,1,.5,1.9,1.4,2.2,1.4.4,2.8-1.3,2.1-2.6-.6-1.1-3-2.1-3.5.4h0Z"/>
          <path class="cls-1" d="M508.2,172.4c-.8-.6-2.1-.3-2.6.6s-.2,2.1.7,2.6,2.1.2,2.7-.6-.5-2.7-.8-2.7h0v.1Z"/>
          <path class="cls-13" d="M490.2,15.5c-7.6-.3-15.6,2.2-20.3,8.2-4.6,5.8-5.1,13.8-8.1,20.5-2.7,6-7.3,11-9.8,17.1-2.5,6.1-2.3,14.3,3.2,17.9-20.1,28.1-34,60.5-40.7,94.4-1.1,5.8-1.8,12.7,2.4,17,2.3,2.4,5.8,3.4,8.1,5.8,4.3,4.4,3.4,11.5,2.4,17.6-7.2,41.9-7.8,84.9-1.8,126.9-3.8,3.9-7.6,7.8-10,12.7s-2.8,11,0,15.5c4.5,7.1,14.5,7.7,22.9,7.4,23.4-.7,46.8-1.4,70.2-2,7.7-.2,15.8-.5,22.5-4.3s11.7-12,9-19.2c5.5-1.4,9.6-6.4,11.5-11.8s2-11.2,2-17c.6-56.9,1.3-113.8,1.9-170.7.2-18.7.2-38.2-8.3-54.8-3.6-7.1-8.8-13.5-11-21.2-2.7-9.3-.7-19.4-2.6-28.9-4-20.3-24.2-30.5-43.5-31.2v.1Z"/>
        </g>
      </g>
      <g class="cls-5">
        <path class="cls-4" d="M1114.6,328.1l2.2,35.9h-51.7s-4.3-5.6,3.7-10.5,22.9-9.8,24.7-22.1l21.1-3.2h0v-.1Z"/>
        <path class="cls-4" d="M1129.5,336.2v27.8h41c4.7,0,12.7-8.1,2.7-13.9s-13.6-3.4-19.2-12c-5.7-8.6-4.3-14.8-4.3-14.8l-20.2,12.9h0Z"/>
        <path class="cls-1" d="M1156.3,221.9s-1.4,26.8-2.9,39.9c-1.5,13.1,0,44.5,0,44.5,0,0,4.9,24-1.2,26.4s-21.7,7.9-26.2,6.1-.8-12.9-3.8-34.5-11.7-63.5-12.9-67.5-1.5,1-2,14.2,5.4,54,5.8,57.7c.5,3.7,8,5.7,3.1,11.9,0,0,9.1,5.3-.9,9.7-10,4.5-22.2,5.7-27.3,3.8s-3.8-8-6.3-21-11.8-67.2-15.4-82.3c-2.8-12.2-7.8-19-5.1-24,4.8-8.8,17.7-16.7,17.7-16.7l71.6,2.5,5.8,29.3h0Z"/>
        <path class="cls-4" d="M1172.2,187.5c.2-2.2,0-15.3,0-15.9,0-3.3.2-6.7.1-10,0-3.4-.1-6.8-.3-10.2-.2-3.1-.2-6.4-1.5-9.3-1.1-2.4-3-4.4-3.9-6.9-1.3-3.5-.7-7.7-2.6-10.9-1-1.7-2.6-2.9-4-4.2-.7-.7-1.4-1.4-2-2.3s-.8-1.7-1.2-2.5c-1.5-3.1-3.1-6.2-5-9.1-2.3-3.6-5.1-6.9-8.2-9.8-3.8-3.3-8.2-5.9-12.9-7.6-1.9-.5-3.7-.7-4.6-.7-15.9.4-13,.6-13,.6l-16.9-3.9s-7.4.9-12.2,2.1c-13.9,3.4-17.8,5.8-19.7,9-5,8.4-14.5,25.5-17.9,38.4-1.8,6.7-1.9,13.6-4.2,20.2-.8,2.1-1.7,4.3-1.6,6.5,0,2.5,1.4,4.8,1.5,7.3,0,2.8-1.1,5.2-.4,7.9.7,2.6,2.5,4.5,4,6.6,2.7,3.8-1.3,11.5,6,13.6l17.2-12s-1.4-15.3-1.6-22.1.2-7.4,1.6-7.4,2.2,35.3,2.2,35.3c0,0-3.3,5,15.2,6.2s56.7-1.7,56.7-1.7v-23.5s4.3-.5,1.3,13.2c-2,9.1,0,10.7,0,10.7l19.7,1.1s8-2.6,8.5-8.8h0l-.3.1Z"/>
        <path class="cls-23" d="M1125,89.7l-2.4-13.6s-.1-8.2,0-10.3,1.7-.9,3.2-4,3.5-11.9-3.8-13l-10.3-15.6s-17.1,2.4-19.2,4.7c-2.2,2.4-3.8,17-3.8,17,0,0-4,.5-2.4,7.3,1.6,6.8,5.5,8.3,7.8,8,0,0,1.3,5.5,2.3,7.4.8,1.5-1,8.9-1,8.9l5.1,6.1,11.7,3.6,12.8-6.7h0v.2Z"/>
        <path class="cls-1" d="M1122.1,50.4c-1.2,1.1-1.5-3.1-3.1-4.8s-4.6-2.4-4.6-4.5,0-2.5-1.1-2.8c-.7-.2-1.4.5-1.6,2-.9,5.2-8.7,3.9-12.1,0-1.3-1.5-1.4-3.2-1.4-3.2,0,0-4.7,2.3-5.7,1-.2-2.6,1-2.7,1.4-4.7s1.3-4.7,4.4-6.3c1.7-.9,3.3-1.2,5.2-1.2,5.7,0,8.6,4.3,8.6,4.3,0,0,1.5-1.5,3.5,0,1.3.9,1.5,2.7,1.5,2.7,0,0,2.1-1.3,3.1,1.5s-.6,5.3.1,6.5,3.4,8,1.7,9.6h0l.1-.1Z"/>
        <path class="cls-1" d="M1093.5,59.5c.7-.4.6-7.2-1.5-12.5s.6-9,.6-9c0,0-1.5-.6-3.3,1.9s-1.9,13.3-1.3,15.4c1.7-.2,2.8,1.2,3.4,2.3s1.4,2.4,2.2,1.9h-.1Z"/>
        <path class="cls-1" d="M1104.5,59.3c1.6-.3,1.9-1.6,2.4-1.4s1.1,2.8,3.8,3.8,5.6.8,6,2.4c.4,1.6-7.7,3.4-10.7.3,0,0-2.6,4.1-6.3,5-1.8.4-3.3,0-3.4-.9-.2-1.3.8-2.2,2.5-3.1,2.4-1.3,2.4-4.5,2.4-4.5,0,0-.8-.6-.4-1.4s2.4.1,3.7-.1h0v-.1Z"/>
        <path class="cls-1" d="M1108.8,75.9s1.9-4.2,5-4.7,8.9-5.7,8.9-5.7c0,0-.1,6.3,0,9.3,0,2.4-1.5,4.4-2.5,5-1.5.9-2.9.9-4.9-.1,0,0-1.6,3.6-5,4.3s-5.9,0-7.9-2.3c-1.2-1.4-2.6-.7-4.3-2s-3.1-4-.8-6.6,4.2,1.2,5.2.8c4-1.7,6.3,1.9,6.3,1.9h0v.1Z"/>
        <path class="cls-23" d="M1142.8,194s-3.3,9.2-1.8,11.5c1.4,2.3,5,.7,5,.7,0,0,3.7.4,1.8,5.5s-5.2,11.4-3.3,15.2,7.8-.9,14.8-7.4c0,0,4.8-12,1.6-23.5l-9.6-2.6-8.5.5h0v.1Z"/>
        <path class="cls-1" d="M1142.8,191.1c-1,3.4-.2,3.7-.2,3.7l20,3.5s2.3-.9,1.6-2.1c-.2-.4-1.6-1.1-2.5-1.5-3.4-1.5-15.2-4.7-18.9-3.5v-.1Z"/>
        <path class="cls-23" d="M1055.2,196.8l5.9,10s9.8-8.1,12.1-7.6c1.5.3,3.6.2,4.7-1,.9-1,.5-2.6.5-2.6l-9.6-8.6-13.7,9.8h.1Z"/>
        <path class="cls-1" d="M1051.6,196.5s0,.5.6,1.5c.6,1.1,1.9,1.7,4,.4,4.1-2.5,13.6-9.3,13.6-12.8s-1.1-2.1-1.1-2.1l-17.1,13h0Z"/>
        <path class="cls-1" d="M1095.8,84.9c-2.7-.2-2.8,2.7,0,5.7s7.7,7.2,15.4,7.2,15.3-5.3,15.7-7.1c.2-1,0-2.6-.3-3.2-.3-.5-1.9-.6-1.9-.6l.2,1.3c-2,1.7-6.6,6.2-13.9,6.1s-15-9.4-15-9.4h-.2Z"/>
        <path class="cls-1" d="M1070.8,104.6c-.6,1.8,1.1,1.6,2.1.7.7-.6,1-1.6,1-2.5,0-.6,0-1.5-.8-1.5-1.3,0-2.1,2.4-2.3,3.3h0Z"/>
        <path class="cls-1" d="M1080.5,107c0,.5.1,1,.5,1.3s1,.3,1.5,0c1.2-.7,2.1-2.8.9-3.9-1.4-1.3-2.8,1.4-2.9,2.6h0Z"/>
        <path class="cls-1" d="M1089.6,108.4c0,.6,0,1.2.2,1.7s.8,1,1.3.9c1.7-.2,2.8-3.4,1.9-4.7-.5-.7-1.3-1-2.1-.7-1.2.4-1.3,1.7-1.3,2.8h0Z"/>
        <path class="cls-1" d="M1098.6,110.1c0,.8.3,1.6,1,1.9.4.2.8,0,1.2-.1,1.3-.8,1.8-3.2.5-4.3-1.7-1.4-2.7,1.1-2.7,2.5h0Z"/>
        <path class="cls-1" d="M1109.6,107.8c-.3.5-.3,1-.3,1.5,0,.9.2,1.8,1,2.3s2,0,2.5-.8c1-1.9-1.5-5.5-3.1-3h-.1Z"/>
        <path class="cls-1" d="M1121.3,106.9c-.4-.2-.8-.2-1.2,0-.3.2-.4.6-.5,1-.2.8-.1,1.6.2,2.3s1,1.2,1.8,1.3,1.6-.5,1.7-1.2c.3-1.2-1-2.7-2-3.2h0v-.2Z"/>
        <path class="cls-1" d="M1131.3,107.7c.2.6.5,1.2,1.1,1.6,2,1.4,3.5-1.7,2.5-3.2-1.3-2.1-4.3-.8-3.6,1.7h0v-.1Z"/>
        <path class="cls-1" d="M1081.5,119.3c1.7,1.6,3.9-1.6,2.1-3.2-1.9-1.8-3.5,1.9-2.1,3.2Z"/>
        <path class="cls-1" d="M1089.9,120.5c1.8,1.7,4.4-1.6,2.4-3.2-2.2-1.8-4,1.7-2.4,3.2Z"/>
        <path class="cls-1" d="M1100.7,121.4c.2.7.5,1.5,1.2,1.7,2.1.8,2.6-3.2,1.5-4.6-1.6-2.2-3.2.8-2.7,2.8h0v.1Z"/>
        <path class="cls-1" d="M1112,119.6c0,.8.2,1.7.7,2.2s1.1.6,1.6,0c.8-1,.8-3.2-.1-3.8-1-.7-2.2-.2-2.2,1.6Z"/>
        <path class="cls-1" d="M1121.8,121.9c1.6,2.8,3.8-1.2,2.5-3.4-1.5-2.4-3.9,1.1-2.5,3.4Z"/>
        <path class="cls-1" d="M1131.3,116.5c-.7.2-1.1,1-1,1.7,0,1.8,3.1,3.6,4.2,1.5.9-1.8-1.4-3.9-3.2-3.2h0Z"/>
        <path class="cls-1" d="M1140.7,116.4c.5,1.3,1.9,2,2.6.4.4-1,.4-2.3,0-3.2-.3-.8-.9-1.4-1.8-1-1.4.7-1.2,2.6-.7,3.8h-.1Z"/>
        <path class="cls-9" d="M1132.5,49.8c-.7-10.8-5-21.8-13.6-28.3s-21.9-7.1-29.8.2c-6.7,6.3-8.1,16.5-8.1,25.7s.6,18.9-3.3,27.3c-3.5,7.5-10.3,12.8-16.2,18.6-18.1,18-28.7,43.4-28.8,69,0,30.8,14.2,59.6,24.9,88.5s17.6,62.3,3.4,89.7c-4.2,8.1-10.2,17.8-5.4,25.5,3.4,5.4,10.4,6.9,16.7,7.8,32.6,5,66.7,9.8,97.9-.7,8.1-2.7,17.3-8.9,15.9-17.3-1.2-7.4-9.6-10.7-14.9-16-7.9-7.8-8.8-20.1-9.2-31.3-.9-25.2-1.9-50.6,3.1-75.3,3.8-18.8,11.1-37,12.9-56.1,1.8-18.4-2-37.1-10.1-53.7-8.5-17.4-21-29.3-36-40.9-4.7-3.6-2.4-7.2-1.3-12.5,1.4-6.7,2.3-13.5,1.8-20.3h0l.1.1Z"/>
      </g>
      <g class="cls-18">
        <path class="cls-1" d="M1004.7,263.1s8.8,66.8,9.2,66.8h18.4s4-45.1,2.3-61.7-29.9-5.1-29.9-5.1h0Z"/>
        <path class="cls-1" d="M1043.9,259.3s1.4,25.9,4.6,55.9l22.7,8.7v-56.6l-27.2-8h-.1Z"/>
        <path class="cls-4" d="M1011.4,313.6s15.6.2,22,0c4,0,2.6,25.9,2.6,25.9l-.3,24.5h-11.1l-1.2-4.5s-7.2,4.5-15.2,4.5h-10.5c-2.8,0-7.8-3.2-4.6-7.7,2.1-3,6.3-4.1,12.1-7.8,7.4-4.6,8.3-9.3,8.3-9.3l-2.3-25.5h0l.2-.1Z"/>
        <path class="cls-4" d="M1071.1,314.3l-22.7.8,1.6,23.6-.5,25.2h10.5l2.2-4.2s5.4,4.2,9.8,4.2h12.9c6.7,0,9.9-8.1.5-12.3-13-5.8-14.4-13.9-14.4-13.9v-23.4h.1Z"/>
        <polygon class="cls-23" points="1030.2 29.7 1046.5 35 1063.1 46.9 1062 63.6 1043.9 94.7 1026.5 72.7 1021.5 47.1 1030.2 29.7"/>
        <path class="cls-4" d="M1068.8,163s8.5,23.7,13,37.4,6.7,61.8,6,75.7-1.6,21-1.6,21c0,0-84.9,8.3-99.8-4.2,0,0-.3-23.6,8.5-75.2,7.3-42.6,20.4-61.3,20.4-61.3l39.2,1.4,14.3,5.2h0Z"/>
        <path class="cls-1" d="M1048.2,74.5s-3.3.7-6.7.7-5.9-.3-7.3-.7c-.9-.6-2.6-1-3.2-.5-1,.9-.5,3.3,1.6,4.1-3.5,2-10.3,6.1-16,9.7s-10.9,5-17.2,23.6c-6.3,18.6-9,26.6-7.3,31.3,2,5.5,7.8,16,22.7,20.6,14.8,4.5,27.4,8.1,27.4,8.1,0,0,3-5.4,1.2-11.1,0,0,21.9,2.9,25.6,3.4s7.8-1.6,9.3-5.5c4.8-12,14.2-37.8,12.2-48.7-2.7-14.7-30.3-30.9-30.3-30.9l-12-4h0v-.1Z"/>
        <path class="cls-4" d="M1040.6,35.8c1.7,2.5,3.7,11.9,13.2,15.7,0,0,1.6-4.5,4.9-1.9s.9,10-1.7,11.1c-1.4.6-2.5,3.7-4.3,6.9-1.9,3.3-5.2,6.1-5.6,9.9-.2,2,0,4.1-.7,6-.8,2.5-3,4.5-3.1,7.1,0,2.2,1.3,4.3,1.9,6.5.9,3.8-1,7.7-1.1,11.6-.2,7,6.5,14.1,13.7,13,2.4-.4,4.5-2.5,5.3-4.8.4-1.2.7-2.4.7-3.7,0-1.4-.2-2.9.1-4.3.7-3.1,3.6-5.3,4.2-8.4.5-3.1-1.5-6.2-.9-9.3.4-1.8,1.6-3.4,2.4-5.1,1.3-2.8,1.1-5.9.7-8.9-.2-1.8-.7-3.5-.8-5.2-.1-2-.7-4-1-5.9s-.7-3.8-.9-5.7c-.2-1.4-.7-3-.6-4.5,0-1.2.1-2.3,0-3.6-.4-2.8-1.2-5.6-2.5-8.1-5.2-9.7-12.1-16.9-21.4-14.9,0,0-1.3-5.4-12.2-3.1-10.9,2.3-15.2,17.4-14.1,25.7,1.1,8.3,4.4,16.4,3.5,22.5s-5.7,10.3-3.6,13.3c0,0,9.8-2.8,14.5-5.8,1.6-1,1.2-3.4,1.5-3.9,0,0-2.2-2.1-1.2-3.4s2.8-.2,2.8-.2l-.8-1.8s-2.6-3.1-3.8-6.9c-1-3.2-2.4-7.4-1.3-11.8.2-.9.5-2.3,1-3.3s-.9-3.8.2-8.3c1.2-5,9-9.6,11-6.6h0v.1Z"/>
        <path class="cls-4" d="M1039.4,49.9c-.2,0-.4,0-.5.2s-.2.3-.3.5c-.6,1.3-.9,2.7-1.6,3.9-.2.4-1.1,1.5-1.3,1.8-.3.5-.6,1.1-.5,1.7,0,1.9,2.1,2.6,3.7,2.7h1.1c.3,0,.7-.4.7-.8,0-.8-.8-.8-1.3-.9-.6-.2-1.2-.4-1.7-.7s-.2-.9,0-1.3c.4-.6,1.7-3.3,1.9-4,.1-.5.9-2.8-.2-2.9h0v-.2Z"/>
        <path class="cls-23" d="M1041.4,153.5s-7.9-11.1-2.9-11.6c1.7-.2,14.2-2.8,17.4-2.6s6,2.7,6,2.7c0,0-6.4,6.2-11.9,8.7s-8.5,2.8-8.5,2.8h-.1Z"/>
        <path class="cls-23" d="M1031.8,141.6c0-.3-2-.4-2.2-.5-3.1-.5-6.2-.7-9.3-.6s-6.1.5-9.2,0c-4.2-.7-9.1-3.3-8.5-8.2.2-2.1,1.3-3.8,3.2-4.6s4.3-1,6.4-.3c.7.2,1.4.5,2.1.5.5,0,.9-.2,1.4-.3,1.6-.3,3.8,2,5,2.9,1.7,1.3,3.3,2.6,4.9,4,2.2,1.9,5.2,4.3,6.2,7.2h0v-.1Z"/>
        <path class="cls-14" d="M1080.1,33.5c-6.3-13-20-22.3-34.5-22.8s-29,8.1-35,21.2c-5.2,11.3-4.1,24.4-6.8,36.6-5.3,23.8-25,44.6-22,68.8,1.6,12.8,9.5,24.1,11.1,36.8,1.4,10.8-1.8,21.7-4.6,32.2-5.2,19.8-8.8,39.9-11,60.3-1.2,11.2-1.8,23.1,3.2,33.3,3.5,7.3,9.6,13,14.1,19.8s7.4,15.7,3.7,22.9c-4.2,8.2-16.1,13.4-14.3,22.5,1.4,7.5,11,9.6,18.5,10,14,.9,30.3.9,39.3-10,9.1,6.4,20.5,9.5,31.5,8.3,8.4-.9,17.4-4.8,20.5-12.7,5.4-13.4-8.7-27-8.8-41.4,0-12,9.3-21.7,14.6-32.5,9.2-19,5.4-41.5-.1-61.9-5.5-20.3-12.6-41.2-9.4-62,2.6-16.4,11.5-31.8,11.1-48.4-.3-12.3-6.2-22.9-14.8-31.4-3.1-3.1-6-5.9-5.9-10.6.1-5.9,3.2-11.5,3.6-17.4.5-7.4-.8-15-4.1-21.7h0l.1.1Z"/>
      </g>
      <g class="cls-20">
        <g class="cls-2">
          <path class="cls-4" d="M652.6,343.7s6.3,20.3-4.8,20.3h-44.6s-4.9-4.3-2.3-8.7,11.2-4.5,15.7-6.6c3.2-1.5,8.4-6.6,12.4-9,1.6-.9,2.3-1.7,3.7-1.1l.5,4.5,17.4-2,2,2.5h0v.1Z"/>
          <path class="cls-23" d="M629.4,208.8s-.3,17.8,3.2,19c0,0-1.9,30.8,0,37.1s-1.4,6-1.2,17.3c.2,11.4-2.7,46.2-2.5,57.5,3,.1,3,5.5,3,5.5l21.8,3.7s4.5-7.6,1.2-10.6c0,0,1.8-32.9,6.6-58.6s6.5-35.4,9.2-35.5c1.5,0,3.3,38.9,3.3,38.9l5.9,69.5s11.4-5.6,22-9c2.1-.7,2.4-.5,2.7-5.3s-.3-6.6-1.9-6.8c0,0,2.2-33,4.2-45.5s4.8-58,4.8-58c0,0,5.4-2.2.8-18.3-4.6-16.1.8-20.5.8-20.5l-24.2-4.7-54,2.7-5.8,21.6h.1Z"/>
          <path class="cls-1" d="M696.5,38.8s2.2,7.1,1.5,10.7c-.7,3.6,1.2,4.4,1.2,4.4,0,0,1.7,2.8,2.6,4.6,1,1.8-2,4.6-4.3,4.3,0,0,.2,6.5-3,9.7s-4.3,4.1-4.3,6.4-.6,21.2-.6,21.2l-18.7,2.5-5.5-11.5s1.6-11.5,1.6-15v-8.5l-5.3-8.4-.8-11.8,14.7-5.9,21.1-2.9h0l-.2.2Z"/>
          <path class="cls-4" d="M666.8,76.2s-.2,11.5,3.4,15.2c3.6,3.8,11.4,4.1,15.6-.2,3.8-3.9,4.3-9.3,4.3-12.2h6.2c3.4,0,6.7,2.7,5.5,5.8-1.2,3.2,8,6.7,12.9,9.6s9.8,5.2,14.7,21.4c1.4,4.6,2.8,9.2,4,13.9.6,2.1,1.2,4.2,1.7,6.3.5,2,1.2,4,1.7,6,.3,1.8.5,3.6,0,5.3-.4,1.1-1,2.2-1,3.4,0,1.3.8,2.4,1.4,3.5.6,1.1,1,2.4,1.1,3.6s-.2,2.6-.9,3.6c-.7.9-1.6,1.6-2.1,2.7-.5,1-.5,2.1-.4,3.2,0,1.1,0,1.8-.3,2.8-.3.9-.5,1.9-.7,2.9l-1.5,6c-1.1,3.9-2.3,7.8-4.2,11.5-.3.5-.5,1.4-.9,1.8-6.2,10.7-14.6,17.4-14.6,17.4l-6.4-17.9s-13.7,11.9-32.5,11-32.5-8.9-32.5-8.9l-11.7,16.4s-3.8,0-3.8-6.6c0,0-6,.4-5.1-7.6,1-8.1-8-19.7-7.7-26,.2-6.2-6.2-8.5-3.5-20.3s8.3-31.6,19.4-49.4c3.5-5.6,6.7-9.7,10.2-11.1,7.7-3,12.7-2.8,12.7-2.8,0,0-2.4-4.5,4-9.1,4.9-3.5,11.1-1.2,11.1-1.2h-.1Z"/>
          <path class="cls-4" d="M666.8,76.2s1.2-11.7-.3-14.4-3.7-1.2-4.2-6.8,2.7-7.6,4.9-4.9,3.2,5.2,5.2,4.7,2.3-4.5,2.3-7,1-1,4.1.5c2.1,1,4.8,1,7,.5,1.1-.3,2.2-.8,2.9-1.7.4-.5.7-1.1,1.2-1.4.5-.3,1-.2,1.6-.1s1,.4,1.5.5c2.1.6,4.6-.4,5.7-2.3.4-.7.5-1.6.4-2.4v-.7c0-.2.3-.4.5-.6,1-.9,1.7-2,2.1-3.2.2-.5.4-1.9,0-3.8-1.7-7.1-9.4-7.6-14-5.9-2.6-1.6-9.6-2.4-12.7,1.2-3,3.6-2.5,3.5-5.5,3.2s-7.2,1.4-7.4,8.6c0,0-4.5,4.4-4.2,9.7s1.7,5.8,2.2,10,.2,14.4,6.8,16.5h0l-.1-.2Z"/>
          <path class="cls-4" d="M690.3,48.9c-2.2-.2-5,1.3-4.9,6.1,0,4,2.5,5.6,4.5,5.4s3.3-2.5,3.3-5.5-.6-5.9-2.9-6.1v.1ZM691.6,54.3c0,2.2-.5,4.3-2,4.4s-2.5-.9-2.7-3.5.9-4.9,3-4.7c1.2,0,1.7,1.7,1.7,3.8h0Z"/>
          <path class="cls-4" d="M692.7,51.9c0-.4.7-1,.9-1.3.5-.5,1.1-.8,1.8-1,.9-.2,2.1-.2,3,.1,0-.4,0-1,.2-1.3.2-.5,1-.5,1.1.1v.7c0,2,.2,3.9,0,5.9-.1-.2-1.1-1.5-1.3-1.7-.1-.3,0-.5-.1-1,0-.3,0-.6-.2-.9-.1-.2-.3-.3-.6-.4h-2.4c-1,.2-1.8.8-2.1,1.8-1,2.5-.5-1.1-.5-1.1h0l.2.1Z"/>
          <path class="cls-23" d="M681.3,100.9s-.2-.9,1.2-1,1.2.8,1.1,2.1v9.6s0,4.5-1.1,4.6c0,0-.4.1-1.2,0,0,0-1.1-.2-.9-2.5s.7-4,.8-6.4.2-6.3.2-6.3l-.1-.1Z"/>
          <path class="cls-23" d="M665.7,94.5c.4.2.6.7.8,1.1.4,1.1.8,2.1,1.3,3.2,1.1,2.8,2.3,5.7,2.2,8.7,0,3.2-1.5,6.3-.8,9.4.2.8.5,1.8-.1,2.5-.2.2-1.9.4-1.9.4,0,0-.4-.2-.5-.3-.3-.3-.3-.7-.4-1.1-.2-1.9-.3-3.8-.2-5.7.1-1.6.5-3.3.6-4.9.2-1.6.1-3.3-.5-4.9-.4-1-1-1.9-1.5-2.8-.5-1.1-.8-2.3-.8-3.5,0-.6,0-1.3.4-1.7.3-.4,1-.5,1.4-.3h0v-.1Z"/>
          <path class="cls-4" d="M679.7,349s-.9,2-1.5,7.7c-.5,5.3,1.2,7.3,3,7.3h35.6c7.7,0,9.2-7,4.3-11.6-2.8-2.6-12.8-3.5-15.9-5.1-1.6-.8-7.4-6-9-6.8-2.6-1.2-9.2-2.1-11.1,3.6-.4,1.2-1.3,2.4-2.4,3.2-.4.3-3,1.7-3,1.7h0Z"/>
          <path class="cls-12" d="M710.2,32.3c-.8-1.5-1.8-3-2.9-4.3-5.3-6.6-13.4-10.7-21.9-11.1-15.1-.7-29.8,9-32.9,23.9-1.5,7-1.2,14.2-2.3,21.3-1,7.1-3.5,14.4-9.2,18.7-3.8,3-8.6,4.3-13,6.2-7.7,3.3-9.3,8.2-12.9,15-4.1,7.8-8,15.8-10.7,24.3-5.5,16.8-4.2,34.6-.4,51.6,4.1,18.3,10.8,36,14.2,54.5,3.5,19.6,3.2,39.6,1.2,59.4-.9,8.6-2.9,16.4-4.9,24.7-1,4.1-.7,8.1-2.1,12.1-1.6,4.3-4,8.3-6.5,12.1-4.1,6.1-9.3,12.4-11.2,19.6-1.6,6.3,3.8,12.2,9.3,14.6,4.2,1.8,8.7,2.3,13.3,2.5,16.2.8,33.4-2.5,45.4-13.3,0,0,12.1,7.2,13.3,7.8,5.1,2.4,10.4,4.4,15.8,5.8,9.4,2.4,21.3,3.6,29.4-3,6-4.9,8.6-14.6,8.3-22.1-.3-7.6-9.3-11.7-13.6-17.3-3.6-4.7-5-10.8-5.1-16.7s1.1-11.8,2.2-17.6c3-15.2,6.1-30.4,9.1-45.5,2.8-13.8,3.8-27.3,8.6-40.7,5.4-14.8,13.4-28.6,17.1-43.9,7.3-29.9-3.8-63.6-27.5-83.3-3.9-3.3-8.4-6.4-10.3-11.2-3.1-7.9,1.8-16.4,3.3-24.7,1.2-6.6,0-13.6-3.2-19.5h0l.1.1Z"/>
        </g>
      </g>
      <g class="cls-20">
        <g class="cls-3">
          <path class="cls-1" d="M790,344l-3.2,19.9h-46.4s-2-3.4-2-5.5c0-6.8,16.7-8.5,23.8-13.4s9.8-10.6,9.8-10.6l18,9.5h0v.1Z"/>
          <path class="cls-1" d="M828.1,343.8s1.2,3.3-4.7,8.5c-5.8,5.2-3.5,11.6-3.5,11.6h30.5c2.6,0,2-20.6,2-20.6l-24.3.5h0Z"/>
          <path class="cls-4" d="M829.3,33.8c2.1,2.7,3.2,6.1,5.6,8.5,1.1,1.1,2.3,1.9,3.4,2.9s2.1,2.3,2.3,3.8-.7,3.2-2.1,3.6c1.9.5,2.8,2.7,2.9,4.7s-.5,3.9-.3,5.9c.3,2.4,1.7,4.4,2.2,6.8s-.3,5.3-2.6,5.8c2.4,1.6,2.8,5.3,1.4,7.8-1.4,2.5-4.3,4-7.2,4.4s-5.8-.2-8.6-.8c-5.2-1.2-10.3-2.6-15.5-2.9s-5.3,2.6-9.3,6.1c-1.7,1.5-8.7,1.7-10.7,2.7-2.5,1.3-5.7,1.1-8-.5s-3.6-4.5-3.2-7.3c.3-1.9,1.3-3.8,1.3-5.7,0-3.7-3.7-6.7-3.8-10.4,0-4.1,4-6.9,5.4-10.8.8-2.1.6-4.4.6-6.6s0-4.5.8-6.6c.9-2,3-3.7,5.2-3.5-1.6-.9-1.2-3.4,0-4.7,1.3-1.3,3.1-1.9,4.6-2.9,2.3-1.7,3.7-4.4,5.9-6.3,3.5-2.9,8.5-2.5,12.1-.1,1.9,1.2,3,1,5.1.8s4.5.2,6.6,1c2.3.9,4.4,2.4,6,4.4h0l-.1-.1Z"/>
          <path class="cls-23" d="M763.9,123c-.2,5,16.7,21.7,16.7,21.7l-3.8,16.2,51.2-1.1,28.2-33.9,5.7-.9s-2.6-22.5-13.2-31.7c0,0-20.3-11.4-41.5-8.7-14.1,1.8-24.5,7.9-24.5,7.9l-18.7,30.4h0l-.1.1Z"/>
          <path class="cls-1" d="M808.9,37.5s0,10.3,9.1,15.9c5.7,3.5,6.7-.3,9.6,1.9,2.9,2.2-1.5,8.7-5.1,9s-1.4,22.4-1.4,22.4c0,0-3.2,3.9-9.2,3.9s-11.1-1.9-11.1-5.5.1-8,.1-8c0,0-2.9-1.5-4.8-5.8-1.9-4.2-3-8.4-2.3-12.3.3-1.5,1.5-4,1.7-4.7s0-2,.2-4c.2-1.9,1.1-3.6,2.7-4.4,4.6-.4,8.7-1.1,10.5-8.5h0v.1Z"/>
          <path class="cls-4" d="M805.4,52c1.1.7-2.5,5.3-3,6.1s-.6,1.9.3,2.2c1.6.5,1.5,2.5-.8,1.9s-2.5-2.1-2.1-3.4c.3-.9,1.4-2.3,2.6-3.8,1.4-1.7,2.2-3.5,2.9-3.1h0l.1.1Z"/>
          <path class="cls-1" d="M773,132v12.3c0,5.8-.2,11.7-.7,17.5-.6,7.3-1.2,15.2-3.2,22.2-1.4,4.9-3.3,9.6-4.2,14.6s-.6,10.4,2.1,14.7c1.4,2.2,3.9,4.1,6.3,3.3,1.9-.6,2.9-2.7,3.5-4.6.9-2.9,1.8-5.7,3.3-8.3,1.7-3,2-6.8,2.7-10.2,1.3-6.9,2.6-13.9,3.2-20.9.3-2.9.5-5.9.2-8.9,0-1-.2-2-.6-2.9-.8-1.8-2.2-1.5-4-1.6-.3,0-.6,0-.8-.2-.4-.3-.4-.8-.3-1.2.3-5.9,1.2-11.9.6-17.8-.3-2.7-2.1-3.6-4.1-5.2-1.1-.8-3.9-2.8-3.9-2.8h-.1Z"/>
          <path class="cls-4" d="M783.7,159.2s-19.5,93.7-22.6,109.4-11.2,66.6-11.2,66.6c0,0,7.2,9.7,47.1,10.4l12.6-121.3s-.9,31-.5,50c.4,19,4.8,52.4,5.6,58.5.5,3.5.9,6.9,1.4,10.4v.5s31.3,3.6,54.8-2.9c0,0-16-74.1-18.2-82.7-2.3-8.5-2.6-19-3.9-31.4-1.3-12.4-7.8-29.6-7.8-29.6l-13.1-37.4-44.3-.6h0l.1.1Z"/>
          <path class="cls-1" d="M839.7,89.3s-11.8,3.6-12.1,14.8c-.3,11.1,2.5,1.2,3-1.5.9-4.8,3.9-9.4,11.8-12.2-1.8-.7-2.7-1.1-2.7-1.1h0Z"/>
          <path class="cls-23" d="M856.2,125.9l3.1-.5s11,31.1,12.2,36,5.1,13.9,7.1,20.6c2,6.7,7.4,18.3,6.1,20.6s-41,11.8-45.5,12.8-6.7-.7-7.5-5.9c-.9-6.1-8.6-61.8-8.6-61.8,0,0,23.7,1.9,30,0s9.4-2.9,9.4-2.9l-6.3-19h0v.1Z"/>
          <path class="cls-1" d="M836.8,126.3s11.2.8,19.4-.4c0,0-1.9,32.5-15.2,37.2-6.7,2.4-11.4-1.6-17.9-15.2s-7.3-27-7.3-27c0,0,7.1-25.8,14.5-21.5,1.5.9,2.2,4,1.3,6.1-1.2,2.8-3.4,5.6-3.4,5.6,0,0,2.4-1.6,3.5-.2,1,1.3.6,4.1-4.7,12.7l7.8,11.8,1.9-9h0l.1-.1Z"/>
          <path class="cls-1" d="M797.2,94.2c4.3,1.1,8.7,1.5,13.2,1.8s9.1,0,13.5-.7c.4,0,.7-.1,1.1,0s.7.4.7.7c0,.5-.4.9-.9,1-3.7,1.3-6.6,1.2-10,1.3-1.8,0-8.3-.2-9.8-.4-1.8-.2-3.7-.5-5.5-.8-4.5-.7-8.7-2.1-12.9-4,.2-.9,1.2-1.4,2-1.4.5,0,3.6,1.3,8.4,2.6h0l.2-.1Z"/>
          <path class="cls-1" d="M818.7,112.4c2.2-.2.8,2.6,2.7,3.5-.5.7-.8-.3-2.2-.2-5.1.3-12.2,0-19.7-1.6-4.7-.9-9.4-2.1-14-3.3-1-.2-12-3.4-12-3.4.6-.8,1-1.8,1.6-2.6,12.5,4.2,29.7,8.6,43.6,7.5h0v.1Z"/>
          <path class="cls-1" d="M765.2,120.9l1.3-2.1c2.9,1.1,12.1,5.9,22.8,8.2,8.8,1.9,18.8,4.3,27.8,4.4,1,0,3.5-.5,2.7.2-.3.2.4,1.9,0,1.9-12.9.9-26.9-2.4-39.4-5.7-8.3-2.2-15.2-6.9-15.2-7v.1Z"/>
          <path class="cls-1" d="M783.3,145.8c.3-1.5,4-.5,5.1-.5,3.6.2,7.2.3,10.8.4,7.3.2,14.6.5,21.9,1.3.4,0,.8,0,1,.3.5.4.2,1.1-.4,1.4s-1.4.3-2.2.3c-9.5-.2-19.1-.3-28.6-.9-1.2,0-7.8.3-7.7-2.3v-.1h0l.1.1Z"/>
          <path class="cls-23" d="M784.3,130.8c.3,5-3.1,5.5-3.2,4.4-.4-3.2-.8-6.5-.9-9.8,0-1.9-.4-3.9-.3-5.8,0-2,1.1-4.3,1.8-6.1,1.5-4.1,3.6-8,6.1-11.7.2-.4.6-.8,1-.8.5,0,1,.5,1,1s-.2,1-.4,1.5c-2.1,4.3-3.6,8.9-4.5,13.6-1,4.7-.7,8.9-.4,13.7h-.2Z"/>
          <path class="cls-1" d="M837.5,120.7c7.6-1.1,15.4-2.2,23-3.3.2,1.1.4,1.9.4,1.9,0,0-2.3.7-3,.8-5,1.1-19.2,2.8-20.6,2.6-1.1,0-1.4-1.8.2-2.1h0v.1Z"/>
          <path class="cls-1" d="M839.1,108.2c5.6-.5,11.4-3.4,15.5-7.3.5,1.1.9,1.6,1.3,2.6.3.7-5.3,3.6-6,4-2,1-4.1,1.8-6.2,2.3-1.8.4-4.3.7-6.2.5-3-.3-1.2-1.9,1.7-2.1h-.1Z"/>
          <path class="cls-6" d="M795.1,19.8c-16.3,5.8-28.1,22.4-28.2,39.7,0,15.5,8,32.1.8,45.8-4,7.5-12.3,13.1-12.9,21.6-.5,6.9,4.5,13,6.4,19.6,4.4,15.4-7.9,30.5-8.9,46.4-.7,11,4,21.6,5.4,32.6,2.1,16.8-3.8,33.4-8.5,49.7-6.7,22.9-11.1,46.5-15.5,69.9-1.6,8.4-3,17.8,1.4,25.1,5.7,9.4,18.2,11.4,29.1,12.5,8.7.8,17.8,1.6,26-1.5s15.2-11.4,13.7-20c1,5.7,5.7,10.2,11,12.5s11.2,2.8,17,3.3c8.5.7,18.3.9,23.8-5.6,2.6-3,3.8-7.1,6.5-10,4.2-4.5,11.1-5.4,15.7-9.5,7.7-6.9,5.8-19.1,3.3-29.1-4.5-17.6-8.9-35.3-13.4-52.9-2.4-9.4-4.8-18.9-4.4-28.6s3.7-19.6,11.1-25.9c6.5-5.4,15.8-8.1,19.2-15.8,4.2-9.5-3.5-19.6-8.2-28.9-10.2-20.7-5.7-46.3-15.9-67-3.6-7.3-9-13.8-11.6-21.4-5-14.4-.9-30.7-8.5-44.5-4.9-8.9-19.1-15.9-28.3-18.6-8.5-2.5-17.7-2.4-26.1.5h0v.1Z"/>
        </g>
      </g>
    </g>
  </g>
</svg>